M48
;Layer_Color=9474304
;FILE_FORMAT=4:4
METRIC,LZ
;TYPE=PLATED
T1F00S00C0.3000
T2F00S00C0.4000
T5F00S00C0.8000
T6F00S00C1.0000
T7F00S00C1.0300
T8F00S00C1.1000
T9F00S00C1.5000
T10F00S00C2.3800
T11F00S00C3.2000
;TYPE=NON_PLATED
T12F00S00C0.6500
T13F00S00C3.2000
%
T01
X00011Y00123
Y00135
X0002Y00115
X00042Y00123
Y00135
X00079Y00132
X0008Y00141
X00079Y00102
X00106Y00119
X00135Y0012
X00204Y00136
X00242Y00106
X00254
X00319Y00135
X00316Y00046
X00418Y00088
X00433Y0013
X00485Y00131
X00465Y00088
X00464Y00144
X00485438Y00149
X00485Y00158
X00447Y00183
X0041Y00184
X00389Y00218
X003845Y002475
X0037Y00249
X00359Y00247
X00362Y00281
X0034Y00302
X00339Y00316
X00332Y00325
X00322
X0031
X00313Y00309
X0031Y00294
X00282
X00265Y00288
X00237Y00286
X00238Y00316
X00235Y00338
X00244
X002575Y003465
X00233Y003545
X0018Y00352
X00157Y00348
X00118Y00331
X0011Y00330611
X00103Y00291
X00076Y00252
X00051
X00071Y00227
X00064Y00177
X00082Y00162
X00048Y00156
X00109Y00149
X00125Y00148
X00135
X00194Y00143
X00229Y00156
X002265Y0018151
X00235Y00182
X00252Y001883
X00253Y00174
X0025675Y0016625
X0027Y0017
X00284Y00185
X00283Y00199
X0028Y00216
X00264Y00205
X0025Y0025
X00222899Y00245
X00214
X00227Y00232
X00203Y00226
X00179Y00225
X00152Y00226
X00164Y00264
X00196Y00262
X00229
X00278Y00265
Y00255
X00329Y00212
X00323Y00204
X0035Y00206
X00358Y00161
X00368Y00158
X00369Y00149
X0038Y00158
X00386Y00146
X00343Y00157
X00327Y00156
X00312Y0017
X00306204Y0014625
X00289Y0015
X00317Y00347
X00325Y00349
X00336125Y00341875
X0035Y00347
X0036Y00348
X00368Y00344
X0035Y003285
X00414Y00335
X00403Y002725
X00429Y00265
X00065Y00361
X00024Y00371
X00009Y00354
X00011Y00159
Y00147
X00039Y00162
T02
X0006Y000826
X00069
X00077
X00086
X000815Y000736
T05
X00409Y002138
Y002462
T06
X003485Y000335
X00336Y000585
X00406
X003935Y000335
T07
X00192Y001241
X00217
X00237
X00262
T08
X003406Y00108
X00366
X003914
X00118Y001662
Y001916
Y00217
T09
X00478Y00187
Y00305
T10
X001613Y00097
X002927
T11
X00466Y00036
X00024Y00204
T12
X000385Y00094
X001075
T13
X0047Y00246
M30
