G04*
G04 #@! TF.GenerationSoftware,Altium Limited,Altium Designer,20.0.7 (75)*
G04*
G04 Layer_Color=128*
%FSLAX44Y44*%
%MOMM*%
G71*
G01*
G75*
%ADD22R,0.8000X0.8000*%
%ADD23R,0.6000X0.5000*%
%ADD24R,0.5000X0.6000*%
%ADD25R,0.5000X0.5000*%
%ADD26R,0.5000X0.5000*%
%ADD27R,1.3000X0.9000*%
%ADD37O,0.6000X0.4000*%
%ADD38R,0.6000X0.4000*%
%ADD116R,0.6600X0.4200*%
%ADD117R,0.9000X0.8000*%
%ADD118R,0.8000X0.9000*%
D22*
X53500Y260000D02*
D03*
X38500D02*
D03*
X38500Y248000D02*
D03*
X53500D02*
D03*
D23*
X359000Y329000D02*
D03*
Y319000D02*
D03*
X350000Y329000D02*
D03*
Y319000D02*
D03*
X19000Y354000D02*
D03*
Y364000D02*
D03*
X28000Y364000D02*
D03*
Y354000D02*
D03*
X125000Y148000D02*
D03*
Y138000D02*
D03*
X341000Y337000D02*
D03*
Y347000D02*
D03*
X403000Y273000D02*
D03*
Y263000D02*
D03*
X135000Y110000D02*
D03*
Y120000D02*
D03*
D24*
X84000Y310000D02*
D03*
X94000D02*
D03*
X84000Y292000D02*
D03*
X94000D02*
D03*
X21000Y123000D02*
D03*
X11000D02*
D03*
Y135000D02*
D03*
X21000D02*
D03*
Y147000D02*
D03*
X11000D02*
D03*
Y159000D02*
D03*
X21000D02*
D03*
D25*
X94000Y301000D02*
D03*
X84000D02*
D03*
X332000Y325000D02*
D03*
X322000D02*
D03*
X277000Y346000D02*
D03*
X267000D02*
D03*
D26*
X368000Y319000D02*
D03*
Y329000D02*
D03*
X350000Y337000D02*
D03*
Y347000D02*
D03*
X135000Y148000D02*
D03*
Y138000D02*
D03*
D27*
X63000Y137000D02*
D03*
Y118000D02*
D03*
D37*
X75000Y335500D02*
D03*
Y329000D02*
D03*
Y322500D02*
D03*
X47000Y342000D02*
D03*
Y335500D02*
D03*
Y329000D02*
D03*
Y322500D02*
D03*
Y287000D02*
D03*
Y293500D02*
D03*
Y300000D02*
D03*
Y306500D02*
D03*
X75000Y287000D02*
D03*
Y293500D02*
D03*
Y300000D02*
D03*
D38*
Y342000D02*
D03*
Y306500D02*
D03*
D116*
X39400Y321250D02*
D03*
Y327750D02*
D03*
Y334250D02*
D03*
Y340750D02*
D03*
X10000Y321250D02*
D03*
Y327750D02*
D03*
Y334250D02*
D03*
Y340750D02*
D03*
Y305750D02*
D03*
Y299250D02*
D03*
Y292750D02*
D03*
Y286250D02*
D03*
X39400Y305750D02*
D03*
Y299250D02*
D03*
Y292750D02*
D03*
Y286250D02*
D03*
D117*
X305000Y344000D02*
D03*
Y325000D02*
D03*
D118*
X285000Y334500D02*
D03*
M02*
