G04*
G04 #@! TF.GenerationSoftware,Altium Limited,Altium Designer,20.0.7 (75)*
G04*
G04 Layer_Color=16711935*
%FSLAX44Y44*%
%MOMM*%
G71*
G01*
G75*
%ADD49R,1.0000X1.0000*%
%ADD50R,0.8000X0.7000*%
%ADD51R,0.7000X0.8000*%
%ADD52R,0.7000X0.7000*%
%ADD53R,0.7000X0.7000*%
%ADD54R,1.5000X1.1000*%
%ADD62O,0.7400X0.5400*%
%ADD63R,0.7400X0.5400*%
%ADD71C,0.8500*%
%ADD72O,1.2000X2.2000*%
%ADD73O,1.5000X0.8500*%
%ADD74R,1.7450X1.7450*%
%ADD75C,1.7450*%
%ADD76C,3.5960*%
%ADD77C,4.2000*%
%ADD78C,1.5080*%
%ADD79C,2.1000*%
%ADD80C,1.2000*%
%ADD81R,2.1000X2.1000*%
%ADD82O,2.2000X1.8000*%
%ADD83R,2.2000X1.8000*%
%ADD84O,1.8000X2.2000*%
%ADD85R,1.8000X2.2000*%
%ADD86C,7.6000*%
%ADD87C,3.2500*%
%ADD121R,0.8000X0.5600*%
%ADD122R,1.1000X1.0000*%
%ADD123R,1.0000X1.1000*%
%ADD124R,0.7100X3.6000*%
%ADD125R,1.9800X2.5100*%
D49*
X53500Y260000D02*
D03*
X38500D02*
D03*
X38500Y248000D02*
D03*
X53500D02*
D03*
D50*
X359000Y329000D02*
D03*
Y319000D02*
D03*
X350000Y329000D02*
D03*
Y319000D02*
D03*
X19000Y354000D02*
D03*
Y364000D02*
D03*
X28000Y364000D02*
D03*
Y354000D02*
D03*
X125000Y148000D02*
D03*
Y138000D02*
D03*
X341000Y337000D02*
D03*
Y347000D02*
D03*
X403000Y273000D02*
D03*
Y263000D02*
D03*
X135000Y110000D02*
D03*
Y120000D02*
D03*
D51*
X84000Y310000D02*
D03*
X94000D02*
D03*
X84000Y292000D02*
D03*
X94000D02*
D03*
X21000Y123000D02*
D03*
X11000D02*
D03*
Y135000D02*
D03*
X21000D02*
D03*
Y147000D02*
D03*
X11000D02*
D03*
Y159000D02*
D03*
X21000D02*
D03*
D52*
X94000Y301000D02*
D03*
X84000D02*
D03*
X332000Y325000D02*
D03*
X322000D02*
D03*
X277000Y346000D02*
D03*
X267000D02*
D03*
D53*
X368000Y319000D02*
D03*
Y329000D02*
D03*
X350000Y337000D02*
D03*
Y347000D02*
D03*
X135000Y148000D02*
D03*
Y138000D02*
D03*
D54*
X63000Y137000D02*
D03*
Y118000D02*
D03*
D62*
X75000Y335500D02*
D03*
Y329000D02*
D03*
Y322500D02*
D03*
X47000Y342000D02*
D03*
Y335500D02*
D03*
Y329000D02*
D03*
Y322500D02*
D03*
Y287000D02*
D03*
Y293500D02*
D03*
Y300000D02*
D03*
Y306500D02*
D03*
X75000Y287000D02*
D03*
Y293500D02*
D03*
Y300000D02*
D03*
D63*
Y342000D02*
D03*
Y306500D02*
D03*
D71*
X60000Y82600D02*
D03*
X69000D02*
D03*
X77000D02*
D03*
X86000D02*
D03*
X81500Y73600D02*
D03*
X38500Y94000D02*
D03*
X107500D02*
D03*
D72*
X12250Y36000D02*
D03*
X133750D02*
D03*
X12250Y74600D02*
D03*
X133750D02*
D03*
X28350Y98000D02*
D03*
X117650D02*
D03*
D73*
X41000Y82600D02*
D03*
X105000D02*
D03*
D74*
X192000Y124100D02*
D03*
D75*
X217000D02*
D03*
X237000D02*
D03*
X262000D02*
D03*
D76*
X161300Y97000D02*
D03*
X292700D02*
D03*
D77*
X478000Y305000D02*
D03*
Y187000D02*
D03*
D78*
X409000Y213800D02*
D03*
Y246200D02*
D03*
D79*
X336000Y58500D02*
D03*
D80*
X348500Y33500D02*
D03*
X393500D02*
D03*
D81*
X406000Y58500D02*
D03*
D82*
X118000Y217000D02*
D03*
Y191600D02*
D03*
D83*
Y166200D02*
D03*
D84*
X391400Y108000D02*
D03*
X366000D02*
D03*
D85*
X340600D02*
D03*
D86*
X24000Y204000D02*
D03*
X466000Y36000D02*
D03*
D87*
X470000Y246000D02*
D03*
D121*
X39400Y321250D02*
D03*
Y327750D02*
D03*
Y334250D02*
D03*
Y340750D02*
D03*
X10000Y321250D02*
D03*
Y327750D02*
D03*
Y334250D02*
D03*
Y340750D02*
D03*
Y305750D02*
D03*
Y299250D02*
D03*
Y292750D02*
D03*
Y286250D02*
D03*
X39400Y305750D02*
D03*
Y299250D02*
D03*
Y292750D02*
D03*
Y286250D02*
D03*
D122*
X305000Y344000D02*
D03*
Y325000D02*
D03*
D123*
X285000Y334500D02*
D03*
D124*
X24350Y331000D02*
D03*
Y296000D02*
D03*
D125*
X28900Y331000D02*
D03*
Y296000D02*
D03*
M02*
