G04*
G04 #@! TF.GenerationSoftware,Altium Limited,Altium Designer,20.0.7 (75)*
G04*
G04 Layer_Color=16711935*
%FSLAX44Y44*%
%MOMM*%
G71*
G01*
G75*
%ADD10C,0.1500*%
%ADD11C,0.2000*%
%ADD12C,0.1270*%
%ADD13C,0.3000*%
%ADD14C,0.1000*%
%ADD15C,0.2540*%
%ADD16C,0.0500*%
%ADD90C,0.5000*%
%ADD127C,0.1200*%
D10*
X85600Y127400D02*
G03*
X85600Y127400I-700J0D01*
G01*
X114600Y132400D02*
G03*
X114600Y132400I-700J0D01*
G01*
X222300Y176000D02*
G03*
X222300Y176000I-300J0D01*
G01*
X80000Y348700D02*
X80150Y348550D01*
X41950Y348700D02*
X80000D01*
X41950Y316000D02*
Y348700D01*
Y316000D02*
X80150D01*
Y348550D01*
Y280500D02*
Y313050D01*
X41950Y280500D02*
X80150D01*
X41950D02*
Y313200D01*
X80000D01*
X80150Y313050D01*
X129300Y326000D02*
X129450Y325850D01*
X129300Y326000D02*
Y364050D01*
X162000D01*
Y325850D02*
Y364050D01*
X129450Y325850D02*
X162000D01*
X370150Y170450D02*
Y203000D01*
X331950D02*
X370150D01*
X331950Y170300D02*
Y203000D01*
Y170300D02*
X370000D01*
X370150Y170450D01*
X414000Y141000D02*
Y168000D01*
Y141000D02*
X460000D01*
X414000Y168000D02*
X460000D01*
Y141000D02*
Y168000D01*
X414000Y80000D02*
Y107000D01*
Y80000D02*
X460000D01*
X414000Y107000D02*
X460000D01*
Y80000D02*
Y107000D01*
D11*
X46500Y95500D02*
G03*
X46500Y95500I-1000J0D01*
G01*
X423000Y165000D02*
G03*
X423000Y165000I-500J0D01*
G01*
Y104000D02*
G03*
X423000Y104000I-500J0D01*
G01*
X-600Y392800D02*
X126800D01*
X-600Y239300D02*
Y392800D01*
Y239300D02*
X126800D01*
Y392800D01*
X294600Y274400D02*
X364600D01*
Y343400D01*
X294600D02*
X364600D01*
X294600Y274400D02*
Y343400D01*
X425000Y201200D02*
Y259200D01*
X395000D02*
X425000D01*
X395000Y201200D02*
Y259200D01*
Y201200D02*
X425000D01*
X58003Y124664D02*
Y118000D01*
X63002D01*
Y121332D01*
Y118000D01*
X68000D01*
X58003Y127997D02*
X68000D01*
Y132995D01*
X66334Y134661D01*
X64668D01*
X63002Y132995D01*
Y127997D01*
Y132995D01*
X61336Y134661D01*
X59669D01*
X58003Y132995D01*
Y127997D01*
X68000Y137994D02*
Y141326D01*
Y139660D01*
X58003D01*
X59669Y137994D01*
X228003Y202665D02*
Y196000D01*
X233002D01*
Y199332D01*
Y196000D01*
X238000D01*
X228003Y205997D02*
X238000D01*
Y210995D01*
X236334Y212661D01*
X234668D01*
X233002Y210995D01*
Y205997D01*
Y210995D01*
X231336Y212661D01*
X229669D01*
X228003Y210995D01*
Y205997D01*
X238000Y222658D02*
Y215994D01*
X231336Y222658D01*
X229669D01*
X228003Y220992D01*
Y217660D01*
X229669Y215994D01*
X58664Y324666D02*
Y331331D01*
X56998Y332997D01*
X53666D01*
X52000Y331331D01*
Y324666D01*
X53666Y323000D01*
X56998D01*
X55332Y326332D02*
X58664Y323000D01*
X56998D02*
X58664Y324666D01*
X61997Y331331D02*
X63663Y332997D01*
X66995D01*
X68661Y331331D01*
Y329664D01*
X66995Y327998D01*
X65329D01*
X66995D01*
X68661Y326332D01*
Y324666D01*
X66995Y323000D01*
X63663D01*
X61997Y324666D01*
X60665Y292666D02*
Y299331D01*
X58998Y300997D01*
X55666D01*
X54000Y299331D01*
Y292666D01*
X55666Y291000D01*
X58998D01*
X57332Y294332D02*
X60665Y291000D01*
X58998D02*
X60665Y292666D01*
X70661Y291000D02*
X63997D01*
X70661Y297665D01*
Y299331D01*
X68995Y300997D01*
X65663D01*
X63997Y299331D01*
X298997Y328000D02*
X289000D01*
Y332998D01*
X290666Y334664D01*
X297331D01*
X298997Y332998D01*
Y328000D01*
X297331Y337997D02*
X298997Y339663D01*
Y342995D01*
X297331Y344661D01*
X295665D01*
X293998Y342995D01*
Y341329D01*
Y342995D01*
X292332Y344661D01*
X290666D01*
X289000Y342995D01*
Y339663D01*
X290666Y337997D01*
X145665Y344666D02*
Y351331D01*
X143998Y352997D01*
X140666D01*
X139000Y351331D01*
Y344666D01*
X140666Y343000D01*
X143998D01*
X142332Y346332D02*
X145665Y343000D01*
X143998D02*
X145665Y344666D01*
X148997Y343000D02*
X152329D01*
X150663D01*
Y352997D01*
X148997Y351331D01*
X322000Y315997D02*
Y307666D01*
X323666Y306000D01*
X326998D01*
X328665Y307666D01*
Y315997D01*
X331997Y314331D02*
X333663Y315997D01*
X336995D01*
X338661Y314331D01*
Y312665D01*
X336995Y310998D01*
X335329D01*
X336995D01*
X338661Y309332D01*
Y307666D01*
X336995Y306000D01*
X333663D01*
X331997Y307666D01*
X416000Y222000D02*
X406003D01*
Y226998D01*
X407669Y228664D01*
X411002D01*
X412668Y226998D01*
Y222000D01*
Y225332D02*
X416000Y228664D01*
X406003Y231997D02*
Y238661D01*
Y235329D01*
X416000D01*
Y241994D02*
Y245326D01*
Y243660D01*
X406003D01*
X407669Y241994D01*
X350664Y185666D02*
Y192331D01*
X348998Y193997D01*
X345666D01*
X344000Y192331D01*
Y185666D01*
X345666Y184000D01*
X348998D01*
X347332Y187332D02*
X350664Y184000D01*
X348998D02*
X350664Y185666D01*
X360661Y193997D02*
X357329Y192331D01*
X353997Y188998D01*
Y185666D01*
X355663Y184000D01*
X358995D01*
X360661Y185666D01*
Y187332D01*
X358995Y188998D01*
X353997D01*
D12*
X11000Y-5500D02*
X135000D01*
X11000Y101500D02*
X135000D01*
Y-5500D02*
Y101500D01*
X11000Y-5500D02*
Y101500D01*
X247000Y57000D02*
X252000Y12000D01*
X202000D02*
X207000Y57000D01*
X247000D02*
X267000D01*
X187000D02*
X207000D01*
X262000Y12000D02*
X267000Y57000D01*
X187000D02*
X192000Y12000D01*
X252000Y32000D02*
X262000D01*
X250000D02*
X264000D01*
X250000Y35000D02*
X264000D01*
X251000Y29000D02*
X264000D01*
X252000Y12000D02*
X262000D01*
X192000Y32000D02*
X202000D01*
X190000D02*
X204000D01*
X191000Y29000D02*
X204000D01*
X190000Y35000D02*
X204000D01*
X192000Y12000D02*
X202000D01*
X162000Y117000D02*
Y149500D01*
X142000Y117000D02*
X162000D01*
X142000Y77000D02*
Y117000D01*
Y77000D02*
X162000D01*
Y-8000D02*
Y77000D01*
Y-8000D02*
X292000D01*
Y77000D01*
X312000D01*
Y117000D01*
X292000D02*
X312000D01*
X292000D02*
Y149500D01*
X162000D02*
X292000D01*
D13*
X356663Y41329D02*
X353997Y43995D01*
X348666D01*
X346000Y41329D01*
Y38663D01*
X348666Y35997D01*
X353997D01*
X356663Y33332D01*
Y30666D01*
X353997Y28000D01*
X348666D01*
X346000Y30666D01*
X361995Y43995D02*
Y28000D01*
X367326Y33332D01*
X372658Y28000D01*
Y43995D01*
X377990Y28000D02*
X383321D01*
X380655D01*
Y43995D01*
X377990Y41329D01*
D14*
X9000Y127000D02*
X29000D01*
X9000Y119000D02*
Y127000D01*
Y119000D02*
X29000D01*
X31000D01*
X29000D02*
Y127000D01*
X31000D01*
Y119000D02*
Y127000D01*
Y131000D02*
Y139000D01*
X29000D02*
X31000D01*
X29000Y131000D02*
Y139000D01*
Y131000D02*
X31000D01*
X9000D02*
X29000D01*
X9000D02*
Y139000D01*
X29000D01*
X9000Y151000D02*
X29000D01*
X9000Y143000D02*
Y151000D01*
Y143000D02*
X29000D01*
X31000D01*
X29000D02*
Y151000D01*
X31000D01*
Y143000D02*
Y151000D01*
Y155000D02*
Y163000D01*
X29000D02*
X31000D01*
X29000Y155000D02*
Y163000D01*
Y155000D02*
X31000D01*
X9000D02*
X29000D01*
X9000D02*
Y163000D01*
X29000D01*
X237500Y335000D02*
Y353000D01*
Y335000D02*
X246500D01*
Y353000D01*
X237500D02*
X246500D01*
X471000Y135500D02*
X489000D01*
X471000Y126500D02*
Y135500D01*
Y126500D02*
X489000D01*
Y135500D01*
Y153500D02*
Y162500D01*
X471000Y153500D02*
X489000D01*
X471000D02*
Y162500D01*
X489000D01*
X398000Y167500D02*
Y176500D01*
X416000D01*
Y167500D02*
Y176500D01*
X398000Y167500D02*
X416000D01*
X414500Y149000D02*
Y167000D01*
X405500D02*
X414500D01*
X405500Y149000D02*
Y167000D01*
Y149000D02*
X414500D01*
X431000Y173500D02*
X449000D01*
Y182500D01*
X431000D02*
X449000D01*
X431000Y173500D02*
Y182500D01*
Y182500D02*
Y191500D01*
X449000D01*
Y182500D02*
Y191500D01*
X431000Y182500D02*
X449000D01*
X381000Y348500D02*
X399000D01*
X381000Y339500D02*
Y348500D01*
Y339500D02*
X399000D01*
Y348500D01*
Y321500D02*
Y330500D01*
X381000Y321500D02*
X399000D01*
X381000D02*
Y330500D01*
X399000D01*
X419500Y259000D02*
Y277000D01*
X410500D02*
X419500D01*
X410500Y259000D02*
Y277000D01*
Y259000D02*
X419500D01*
X397500D02*
Y277000D01*
X388500D02*
X397500D01*
X388500Y259000D02*
Y277000D01*
Y259000D02*
X397500D01*
X386500Y132000D02*
X395500D01*
X386500D02*
Y150000D01*
X395500D01*
Y132000D02*
Y150000D01*
X379500Y259000D02*
Y277000D01*
X370500D02*
X379500D01*
X370500Y259000D02*
Y277000D01*
Y259000D02*
X379500D01*
X418500Y68000D02*
X427500D01*
Y50000D02*
Y68000D01*
X418500Y50000D02*
X427500D01*
X418500D02*
Y68000D01*
X333000Y141500D02*
X351000D01*
X333000Y132500D02*
Y141500D01*
Y132500D02*
X351000D01*
Y141500D01*
X242500Y312000D02*
X251500D01*
Y294000D02*
Y312000D01*
X242500Y294000D02*
X251500D01*
X242500D02*
Y312000D01*
X252000Y301500D02*
X270000D01*
X252000Y292500D02*
Y301500D01*
Y292500D02*
X270000D01*
Y301500D01*
X288000Y289500D02*
Y298500D01*
X270000Y289500D02*
X288000D01*
X270000D02*
Y298500D01*
X288000D01*
X270000Y289500D02*
X288000D01*
X270000Y280500D02*
Y289500D01*
Y280500D02*
X288000D01*
Y289500D01*
X333000Y141500D02*
Y150500D01*
X315000Y141500D02*
X333000D01*
X315000D02*
Y150500D01*
X333000D01*
X333000Y151500D02*
X351000D01*
X333000Y142500D02*
Y151500D01*
Y142500D02*
X351000D01*
Y151500D01*
X242500Y294000D02*
X251500D01*
Y276000D02*
Y294000D01*
X242500Y276000D02*
X251500D01*
X242500D02*
Y294000D01*
X223000Y245500D02*
X241000D01*
X223000Y236500D02*
Y245500D01*
Y236500D02*
X241000D01*
Y245500D01*
X260500Y274000D02*
X269500D01*
X260500D02*
Y292000D01*
X269500D01*
Y274000D02*
Y292000D01*
X163500Y244000D02*
Y262000D01*
Y244000D02*
X172500D01*
Y262000D01*
X163500D02*
X172500D01*
X151500D02*
X160500D01*
Y244000D02*
Y262000D01*
X151500Y244000D02*
X160500D01*
X151500D02*
Y262000D01*
X377000Y159500D02*
X395000D01*
X377000Y150500D02*
Y159500D01*
Y150500D02*
X395000D01*
Y159500D01*
X318500Y200000D02*
X327500D01*
Y182000D02*
Y200000D01*
X318500Y182000D02*
X327500D01*
X318500D02*
Y200000D01*
X355000Y132500D02*
X373000D01*
Y141500D01*
X355000D02*
X373000D01*
X355000Y132500D02*
Y141500D01*
X376500Y132000D02*
X385500D01*
X376500D02*
Y150000D01*
X385500D01*
Y132000D02*
Y150000D01*
X121000Y152000D02*
X139000D01*
Y144000D02*
Y152000D01*
X121000Y144000D02*
X139000D01*
X121000D02*
Y152000D01*
X163000Y362000D02*
X171000D01*
X163000Y344000D02*
Y362000D01*
Y344000D02*
X171000D01*
Y362000D01*
X213000Y335000D02*
Y353000D01*
X221000D01*
Y335000D02*
Y353000D01*
X213000Y335000D02*
X221000D01*
X229000D01*
Y353000D01*
X221000D02*
X229000D01*
X221000Y335000D02*
Y353000D01*
X181000Y335000D02*
Y353000D01*
X189000D01*
Y335000D02*
Y353000D01*
X181000Y335000D02*
X189000D01*
X189000D02*
X197000D01*
Y353000D01*
X189000D02*
X197000D01*
X189000Y335000D02*
Y353000D01*
X197000Y335000D02*
Y353000D01*
X205000D01*
Y335000D02*
Y353000D01*
X197000Y335000D02*
X205000D01*
X205000D02*
X213000D01*
Y353000D01*
X205000D02*
X213000D01*
X205000Y335000D02*
Y353000D01*
X471000Y136000D02*
X489000D01*
X471000D02*
Y144000D01*
X489000D01*
Y136000D02*
Y144000D01*
X471000Y145000D02*
Y153000D01*
Y145000D02*
X489000D01*
Y153000D01*
X471000D02*
X489000D01*
X140000Y116000D02*
Y124000D01*
X122000D02*
X140000D01*
X122000Y116000D02*
Y124000D01*
Y116000D02*
X140000D01*
X381000Y331000D02*
Y339000D01*
Y331000D02*
X399000D01*
Y339000D01*
X381000D02*
X399000D01*
X229000Y335000D02*
Y353000D01*
X237000D01*
Y335000D02*
Y353000D01*
X229000Y335000D02*
X237000D01*
X399000Y349000D02*
X407000D01*
X399000Y331000D02*
Y349000D01*
Y331000D02*
X407000D01*
Y349000D01*
Y259000D02*
Y277000D01*
X399000Y259000D02*
X407000D01*
X399000D02*
Y277000D01*
X407000D01*
X252000Y306000D02*
Y314000D01*
Y306000D02*
X270000D01*
Y314000D01*
X252000D02*
X270000D01*
X388000Y259000D02*
Y277000D01*
X380000Y259000D02*
X388000D01*
X380000D02*
Y277000D01*
X388000D01*
X359000Y259000D02*
Y277000D01*
X367000D01*
Y259000D02*
Y277000D01*
X359000Y259000D02*
X367000D01*
X333000Y133000D02*
Y141000D01*
X315000D02*
X333000D01*
X315000Y133000D02*
Y141000D01*
Y133000D02*
X333000D01*
X223000Y228000D02*
X241000D01*
X223000D02*
Y236000D01*
X241000D01*
Y228000D02*
Y236000D01*
X261000Y199000D02*
X269000D01*
X261000Y181000D02*
Y199000D01*
Y181000D02*
X269000D01*
Y199000D01*
X252000Y274000D02*
Y292000D01*
X260000D01*
Y274000D02*
Y292000D01*
X252000Y274000D02*
X260000D01*
X373000Y143000D02*
Y151000D01*
X355000D02*
X373000D01*
X355000Y143000D02*
Y151000D01*
Y143000D02*
X373000D01*
X223000Y183000D02*
X241000D01*
X223000D02*
Y191000D01*
X241000D01*
Y183000D02*
Y191000D01*
X315000Y51000D02*
X323000D01*
Y69000D01*
X315000D02*
X323000D01*
X315000Y51000D02*
Y69000D01*
X88000Y111000D02*
X106000D01*
X88000D02*
Y119000D01*
X106000D01*
Y111000D02*
Y119000D01*
X231500Y140500D02*
Y254000D01*
X129000Y140500D02*
X231500D01*
X129000D02*
Y254000D01*
X231500D01*
X220000Y181500D02*
X252500D01*
Y155500D02*
Y181500D01*
X220000Y155500D02*
X252500D01*
X220000D02*
Y181500D01*
D15*
X171120Y132560D02*
G03*
X171120Y132560I-1270J0D01*
G01*
X171800Y259500D02*
G03*
X171800Y259500I-1000J0D01*
G01*
X260500Y232200D02*
G03*
X260500Y232200I-1000J0D01*
G01*
X68650Y341550D02*
G03*
X68650Y341550I-250J0D01*
G01*
Y306050D02*
G03*
X68650Y306050I-250J0D01*
G01*
X100407Y389400D02*
G03*
X100407Y389400I-707J0D01*
G01*
X218207Y248000D02*
G03*
X218207Y248000I-707J0D01*
G01*
X136700Y337600D02*
G03*
X136700Y337600I-250J0D01*
G01*
X306850Y332450D02*
G03*
X306850Y332450I-150J0D01*
G01*
X421000Y205000D02*
G03*
X421000Y205000I-1000J0D01*
G01*
X358650Y177450D02*
G03*
X358650Y177450I-250J0D01*
G01*
X81200Y117800D02*
Y132600D01*
Y117800D02*
X113400D01*
Y132600D01*
X81200D02*
X113400D01*
X110200Y137600D02*
X142400D01*
Y122800D02*
Y137600D01*
X110200Y122800D02*
X142400D01*
X110200D02*
Y137600D01*
X165300Y264300D02*
X226000D01*
Y240900D02*
Y264300D01*
X165300Y240900D02*
X226000D01*
X165300D02*
Y264300D01*
X240900Y237700D02*
X264300D01*
X240900Y177000D02*
Y237700D01*
Y177000D02*
X264300D01*
Y237700D01*
X53000Y145500D02*
X73000D01*
Y110500D02*
Y145500D01*
X53000Y110500D02*
X73000D01*
X53000D02*
Y145500D01*
X223000Y192500D02*
Y227500D01*
X243000D01*
Y192500D02*
Y227500D01*
X223000Y192500D02*
X243000D01*
X277500Y319000D02*
X311500D01*
X277500D02*
Y350100D01*
X311500D01*
Y319000D02*
Y350100D01*
X307000Y-10000D02*
Y75000D01*
Y-10000D02*
X420000D01*
Y75000D01*
X307000D02*
X420000D01*
X131000Y153200D02*
Y230200D01*
X105000D02*
X131000D01*
X105000Y153200D02*
Y230200D01*
Y153200D02*
X131000D01*
X327600Y95000D02*
X404600D01*
Y121000D01*
X327600D02*
X404600D01*
X327600Y95000D02*
Y121000D01*
X55697Y51775D02*
X50618D01*
X53158D01*
Y39079D01*
X50618Y36540D01*
X48079D01*
X45540Y39079D01*
X60775Y49236D02*
X63314Y51775D01*
X68393D01*
X70932Y49236D01*
Y46697D01*
X68393Y44158D01*
X65853D01*
X68393D01*
X70932Y41618D01*
Y39079D01*
X68393Y36540D01*
X63314D01*
X60775Y39079D01*
X218697Y87775D02*
X213618D01*
X216157D01*
Y75079D01*
X213618Y72540D01*
X211079D01*
X208540Y75079D01*
X233932Y87775D02*
X223775D01*
Y80157D01*
X228853Y82697D01*
X231393D01*
X233932Y80157D01*
Y75079D01*
X231393Y72540D01*
X226314D01*
X223775Y75079D01*
X57540Y371775D02*
Y356540D01*
X67697D01*
X72775D02*
X77853D01*
X75314D01*
Y371775D01*
X72775Y369236D01*
X166540Y207775D02*
Y192540D01*
X176697D01*
X191932D02*
X181775D01*
X191932Y202697D01*
Y205236D01*
X189393Y207775D01*
X184314D01*
X181775Y205236D01*
X125775Y197303D02*
Y202382D01*
Y199842D01*
X113079D01*
X110540Y202382D01*
Y204921D01*
X113079Y207460D01*
X110540Y192225D02*
X125775D01*
Y184607D01*
X123236Y182068D01*
X118158D01*
X115618Y184607D01*
Y192225D01*
X110540Y176990D02*
Y171912D01*
Y174451D01*
X125775D01*
X123236Y176990D01*
X429040Y161275D02*
Y148579D01*
X431579Y146040D01*
X436657D01*
X439197Y148579D01*
Y161275D01*
X454432Y146040D02*
X444275D01*
X454432Y156197D01*
Y158736D01*
X451893Y161275D01*
X446814D01*
X444275Y158736D01*
X429040Y100275D02*
Y87579D01*
X431579Y85040D01*
X436657D01*
X439197Y87579D01*
Y100275D01*
X444275Y85040D02*
X449353D01*
X446814D01*
Y100275D01*
X444275Y97736D01*
X363697Y116775D02*
X358618D01*
X361157D01*
Y104079D01*
X358618Y101540D01*
X356079D01*
X353540Y104079D01*
X376393Y101540D02*
Y116775D01*
X368775Y109157D01*
X378932D01*
X225540Y174775D02*
Y162079D01*
X228079Y159540D01*
X233158D01*
X235697Y162079D01*
Y174775D01*
X248393Y159540D02*
Y174775D01*
X240775Y167157D01*
X250932D01*
D16*
X17500Y124499D02*
Y121500D01*
X19000D01*
X19499Y122000D01*
Y123999D01*
X19000Y124499D01*
X17500D01*
X22498D02*
X20499D01*
Y122999D01*
X21499Y123499D01*
X21999D01*
X22498Y122999D01*
Y122000D01*
X21999Y121500D01*
X20999D01*
X20499Y122000D01*
X16500Y136499D02*
Y133500D01*
X18000D01*
X18499Y134000D01*
Y135999D01*
X18000Y136499D01*
X16500D01*
X21498D02*
X20499Y135999D01*
X19499Y135000D01*
Y134000D01*
X19999Y133500D01*
X20998D01*
X21498Y134000D01*
Y134500D01*
X20998Y135000D01*
X19499D01*
X17500Y149499D02*
Y146500D01*
X19000D01*
X19499Y147000D01*
Y148999D01*
X19000Y149499D01*
X17500D01*
X20499D02*
X22498D01*
Y148999D01*
X20499Y147000D01*
Y146500D01*
X17500Y160499D02*
Y157500D01*
X19000D01*
X19499Y158000D01*
Y159999D01*
X19000Y160499D01*
X17500D01*
X20499Y159999D02*
X20999Y160499D01*
X21999D01*
X22498Y159999D01*
Y159499D01*
X21999Y159000D01*
X22498Y158500D01*
Y158000D01*
X21999Y157500D01*
X20999D01*
X20499Y158000D01*
Y158500D01*
X20999Y159000D01*
X20499Y159499D01*
Y159999D01*
X20999Y159000D02*
X21999D01*
X243500Y343500D02*
X240501D01*
Y344999D01*
X241001Y345499D01*
X242001D01*
X242500Y344999D01*
Y343500D01*
Y344500D02*
X243500Y345499D01*
Y348498D02*
Y346499D01*
X241501Y348498D01*
X241001D01*
X240501Y347998D01*
Y346999D01*
X241001Y346499D01*
X477500Y129500D02*
Y132499D01*
X478999D01*
X479499Y131999D01*
Y130999D01*
X478999Y130500D01*
X477500D01*
X478500D02*
X479499Y129500D01*
X480499Y131999D02*
X480999Y132499D01*
X481998D01*
X482498Y131999D01*
Y131499D01*
X481998Y130999D01*
X482498Y130500D01*
Y130000D01*
X481998Y129500D01*
X480999D01*
X480499Y130000D01*
Y130500D01*
X480999Y130999D01*
X480499Y131499D01*
Y131999D01*
X480999Y130999D02*
X481998D01*
X478500Y156500D02*
Y159499D01*
X480000D01*
X480499Y158999D01*
Y157999D01*
X480000Y157500D01*
X478500D01*
X479500D02*
X480499Y156500D01*
X481499Y157000D02*
X481999Y156500D01*
X482999D01*
X483498Y157000D01*
Y158999D01*
X482999Y159499D01*
X481999D01*
X481499Y158999D01*
Y158499D01*
X481999Y157999D01*
X483498D01*
X403500Y170500D02*
Y173499D01*
X405000D01*
X405499Y172999D01*
Y171999D01*
X405000Y171500D01*
X403500D01*
X404500D02*
X405499Y170500D01*
X406499D02*
X407499D01*
X406999D01*
Y173499D01*
X406499Y172999D01*
X408998Y170500D02*
X409998D01*
X409498D01*
Y173499D01*
X408998Y172999D01*
X411500Y154500D02*
X408501D01*
Y155999D01*
X409001Y156499D01*
X410000D01*
X410500Y155999D01*
Y154500D01*
Y155500D02*
X411500Y156499D01*
Y157499D02*
Y158499D01*
Y157999D01*
X408501D01*
X409001Y157499D01*
X411500Y161998D02*
Y159998D01*
X409501Y161998D01*
X409001D01*
X408501Y161498D01*
Y160498D01*
X409001Y159998D01*
X435500Y176500D02*
Y179499D01*
X437000D01*
X437499Y178999D01*
Y177999D01*
X437000Y177500D01*
X435500D01*
X436500D02*
X437499Y176500D01*
X438499D02*
X439499D01*
X438999D01*
Y179499D01*
X438499Y178999D01*
X442998Y179499D02*
X440998D01*
Y177999D01*
X441998Y178499D01*
X442498D01*
X442998Y177999D01*
Y177000D01*
X442498Y176500D01*
X441498D01*
X440998Y177000D01*
X436500Y185500D02*
Y188499D01*
X437999D01*
X438499Y187999D01*
Y186999D01*
X437999Y186500D01*
X436500D01*
X437500D02*
X438499Y185500D01*
X439499D02*
X440499D01*
X439999D01*
Y188499D01*
X439499Y187999D01*
X443997Y188499D02*
X442998Y187999D01*
X441998Y186999D01*
Y186000D01*
X442498Y185500D01*
X443498D01*
X443997Y186000D01*
Y186500D01*
X443498Y186999D01*
X441998D01*
X389500Y342500D02*
Y345499D01*
X390999D01*
X391499Y344999D01*
Y343999D01*
X390999Y343500D01*
X389500D01*
X390500D02*
X391499Y342500D01*
X392499D02*
X393499D01*
X392999D01*
Y345499D01*
X392499Y344999D01*
X394998Y345499D02*
X396998D01*
Y344999D01*
X394998Y343000D01*
Y342500D01*
X389500Y324500D02*
Y327499D01*
X390999D01*
X391499Y326999D01*
Y325999D01*
X390999Y325500D01*
X389500D01*
X390500D02*
X391499Y324500D01*
X392499D02*
X393499D01*
X392999D01*
Y327499D01*
X392499Y326999D01*
X394998D02*
X395498Y327499D01*
X396498D01*
X396998Y326999D01*
Y326499D01*
X396498Y325999D01*
X396998Y325500D01*
Y325000D01*
X396498Y324500D01*
X395498D01*
X394998Y325000D01*
Y325500D01*
X395498Y325999D01*
X394998Y326499D01*
Y326999D01*
X395498Y325999D02*
X396498D01*
X416500Y264500D02*
X413501D01*
Y266000D01*
X414001Y266499D01*
X415000D01*
X415500Y266000D01*
Y264500D01*
Y265500D02*
X416500Y266499D01*
Y267499D02*
Y268499D01*
Y267999D01*
X413501D01*
X414001Y267499D01*
X416000Y269998D02*
X416500Y270498D01*
Y271498D01*
X416000Y271998D01*
X414001D01*
X413501Y271498D01*
Y270498D01*
X414001Y269998D01*
X414501D01*
X415000Y270498D01*
Y271998D01*
X394500Y265500D02*
X391501D01*
Y266999D01*
X392001Y267499D01*
X393000D01*
X393500Y266999D01*
Y265500D01*
Y266500D02*
X394500Y267499D01*
Y270498D02*
Y268499D01*
X392501Y270498D01*
X392001D01*
X391501Y269998D01*
Y268999D01*
X392001Y268499D01*
X394500Y271498D02*
Y272498D01*
Y271998D01*
X391501D01*
X392001Y271498D01*
X392500Y137500D02*
X389501D01*
Y139000D01*
X390001Y139499D01*
X391001D01*
X391500Y139000D01*
Y137500D01*
Y138500D02*
X392500Y139499D01*
Y142498D02*
Y140499D01*
X390501Y142498D01*
X390001D01*
X389501Y141999D01*
Y140999D01*
X390001Y140499D01*
X392500Y145497D02*
Y143498D01*
X390501Y145497D01*
X390001D01*
X389501Y144998D01*
Y143998D01*
X390001Y143498D01*
X376500Y264500D02*
X373501D01*
Y266000D01*
X374001Y266499D01*
X375000D01*
X375500Y266000D01*
Y264500D01*
Y265500D02*
X376500Y266499D01*
Y269498D02*
Y267499D01*
X374501Y269498D01*
X374001D01*
X373501Y268999D01*
Y267999D01*
X374001Y267499D01*
Y270498D02*
X373501Y270998D01*
Y271998D01*
X374001Y272497D01*
X374501D01*
X375000Y271998D01*
Y271498D01*
Y271998D01*
X375500Y272497D01*
X376000D01*
X376500Y271998D01*
Y270998D01*
X376000Y270498D01*
X425500Y55500D02*
X422501D01*
Y57000D01*
X423001Y57499D01*
X424001D01*
X424500Y57000D01*
Y55500D01*
Y56500D02*
X425500Y57499D01*
Y60498D02*
Y58499D01*
X423501Y60498D01*
X423001D01*
X422501Y59998D01*
Y58999D01*
X423001Y58499D01*
X425500Y62997D02*
X422501D01*
X424001Y61498D01*
Y63497D01*
X338500Y135500D02*
Y138499D01*
X340000D01*
X340499Y137999D01*
Y137000D01*
X340000Y136500D01*
X338500D01*
X339500D02*
X340499Y135500D01*
X343498D02*
X341499D01*
X343498Y137499D01*
Y137999D01*
X342999Y138499D01*
X341999D01*
X341499Y137999D01*
X346497Y138499D02*
X344498D01*
Y137000D01*
X345498Y137499D01*
X345998D01*
X346497Y137000D01*
Y136000D01*
X345998Y135500D01*
X344998D01*
X344498Y136000D01*
X248500Y299500D02*
X245501D01*
Y301000D01*
X246001Y301499D01*
X247001D01*
X247500Y301000D01*
Y299500D01*
Y300500D02*
X248500Y301499D01*
Y304498D02*
Y302499D01*
X246501Y304498D01*
X246001D01*
X245501Y303999D01*
Y302999D01*
X246001Y302499D01*
X245501Y307497D02*
X246001Y306498D01*
X247001Y305498D01*
X248000D01*
X248500Y305998D01*
Y306998D01*
X248000Y307497D01*
X247500D01*
X247001Y306998D01*
Y305498D01*
X257500Y295500D02*
Y298499D01*
X259000D01*
X259499Y297999D01*
Y296999D01*
X259000Y296500D01*
X257500D01*
X258500D02*
X259499Y295500D01*
X262498D02*
X260499D01*
X262498Y297499D01*
Y297999D01*
X261999Y298499D01*
X260999D01*
X260499Y297999D01*
X263498Y298499D02*
X265497D01*
Y297999D01*
X263498Y296000D01*
Y295500D01*
X278500Y292500D02*
Y295499D01*
X280000D01*
X280499Y294999D01*
Y294000D01*
X280000Y293500D01*
X278500D01*
X279500D02*
X280499Y292500D01*
X283498D02*
X281499D01*
X283498Y294499D01*
Y294999D01*
X282999Y295499D01*
X281999D01*
X281499Y294999D01*
X284498D02*
X284998Y295499D01*
X285998D01*
X286497Y294999D01*
Y294499D01*
X285998Y294000D01*
X286497Y293500D01*
Y293000D01*
X285998Y292500D01*
X284998D01*
X284498Y293000D01*
Y293500D01*
X284998Y294000D01*
X284498Y294499D01*
Y294999D01*
X284998Y294000D02*
X285998D01*
X278500Y283500D02*
Y286499D01*
X280000D01*
X280499Y285999D01*
Y285000D01*
X280000Y284500D01*
X278500D01*
X279500D02*
X280499Y283500D01*
X283498D02*
X281499D01*
X283498Y285499D01*
Y285999D01*
X282999Y286499D01*
X281999D01*
X281499Y285999D01*
X284498Y284000D02*
X284998Y283500D01*
X285998D01*
X286497Y284000D01*
Y285999D01*
X285998Y286499D01*
X284998D01*
X284498Y285999D01*
Y285499D01*
X284998Y285000D01*
X286497D01*
X320500Y144500D02*
Y147499D01*
X322000D01*
X322499Y146999D01*
Y145999D01*
X322000Y145500D01*
X320500D01*
X321500D02*
X322499Y144500D01*
X323499Y146999D02*
X323999Y147499D01*
X324999D01*
X325498Y146999D01*
Y146499D01*
X324999Y145999D01*
X324499D01*
X324999D01*
X325498Y145500D01*
Y145000D01*
X324999Y144500D01*
X323999D01*
X323499Y145000D01*
X326498Y146999D02*
X326998Y147499D01*
X327998D01*
X328497Y146999D01*
Y145000D01*
X327998Y144500D01*
X326998D01*
X326498Y145000D01*
Y146999D01*
X337500Y145500D02*
Y148499D01*
X338999D01*
X339499Y147999D01*
Y147000D01*
X338999Y146500D01*
X337500D01*
X338500D02*
X339499Y145500D01*
X340499Y147999D02*
X340999Y148499D01*
X341998D01*
X342498Y147999D01*
Y147499D01*
X341998Y147000D01*
X341499D01*
X341998D01*
X342498Y146500D01*
Y146000D01*
X341998Y145500D01*
X340999D01*
X340499Y146000D01*
X343498Y145500D02*
X344498D01*
X343998D01*
Y148499D01*
X343498Y147999D01*
X248500Y281500D02*
X245501D01*
Y282999D01*
X246001Y283499D01*
X247001D01*
X247500Y282999D01*
Y281500D01*
Y282500D02*
X248500Y283499D01*
X246001Y284499D02*
X245501Y284999D01*
Y285998D01*
X246001Y286498D01*
X246501D01*
X247001Y285998D01*
Y285499D01*
Y285998D01*
X247500Y286498D01*
X248000D01*
X248500Y285998D01*
Y284999D01*
X248000Y284499D01*
X248500Y289497D02*
Y287498D01*
X246501Y289497D01*
X246001D01*
X245501Y288997D01*
Y287998D01*
X246001Y287498D01*
X228500Y239500D02*
Y242499D01*
X230000D01*
X230499Y241999D01*
Y241000D01*
X230000Y240500D01*
X228500D01*
X229500D02*
X230499Y239500D01*
X231499Y241999D02*
X231999Y242499D01*
X232999D01*
X233498Y241999D01*
Y241499D01*
X232999Y241000D01*
X232499D01*
X232999D01*
X233498Y240500D01*
Y240000D01*
X232999Y239500D01*
X231999D01*
X231499Y240000D01*
X234498Y241999D02*
X234998Y242499D01*
X235998D01*
X236497Y241999D01*
Y241499D01*
X235998Y241000D01*
X235498D01*
X235998D01*
X236497Y240500D01*
Y240000D01*
X235998Y239500D01*
X234998D01*
X234498Y240000D01*
X265500Y280500D02*
X262501D01*
Y281999D01*
X263001Y282499D01*
X264000D01*
X264500Y281999D01*
Y280500D01*
Y281500D02*
X265500Y282499D01*
X263001Y283499D02*
X262501Y283999D01*
Y284998D01*
X263001Y285498D01*
X263501D01*
X264000Y284998D01*
Y284499D01*
Y284998D01*
X264500Y285498D01*
X265000D01*
X265500Y284998D01*
Y283999D01*
X265000Y283499D01*
X265500Y287997D02*
X262501D01*
X264000Y286498D01*
Y288497D01*
X169500Y248500D02*
X166501D01*
Y250000D01*
X167001Y250499D01*
X168001D01*
X168500Y250000D01*
Y248500D01*
Y249500D02*
X169500Y250499D01*
X167001Y251499D02*
X166501Y251999D01*
Y252999D01*
X167001Y253498D01*
X167501D01*
X168001Y252999D01*
Y252499D01*
Y252999D01*
X168500Y253498D01*
X169000D01*
X169500Y252999D01*
Y251999D01*
X169000Y251499D01*
X166501Y256497D02*
Y254498D01*
X168001D01*
X167501Y255498D01*
Y255998D01*
X168001Y256497D01*
X169000D01*
X169500Y255998D01*
Y254998D01*
X169000Y254498D01*
X157500Y249500D02*
X154501D01*
Y251000D01*
X155001Y251499D01*
X156000D01*
X156500Y251000D01*
Y249500D01*
Y250500D02*
X157500Y251499D01*
X155001Y252499D02*
X154501Y252999D01*
Y253999D01*
X155001Y254498D01*
X155501D01*
X156000Y253999D01*
Y253499D01*
Y253999D01*
X156500Y254498D01*
X157000D01*
X157500Y253999D01*
Y252999D01*
X157000Y252499D01*
X154501Y257497D02*
X155001Y256498D01*
X156000Y255498D01*
X157000D01*
X157500Y255998D01*
Y256998D01*
X157000Y257497D01*
X156500D01*
X156000Y256998D01*
Y255498D01*
X385500Y153500D02*
Y156499D01*
X387000D01*
X387499Y155999D01*
Y155000D01*
X387000Y154500D01*
X385500D01*
X386500D02*
X387499Y153500D01*
X388499Y155999D02*
X388999Y156499D01*
X389999D01*
X390498Y155999D01*
Y155499D01*
X389999Y155000D01*
X389499D01*
X389999D01*
X390498Y154500D01*
Y154000D01*
X389999Y153500D01*
X388999D01*
X388499Y154000D01*
X391498Y156499D02*
X393497D01*
Y155999D01*
X391498Y154000D01*
Y153500D01*
X324500Y186500D02*
X321501D01*
Y187999D01*
X322001Y188499D01*
X323000D01*
X323500Y187999D01*
Y186500D01*
Y187500D02*
X324500Y188499D01*
Y190998D02*
X321501D01*
X323000Y189499D01*
Y191498D01*
X324500Y194497D02*
Y192498D01*
X322501Y194497D01*
X322001D01*
X321501Y193997D01*
Y192998D01*
X322001Y192498D01*
X360500Y135500D02*
Y138499D01*
X362000D01*
X362499Y137999D01*
Y137000D01*
X362000Y136500D01*
X360500D01*
X361500D02*
X362499Y135500D01*
X364999D02*
Y138499D01*
X363499Y137000D01*
X365498D01*
X366498Y137999D02*
X366998Y138499D01*
X367998D01*
X368497Y137999D01*
Y137499D01*
X367998Y137000D01*
X367498D01*
X367998D01*
X368497Y136500D01*
Y136000D01*
X367998Y135500D01*
X366998D01*
X366498Y136000D01*
X382500Y137500D02*
X379501D01*
Y139000D01*
X380001Y139499D01*
X381001D01*
X381500Y139000D01*
Y137500D01*
Y138500D02*
X382500Y139499D01*
Y141999D02*
X379501D01*
X381001Y140499D01*
Y142498D01*
X382500Y144998D02*
X379501D01*
X381001Y143498D01*
Y145497D01*
X129499Y148999D02*
X129000Y149499D01*
X128000D01*
X127500Y148999D01*
Y147000D01*
X128000Y146500D01*
X129000D01*
X129499Y147000D01*
X132498Y146500D02*
X130499D01*
X132498Y148499D01*
Y148999D01*
X131999Y149499D01*
X130999D01*
X130499Y148999D01*
X167999Y351499D02*
X168499Y350999D01*
Y350000D01*
X167999Y349500D01*
X166000D01*
X165500Y350000D01*
Y350999D01*
X166000Y351499D01*
X167999Y352499D02*
X168499Y352999D01*
Y353998D01*
X167999Y354498D01*
X167499D01*
X166999Y353998D01*
Y353499D01*
Y353998D01*
X166500Y354498D01*
X166000D01*
X165500Y353998D01*
Y352999D01*
X166000Y352499D01*
X216001Y345499D02*
X215501Y344999D01*
Y344000D01*
X216001Y343500D01*
X218000D01*
X218500Y344000D01*
Y344999D01*
X218000Y345499D01*
X218500Y347998D02*
X215501D01*
X217001Y346499D01*
Y348498D01*
X224001Y345499D02*
X223501Y344999D01*
Y344000D01*
X224001Y343500D01*
X226000D01*
X226500Y344000D01*
Y344999D01*
X226000Y345499D01*
X223501Y348498D02*
Y346499D01*
X225001D01*
X224501Y347499D01*
Y347998D01*
X225001Y348498D01*
X226000D01*
X226500Y347998D01*
Y346999D01*
X226000Y346499D01*
X184001Y345499D02*
X183501Y344999D01*
Y344000D01*
X184001Y343500D01*
X186000D01*
X186500Y344000D01*
Y344999D01*
X186000Y345499D01*
X183501Y348498D02*
X184001Y347499D01*
X185001Y346499D01*
X186000D01*
X186500Y346999D01*
Y347998D01*
X186000Y348498D01*
X185500D01*
X185001Y347998D01*
Y346499D01*
X192001Y345499D02*
X191501Y344999D01*
Y344000D01*
X192001Y343500D01*
X194000D01*
X194500Y344000D01*
Y344999D01*
X194000Y345499D01*
X191501Y346499D02*
Y348498D01*
X192001D01*
X194000Y346499D01*
X194500D01*
X200001Y345499D02*
X199501Y344999D01*
Y344000D01*
X200001Y343500D01*
X202000D01*
X202500Y344000D01*
Y344999D01*
X202000Y345499D01*
X200001Y346499D02*
X199501Y346999D01*
Y347998D01*
X200001Y348498D01*
X200501D01*
X201001Y347998D01*
X201500Y348498D01*
X202000D01*
X202500Y347998D01*
Y346999D01*
X202000Y346499D01*
X201500D01*
X201001Y346999D01*
X200501Y346499D01*
X200001D01*
X201001Y346999D02*
Y347998D01*
X208001Y345499D02*
X207501Y344999D01*
Y344000D01*
X208001Y343500D01*
X210000D01*
X210500Y344000D01*
Y344999D01*
X210000Y345499D01*
Y346499D02*
X210500Y346999D01*
Y347998D01*
X210000Y348498D01*
X208001D01*
X207501Y347998D01*
Y346999D01*
X208001Y346499D01*
X208501D01*
X209001Y346999D01*
Y348498D01*
X478499Y140999D02*
X477999Y141499D01*
X477000D01*
X476500Y140999D01*
Y139000D01*
X477000Y138500D01*
X477999D01*
X478499Y139000D01*
X479499Y138500D02*
X480499D01*
X479999D01*
Y141499D01*
X479499Y140999D01*
X483498Y138500D02*
Y141499D01*
X481998Y140000D01*
X483997D01*
X478499Y149999D02*
X477999Y150499D01*
X477000D01*
X476500Y149999D01*
Y148000D01*
X477000Y147500D01*
X477999D01*
X478499Y148000D01*
X479499Y147500D02*
X480499D01*
X479999D01*
Y150499D01*
X479499Y149999D01*
X483997Y150499D02*
X481998D01*
Y149000D01*
X482998Y149499D01*
X483498D01*
X483997Y149000D01*
Y148000D01*
X483498Y147500D01*
X482498D01*
X481998Y148000D01*
X129499Y120999D02*
X129000Y121499D01*
X128000D01*
X127500Y120999D01*
Y119000D01*
X128000Y118500D01*
X129000D01*
X129499Y119000D01*
X130499Y118500D02*
X131499D01*
X130999D01*
Y121499D01*
X130499Y120999D01*
X132998D02*
X133498Y121499D01*
X134498D01*
X134998Y120999D01*
Y120499D01*
X134498Y120000D01*
X134998Y119500D01*
Y119000D01*
X134498Y118500D01*
X133498D01*
X132998Y119000D01*
Y119500D01*
X133498Y120000D01*
X132998Y120499D01*
Y120999D01*
X133498Y120000D02*
X134498D01*
X391499Y335999D02*
X390999Y336499D01*
X390000D01*
X389500Y335999D01*
Y334000D01*
X390000Y333500D01*
X390999D01*
X391499Y334000D01*
X394498Y333500D02*
X392499D01*
X394498Y335499D01*
Y335999D01*
X393998Y336499D01*
X392999D01*
X392499Y335999D01*
X395498D02*
X395998Y336499D01*
X396998D01*
X397497Y335999D01*
Y334000D01*
X396998Y333500D01*
X395998D01*
X395498Y334000D01*
Y335999D01*
X232001Y343499D02*
X231501Y342999D01*
Y342000D01*
X232001Y341500D01*
X234000D01*
X234500Y342000D01*
Y342999D01*
X234000Y343499D01*
X234500Y346498D02*
Y344499D01*
X232501Y346498D01*
X232001D01*
X231501Y345998D01*
Y344999D01*
X232001Y344499D01*
X234500Y347498D02*
Y348498D01*
Y347998D01*
X231501D01*
X232001Y347498D01*
X402001Y336499D02*
X401501Y335999D01*
Y335000D01*
X402001Y334500D01*
X404000D01*
X404500Y335000D01*
Y335999D01*
X404000Y336499D01*
X404500Y339498D02*
Y337499D01*
X402501Y339498D01*
X402001D01*
X401501Y338998D01*
Y337999D01*
X402001Y337499D01*
X404500Y342497D02*
Y340498D01*
X402501Y342497D01*
X402001D01*
X401501Y341997D01*
Y340998D01*
X402001Y340498D01*
X402001Y266499D02*
X401501Y266000D01*
Y265000D01*
X402001Y264500D01*
X404000D01*
X404500Y265000D01*
Y266000D01*
X404000Y266499D01*
X404500Y269498D02*
Y267499D01*
X402501Y269498D01*
X402001D01*
X401501Y268999D01*
Y267999D01*
X402001Y267499D01*
Y270498D02*
X401501Y270998D01*
Y271998D01*
X402001Y272497D01*
X402501D01*
X403000Y271998D01*
Y271498D01*
Y271998D01*
X403500Y272497D01*
X404000D01*
X404500Y271998D01*
Y270998D01*
X404000Y270498D01*
X259499Y310999D02*
X259000Y311499D01*
X258000D01*
X257500Y310999D01*
Y309000D01*
X258000Y308500D01*
X259000D01*
X259499Y309000D01*
X262498Y308500D02*
X260499D01*
X262498Y310499D01*
Y310999D01*
X261999Y311499D01*
X260999D01*
X260499Y310999D01*
X264998Y308500D02*
Y311499D01*
X263498Y310000D01*
X265497D01*
X383001Y266499D02*
X382501Y266000D01*
Y265000D01*
X383001Y264500D01*
X385000D01*
X385500Y265000D01*
Y266000D01*
X385000Y266499D01*
X385500Y269498D02*
Y267499D01*
X383501Y269498D01*
X383001D01*
X382501Y268999D01*
Y267999D01*
X383001Y267499D01*
X382501Y272497D02*
Y270498D01*
X384001D01*
X383501Y271498D01*
Y271998D01*
X384001Y272497D01*
X385000D01*
X385500Y271998D01*
Y270998D01*
X385000Y270498D01*
X362001Y265499D02*
X361501Y265000D01*
Y264000D01*
X362001Y263500D01*
X364000D01*
X364500Y264000D01*
Y265000D01*
X364000Y265499D01*
X364500Y268498D02*
Y266499D01*
X362501Y268498D01*
X362001D01*
X361501Y267999D01*
Y266999D01*
X362001Y266499D01*
X361501Y269498D02*
Y271497D01*
X362001D01*
X364000Y269498D01*
X364500D01*
X321499Y137999D02*
X320999Y138499D01*
X320000D01*
X319500Y137999D01*
Y136000D01*
X320000Y135500D01*
X320999D01*
X321499Y136000D01*
X324498Y135500D02*
X322499D01*
X324498Y137499D01*
Y137999D01*
X323998Y138499D01*
X322999D01*
X322499Y137999D01*
X325498D02*
X325998Y138499D01*
X326997D01*
X327497Y137999D01*
Y137499D01*
X326997Y137000D01*
X327497Y136500D01*
Y136000D01*
X326997Y135500D01*
X325998D01*
X325498Y136000D01*
Y136500D01*
X325998Y137000D01*
X325498Y137499D01*
Y137999D01*
X325998Y137000D02*
X326997D01*
X230499Y232999D02*
X230000Y233499D01*
X229000D01*
X228500Y232999D01*
Y231000D01*
X229000Y230500D01*
X230000D01*
X230499Y231000D01*
X233498Y230500D02*
X231499D01*
X233498Y232499D01*
Y232999D01*
X232999Y233499D01*
X231999D01*
X231499Y232999D01*
X234498Y231000D02*
X234998Y230500D01*
X235998D01*
X236497Y231000D01*
Y232999D01*
X235998Y233499D01*
X234998D01*
X234498Y232999D01*
Y232499D01*
X234998Y231999D01*
X236497D01*
X264001Y187499D02*
X263501Y186999D01*
Y186000D01*
X264001Y185500D01*
X266000D01*
X266500Y186000D01*
Y186999D01*
X266000Y187499D01*
X264001Y188499D02*
X263501Y188999D01*
Y189998D01*
X264001Y190498D01*
X264501D01*
X265000Y189998D01*
Y189499D01*
Y189998D01*
X265500Y190498D01*
X266000D01*
X266500Y189998D01*
Y188999D01*
X266000Y188499D01*
X264001Y191498D02*
X263501Y191998D01*
Y192997D01*
X264001Y193497D01*
X266000D01*
X266500Y192997D01*
Y191998D01*
X266000Y191498D01*
X264001D01*
X255001Y283499D02*
X254501Y282999D01*
Y282000D01*
X255001Y281500D01*
X257000D01*
X257500Y282000D01*
Y282999D01*
X257000Y283499D01*
X255001Y284499D02*
X254501Y284999D01*
Y285998D01*
X255001Y286498D01*
X255501D01*
X256000Y285998D01*
Y285499D01*
Y285998D01*
X256500Y286498D01*
X257000D01*
X257500Y285998D01*
Y284999D01*
X257000Y284499D01*
X257500Y287498D02*
Y288498D01*
Y287998D01*
X254501D01*
X255001Y287498D01*
X361499Y147999D02*
X360999Y148499D01*
X360000D01*
X359500Y147999D01*
Y146000D01*
X360000Y145500D01*
X360999D01*
X361499Y146000D01*
X362499Y147999D02*
X362999Y148499D01*
X363998D01*
X364498Y147999D01*
Y147499D01*
X363998Y147000D01*
X363499D01*
X363998D01*
X364498Y146500D01*
Y146000D01*
X363998Y145500D01*
X362999D01*
X362499Y146000D01*
X367497Y145500D02*
X365498D01*
X367497Y147499D01*
Y147999D01*
X366997Y148499D01*
X365998D01*
X365498Y147999D01*
X230499Y187999D02*
X230000Y188499D01*
X229000D01*
X228500Y187999D01*
Y186000D01*
X229000Y185500D01*
X230000D01*
X230499Y186000D01*
X231499Y187999D02*
X231999Y188499D01*
X232999D01*
X233498Y187999D01*
Y187499D01*
X232999Y186999D01*
X232499D01*
X232999D01*
X233498Y186500D01*
Y186000D01*
X232999Y185500D01*
X231999D01*
X231499Y186000D01*
X234498Y187999D02*
X234998Y188499D01*
X235998D01*
X236497Y187999D01*
Y187499D01*
X235998Y186999D01*
X235498D01*
X235998D01*
X236497Y186500D01*
Y186000D01*
X235998Y185500D01*
X234998D01*
X234498Y186000D01*
X318001Y61499D02*
X317501Y60999D01*
Y60000D01*
X318001Y59500D01*
X320000D01*
X320500Y60000D01*
Y60999D01*
X320000Y61499D01*
X318001Y62499D02*
X317501Y62999D01*
Y63998D01*
X318001Y64498D01*
X318501D01*
X319001Y63998D01*
Y63499D01*
Y63998D01*
X319500Y64498D01*
X320000D01*
X320500Y63998D01*
Y62999D01*
X320000Y62499D01*
X320500Y66997D02*
X317501D01*
X319001Y65498D01*
Y67497D01*
X95499Y115999D02*
X95000Y116499D01*
X94000D01*
X93500Y115999D01*
Y114000D01*
X94000Y113500D01*
X95000D01*
X95499Y114000D01*
X96499Y113500D02*
X97499D01*
X96999D01*
Y116499D01*
X96499Y115999D01*
X98998Y116499D02*
X100997D01*
Y115999D01*
X98998Y114000D01*
Y113500D01*
D90*
X315600Y58000D02*
G03*
X315600Y58000I-1600J0D01*
G01*
X125000Y157200D02*
G03*
X125000Y157200I-1000J0D01*
G01*
X332600Y102000D02*
G03*
X332600Y102000I-1000J0D01*
G01*
D127*
X94200Y129198D02*
Y122200D01*
X97699D01*
X98865Y123366D01*
Y128032D01*
X97699Y129198D01*
X94200D01*
X101198Y122200D02*
X103530D01*
X102364D01*
Y129198D01*
X101198Y128032D01*
X121200Y134198D02*
Y127200D01*
X124699D01*
X125865Y128366D01*
Y133032D01*
X124699Y134198D01*
X121200D01*
X132863Y127200D02*
X128198D01*
X132863Y131865D01*
Y133032D01*
X131697Y134198D01*
X129364D01*
X128198Y133032D01*
X187200Y255198D02*
Y248200D01*
X190699D01*
X191865Y249366D01*
Y254032D01*
X190699Y255198D01*
X187200D01*
X197697Y248200D02*
Y255198D01*
X194198Y251699D01*
X198863D01*
X255198Y215800D02*
X248200D01*
Y212301D01*
X249366Y211135D01*
X254032D01*
X255198Y212301D01*
Y215800D01*
X249366Y208802D02*
X248200Y207636D01*
Y205303D01*
X249366Y204137D01*
X254032D01*
X255198Y205303D01*
Y207636D01*
X254032Y208802D01*
X252865D01*
X251699Y207636D01*
Y204137D01*
M02*
