G04*
G04 #@! TF.GenerationSoftware,Altium Limited,Altium Designer,20.0.7 (75)*
G04*
G04 Layer_Physical_Order=2*
G04 Layer_Color=36540*
%FSLAX44Y44*%
%MOMM*%
G71*
G01*
G75*
%ADD97C,0.6500*%
%ADD100R,1.5450X1.5450*%
%ADD103C,4.0000*%
%ADD114C,0.3000*%
%ADD115C,0.6000*%
G36*
X364000Y397000D02*
X497000D01*
Y335098D01*
X417039D01*
X416826Y336171D01*
X416163Y337163D01*
X415171Y337826D01*
X414000Y338059D01*
X412830Y337826D01*
X411837Y337163D01*
X411174Y336171D01*
X410961Y335098D01*
X355291D01*
X355043Y335049D01*
X354791Y335073D01*
X354074Y334856D01*
X353340Y334710D01*
X353130Y334569D01*
X352888Y334496D01*
X352309Y334021D01*
X351686Y333605D01*
X351545Y333395D01*
X351350Y333234D01*
X351058Y332878D01*
X350000Y333088D01*
X348942Y332878D01*
X348650Y333234D01*
X348455Y333395D01*
X348314Y333605D01*
X347691Y334021D01*
X347112Y334496D01*
X346870Y334569D01*
X346660Y334710D01*
X345925Y334856D01*
X345209Y335073D01*
X344957Y335049D01*
X344709Y335098D01*
X334903D01*
X334655Y335049D01*
X334403Y335073D01*
X333686Y334856D01*
X332952Y334710D01*
X332742Y334569D01*
X332500Y334496D01*
X331921Y334021D01*
X331298Y333605D01*
X331157Y333395D01*
X330962Y333234D01*
X330609Y332574D01*
X330193Y331951D01*
X330144Y331703D01*
X330024Y331480D01*
X329639Y330210D01*
X329614Y329958D01*
X329518Y329725D01*
X329511Y329718D01*
X328314Y328815D01*
X328140D01*
X327648Y328913D01*
X326353D01*
X325860Y328815D01*
X325686D01*
X324489Y329718D01*
X324482Y329725D01*
X324386Y329958D01*
X324361Y330210D01*
X323976Y331480D01*
X323857Y331703D01*
X323807Y331951D01*
X323391Y332574D01*
X323038Y333234D01*
X322843Y333395D01*
X322702Y333605D01*
X322079Y334021D01*
X321501Y334496D01*
X321259Y334569D01*
X321048Y334710D01*
X320314Y334856D01*
X319597Y335073D01*
X319345Y335049D01*
X319097Y335098D01*
X191000D01*
X189049Y334710D01*
X187395Y333605D01*
X139888Y286098D01*
X106049D01*
X105664Y287368D01*
X106244Y287756D01*
X107239Y289244D01*
X107588Y291000D01*
X107239Y292756D01*
X106244Y294244D01*
X104756Y295239D01*
X103000Y295588D01*
X101244Y295239D01*
X99756Y294244D01*
X98761Y292756D01*
X98412Y291000D01*
X98761Y289244D01*
X99756Y287756D01*
X100336Y287368D01*
X99951Y286098D01*
X3000D01*
X3000Y397000D01*
X364000Y397000D01*
X364000Y397000D01*
D02*
G37*
G36*
X497000Y199626D02*
X495730Y199287D01*
X493276Y202276D01*
X490003Y204963D01*
X486268Y206959D01*
X482215Y208189D01*
X478000Y208604D01*
X473785Y208189D01*
X469733Y206959D01*
X465998Y204963D01*
X462724Y202276D01*
X460037Y199002D01*
X458041Y195268D01*
X456811Y191215D01*
X456396Y187000D01*
X456811Y182785D01*
X458041Y178732D01*
X460037Y174998D01*
X462724Y171724D01*
X465998Y169037D01*
X469733Y167041D01*
X473785Y165811D01*
X478000Y165396D01*
X482215Y165811D01*
X486268Y167041D01*
X490003Y169037D01*
X493276Y171724D01*
X495730Y174713D01*
X497000Y174374D01*
Y119000D01*
X475000D01*
X432529Y176000D01*
X255272Y176000D01*
X255163Y176163D01*
X254170Y176826D01*
X253000Y177059D01*
X251829Y176826D01*
X250837Y176163D01*
X250728Y176000D01*
X239000D01*
X123000D01*
X122700Y175700D01*
X106500D01*
Y159500D01*
X84804Y137804D01*
X83818Y138614D01*
X84239Y139244D01*
X84588Y141000D01*
X84239Y142756D01*
X83244Y144244D01*
X81756Y145239D01*
X80000Y145588D01*
X78244Y145239D01*
X76756Y144244D01*
X75761Y142756D01*
X75412Y141000D01*
X75761Y139244D01*
X76756Y137756D01*
X77124Y137510D01*
X77168Y137046D01*
X76992Y136070D01*
X75756Y135244D01*
X74761Y133756D01*
X74412Y132000D01*
X74761Y130244D01*
X75756Y128756D01*
X56000Y109000D01*
X30850D01*
X30047Y109333D01*
X28350Y109556D01*
X26653Y109333D01*
X25850Y109000D01*
X3000D01*
Y170415D01*
X4108Y171036D01*
X6467Y169590D01*
X12066Y167271D01*
X17959Y165856D01*
X24000Y165381D01*
X30041Y165856D01*
X35934Y167271D01*
X41533Y169590D01*
X46700Y172757D01*
X51308Y176692D01*
X55244Y181300D01*
X58410Y186467D01*
X60729Y192066D01*
X62144Y197959D01*
X62619Y204000D01*
X62144Y210041D01*
X60729Y215934D01*
X58410Y221533D01*
X55244Y226700D01*
X51308Y231308D01*
X46700Y235243D01*
X41533Y238410D01*
X35934Y240729D01*
X30041Y242144D01*
X24000Y242619D01*
X17959Y242144D01*
X12066Y240729D01*
X6467Y238410D01*
X4108Y236964D01*
X3000Y237585D01*
Y281000D01*
X142000D01*
X191000Y330000D01*
X319097D01*
X319482Y328730D01*
X318756Y328244D01*
X317761Y326756D01*
X317412Y325000D01*
X317761Y323244D01*
X318756Y321756D01*
X320244Y320761D01*
X322000Y320412D01*
X323756Y320761D01*
X325244Y321756D01*
X326239Y323244D01*
X326353Y323815D01*
X327648D01*
X327761Y323244D01*
X328756Y321756D01*
X330244Y320761D01*
X332000Y320412D01*
X333756Y320761D01*
X335244Y321756D01*
X336239Y323244D01*
X336588Y325000D01*
X336239Y326756D01*
X335244Y328244D01*
X334518Y328730D01*
X334903Y330000D01*
X344709D01*
X345515Y329018D01*
X345412Y328500D01*
X345761Y326744D01*
X346756Y325256D01*
X348244Y324261D01*
X350000Y323912D01*
X351756Y324261D01*
X353244Y325256D01*
X354239Y326744D01*
X354588Y328500D01*
X354485Y329018D01*
X355291Y330000D01*
X497000D01*
Y199626D01*
D02*
G37*
G36*
X138000Y151022D02*
X136730Y150452D01*
X136171Y150826D01*
X135000Y151059D01*
X133829Y150826D01*
X132837Y150163D01*
X132174Y149171D01*
X131941Y148000D01*
X132174Y146830D01*
X132837Y145837D01*
X133829Y145174D01*
X135000Y144941D01*
X136171Y145174D01*
X136730Y145548D01*
X138000Y144978D01*
Y123022D01*
X136730Y122452D01*
X136171Y122826D01*
X135000Y123059D01*
X133829Y122826D01*
X132837Y122163D01*
X132174Y121171D01*
X131941Y120000D01*
X132174Y118829D01*
X132837Y117837D01*
X133829Y117174D01*
X135000Y116941D01*
X136171Y117174D01*
X136730Y117548D01*
X138000Y116978D01*
Y85965D01*
X136730Y85401D01*
X135447Y85933D01*
X133750Y86156D01*
X132053Y85933D01*
X130472Y85278D01*
X129114Y84236D01*
X128072Y82878D01*
X127417Y81297D01*
X127194Y79600D01*
Y69600D01*
X127417Y67903D01*
X128072Y66322D01*
X129114Y64964D01*
X130472Y63922D01*
X132053Y63267D01*
X133750Y63044D01*
X135447Y63267D01*
X136730Y63799D01*
X138000Y63235D01*
Y47365D01*
X136730Y46801D01*
X135447Y47333D01*
X133750Y47556D01*
X132053Y47333D01*
X130472Y46678D01*
X129114Y45636D01*
X128072Y44278D01*
X127417Y42697D01*
X127194Y41000D01*
Y31000D01*
X127417Y29303D01*
X128072Y27722D01*
X129114Y26364D01*
X130472Y25322D01*
X132053Y24667D01*
X133750Y24444D01*
X135447Y24667D01*
X136730Y25199D01*
X138000Y24635D01*
Y5000D01*
X89000D01*
X4000Y5000D01*
Y103902D01*
X21003D01*
X21794Y103000D01*
Y93000D01*
X22017Y91303D01*
X22672Y89722D01*
X23714Y88364D01*
X25072Y87322D01*
X26653Y86667D01*
X28350Y86444D01*
X30047Y86667D01*
X31628Y87322D01*
X32986Y88364D01*
X34028Y89722D01*
X34107Y89913D01*
X35608Y90219D01*
X36647Y89526D01*
X38500Y89157D01*
X40353Y89526D01*
X41925Y90576D01*
X42974Y92147D01*
X43343Y94000D01*
X42974Y95853D01*
X41925Y97425D01*
X40353Y98474D01*
X38500Y98843D01*
X36647Y98474D01*
X36176Y98160D01*
X34906Y98839D01*
Y103000D01*
X35697Y103902D01*
X56000D01*
X57951Y104290D01*
X59605Y105395D01*
X79360Y125151D01*
X79639Y125568D01*
X79995Y125923D01*
X80187Y126387D01*
X80466Y126805D01*
X80563Y127297D01*
X80756Y127761D01*
X80756Y127761D01*
X82244Y128756D01*
X83239Y130244D01*
X83588Y132000D01*
X84740Y132719D01*
X84804Y132706D01*
X85052Y132755D01*
X85304Y132731D01*
X86020Y132948D01*
X86755Y133094D01*
X86965Y133235D01*
X87207Y133308D01*
X87786Y133783D01*
X88409Y134199D01*
X110105Y155895D01*
X110643Y156700D01*
X129500D01*
Y170902D01*
X138000D01*
Y151022D01*
D02*
G37*
G36*
X253000Y170941D02*
X253959Y171132D01*
X254277Y171000D01*
X254779D01*
X255272Y170902D01*
X266201D01*
X266941Y170000D01*
X267174Y168829D01*
X267837Y167837D01*
X268829Y167174D01*
X270000Y166941D01*
X271171Y167174D01*
X272163Y167837D01*
X272826Y168829D01*
X273059Y170000D01*
X273799Y170902D01*
X306672D01*
X307412Y170000D01*
X307761Y168244D01*
X308756Y166756D01*
X310244Y165761D01*
X312000Y165412D01*
X313756Y165761D01*
X315244Y166756D01*
X316239Y168244D01*
X316588Y170000D01*
X317328Y170902D01*
X429970Y170902D01*
X468117Y119705D01*
X467553Y118567D01*
X396760Y117861D01*
X396191Y118298D01*
X393880Y119256D01*
X391400Y119582D01*
X388920Y119256D01*
X386609Y118298D01*
X385899Y117753D01*
X371686Y117612D01*
X370791Y118298D01*
X368480Y119256D01*
X366000Y119582D01*
X363520Y119256D01*
X361209Y118298D01*
X360164Y117497D01*
X351003Y117405D01*
X350100Y118299D01*
Y119500D01*
X331100D01*
Y117207D01*
X269316Y116591D01*
X268837Y117857D01*
X270058Y119448D01*
X270988Y121692D01*
X271305Y124100D01*
X270988Y126508D01*
X270058Y128752D01*
X268579Y130679D01*
X266652Y132158D01*
X264408Y133088D01*
X262000Y133405D01*
X259592Y133088D01*
X257348Y132158D01*
X255421Y130679D01*
X253942Y128752D01*
X253012Y126508D01*
X252695Y124100D01*
X253012Y121692D01*
X253942Y119448D01*
X255267Y117721D01*
X254932Y116448D01*
X243987Y116339D01*
X243751Y117022D01*
X243644Y117605D01*
X245058Y119448D01*
X245988Y121692D01*
X246305Y124100D01*
X245988Y126508D01*
X245058Y128752D01*
X243579Y130679D01*
X241652Y132158D01*
X239408Y133088D01*
X237000Y133405D01*
X234592Y133088D01*
X232348Y132158D01*
X230421Y130679D01*
X228942Y128752D01*
X228012Y126508D01*
X227695Y124100D01*
X228012Y121692D01*
X228942Y119448D01*
X230421Y117521D01*
X230571Y117406D01*
X230168Y116201D01*
X223755Y116137D01*
X223341Y117338D01*
X223579Y117521D01*
X225058Y119448D01*
X225988Y121692D01*
X226305Y124100D01*
X225988Y126508D01*
X225058Y128752D01*
X223579Y130679D01*
X221652Y132158D01*
X219408Y133088D01*
X217000Y133405D01*
X214592Y133088D01*
X212348Y132158D01*
X211270Y131331D01*
X210000Y131957D01*
Y152000D01*
Y170902D01*
X250728D01*
X251221Y171000D01*
X251723D01*
X252041Y171132D01*
X253000Y170941D01*
D02*
G37*
G36*
X204902Y152000D02*
Y131957D01*
X205064Y131142D01*
X205173Y130319D01*
X205257Y130172D01*
X205290Y130007D01*
X205752Y129316D01*
X206167Y128596D01*
X206301Y128493D01*
X206395Y128353D01*
X207086Y127891D01*
X207745Y127385D01*
X208269Y127127D01*
X208012Y126508D01*
X207695Y124100D01*
X208012Y121692D01*
X208942Y119448D01*
X210421Y117521D01*
X212348Y116042D01*
X214592Y115112D01*
X217000Y114795D01*
X218746Y115025D01*
X218936Y114474D01*
X219028Y114317D01*
X219065Y114139D01*
X219526Y113463D01*
X219939Y112757D01*
X220084Y112647D01*
X220186Y112497D01*
X220871Y112049D01*
X221523Y111554D01*
X221699Y111508D01*
X221851Y111408D01*
X222655Y111256D01*
X223447Y111048D01*
X223627Y111073D01*
X223806Y111039D01*
X230219Y111103D01*
X230372Y111135D01*
X230527Y111116D01*
X231341Y111338D01*
X232166Y111511D01*
X232295Y111599D01*
X232446Y111640D01*
X233113Y112157D01*
X233809Y112632D01*
X233894Y112763D01*
X234018Y112859D01*
X234436Y113591D01*
X234897Y114297D01*
X234926Y114451D01*
X235004Y114586D01*
X235155Y115038D01*
X237000Y114795D01*
X239034Y115063D01*
X239168Y114676D01*
X239260Y114519D01*
X239297Y114341D01*
X239758Y113665D01*
X240171Y112958D01*
X240316Y112848D01*
X240418Y112698D01*
X241103Y112250D01*
X241673Y111818D01*
X241700Y111425D01*
X241545Y110498D01*
X240244Y110239D01*
X238756Y109244D01*
X237761Y107756D01*
X237412Y106000D01*
X237761Y104244D01*
X238756Y102756D01*
X240244Y101761D01*
X242000Y101412D01*
X243756Y101761D01*
X245244Y102756D01*
X246239Y104244D01*
X246588Y106000D01*
X246239Y107756D01*
X245244Y109244D01*
X244155Y109972D01*
X244535Y111246D01*
X251649Y111317D01*
X251961Y110050D01*
X250756Y109244D01*
X249761Y107756D01*
X249412Y106000D01*
X249761Y104244D01*
X250756Y102756D01*
X252244Y101761D01*
X254000Y101412D01*
X255756Y101761D01*
X257244Y102756D01*
X258239Y104244D01*
X258588Y106000D01*
X258239Y107756D01*
X257244Y109244D01*
X255798Y110211D01*
X255786Y110469D01*
X255923Y111501D01*
X256265Y111618D01*
X256930Y111758D01*
X257197Y111940D01*
X257503Y112045D01*
X258012Y112496D01*
X258573Y112879D01*
X258750Y113150D01*
X258992Y113364D01*
X259289Y113975D01*
X259661Y114544D01*
X259721Y114862D01*
X259828Y115081D01*
X262000Y114795D01*
X264408Y115112D01*
X264626Y114593D01*
X265129Y113856D01*
X265602Y113099D01*
X265688Y113038D01*
X265747Y112951D01*
X266494Y112462D01*
X267221Y111944D01*
X267324Y111920D01*
X267412Y111862D01*
X268289Y111697D01*
X269159Y111496D01*
X269263Y111513D01*
X269367Y111494D01*
X279464Y111594D01*
X279898Y110400D01*
X279569Y110131D01*
X277260Y107317D01*
X275544Y104106D01*
X274487Y100623D01*
X274131Y97000D01*
X274487Y93377D01*
X275544Y89894D01*
X277260Y86683D01*
X279569Y83869D01*
X282383Y81560D01*
X285594Y79844D01*
X289077Y78787D01*
X292700Y78431D01*
X296323Y78787D01*
X299806Y79844D01*
X303017Y81560D01*
X305831Y83869D01*
X308140Y86683D01*
X309856Y89894D01*
X310913Y93377D01*
X311269Y97000D01*
X310913Y100623D01*
X309856Y104106D01*
X308140Y107317D01*
X305831Y110131D01*
X305189Y110657D01*
X305611Y111855D01*
X330197Y112100D01*
X331100Y111206D01*
Y96500D01*
X350100D01*
Y111523D01*
X351053Y112308D01*
X355761Y112355D01*
X356603Y111404D01*
X356418Y110000D01*
Y106000D01*
X356744Y103520D01*
X357702Y101209D01*
X359225Y99225D01*
X361209Y97702D01*
X363520Y96744D01*
X366000Y96418D01*
X368480Y96744D01*
X370791Y97702D01*
X372775Y99225D01*
X374298Y101209D01*
X375256Y103520D01*
X375582Y106000D01*
Y110000D01*
X375413Y111280D01*
X376526Y112562D01*
X380880Y112605D01*
X381995Y111346D01*
X381818Y110000D01*
Y106000D01*
X382145Y103520D01*
X383102Y101209D01*
X384625Y99225D01*
X386609Y97702D01*
X388920Y96744D01*
X391400Y96418D01*
X393880Y96744D01*
X396191Y97702D01*
X398176Y99225D01*
X399698Y101209D01*
X400656Y103520D01*
X400982Y106000D01*
Y110000D01*
X400780Y111533D01*
X401818Y112814D01*
X467604Y113469D01*
X468388Y113633D01*
X469182Y113736D01*
X469355Y113836D01*
X469551Y113877D01*
X470212Y114328D01*
X470906Y114727D01*
X471927Y114767D01*
X472389Y114621D01*
X472740Y114497D01*
X473049Y114290D01*
X473668Y114167D01*
X474263Y113956D01*
X474635Y113975D01*
X475000Y113902D01*
X497000D01*
X497811Y113237D01*
Y59991D01*
X496541Y59522D01*
X493308Y63308D01*
X488700Y67243D01*
X483533Y70410D01*
X477934Y72729D01*
X472041Y74144D01*
X466000Y74619D01*
X459959Y74144D01*
X454066Y72729D01*
X448467Y70410D01*
X443300Y67243D01*
X438692Y63308D01*
X434757Y58700D01*
X431590Y53533D01*
X429271Y47934D01*
X427856Y42041D01*
X427381Y36000D01*
X427856Y29959D01*
X429271Y24066D01*
X431590Y18467D01*
X434757Y13300D01*
X438692Y8692D01*
X442699Y5270D01*
X442231Y4000D01*
X143900D01*
X143094Y4982D01*
X143098Y5000D01*
Y24635D01*
X142916Y25548D01*
X142758Y26467D01*
X142723Y26522D01*
X142710Y26586D01*
X142192Y27360D01*
X141694Y28148D01*
X141641Y28185D01*
X141605Y28240D01*
X141000Y28644D01*
Y43356D01*
X141605Y43760D01*
X141641Y43815D01*
X141694Y43852D01*
X142192Y44640D01*
X142710Y45414D01*
X142723Y45478D01*
X142758Y45533D01*
X142916Y46451D01*
X143098Y47365D01*
Y63235D01*
X142916Y64148D01*
X142758Y65067D01*
X142723Y65122D01*
X142710Y65186D01*
X142192Y65960D01*
X141694Y66748D01*
X141641Y66785D01*
X141605Y66840D01*
X141000Y67244D01*
Y81956D01*
X141605Y82360D01*
X141641Y82415D01*
X141694Y82452D01*
X142192Y83239D01*
X142710Y84014D01*
X142723Y84078D01*
X142758Y84133D01*
X142916Y85051D01*
X143098Y85965D01*
Y89157D01*
X144368Y89475D01*
X145860Y86683D01*
X148169Y83869D01*
X150983Y81560D01*
X154194Y79844D01*
X157677Y78787D01*
X161300Y78431D01*
X164923Y78787D01*
X168406Y79844D01*
X171617Y81560D01*
X174431Y83869D01*
X176740Y86683D01*
X178456Y89894D01*
X179513Y93377D01*
X179869Y97000D01*
X179513Y100623D01*
X178456Y104106D01*
X176740Y107317D01*
X174431Y110131D01*
X171617Y112440D01*
X168406Y114156D01*
X164923Y115213D01*
X161300Y115569D01*
X157677Y115213D01*
X154194Y114156D01*
X150983Y112440D01*
X148169Y110131D01*
X145860Y107317D01*
X144368Y104525D01*
X143098Y104843D01*
Y116978D01*
X142918Y117882D01*
X142765Y118791D01*
X142725Y118855D01*
X142710Y118929D01*
X142198Y119696D01*
X142007Y120000D01*
X142198Y120304D01*
X142710Y121071D01*
X142725Y121145D01*
X142765Y121209D01*
X142918Y122118D01*
X143098Y123022D01*
Y144978D01*
X142918Y145883D01*
X142765Y146791D01*
X142725Y146855D01*
X142710Y146929D01*
X142198Y147695D01*
X142007Y148000D01*
X142198Y148305D01*
X142710Y149071D01*
X142725Y149145D01*
X142765Y149209D01*
X142918Y150118D01*
X143098Y151022D01*
Y170902D01*
X204902D01*
Y152000D01*
D02*
G37*
%LPC*%
G36*
X24000Y374059D02*
X22829Y373826D01*
X21837Y373163D01*
X21174Y372170D01*
X20941Y371000D01*
X21174Y369829D01*
X21837Y368837D01*
X22829Y368174D01*
X24000Y367941D01*
X25171Y368174D01*
X26163Y368837D01*
X26826Y369829D01*
X27059Y371000D01*
X26826Y372170D01*
X26163Y373163D01*
X25171Y373826D01*
X24000Y374059D01*
D02*
G37*
G36*
X65000Y365588D02*
X63244Y365239D01*
X61756Y364244D01*
X60761Y362756D01*
X60412Y361000D01*
X60761Y359244D01*
X61756Y357756D01*
X63244Y356761D01*
X65000Y356412D01*
X66756Y356761D01*
X68244Y357756D01*
X69239Y359244D01*
X69588Y361000D01*
X69239Y362756D01*
X68244Y364244D01*
X66756Y365239D01*
X65000Y365588D01*
D02*
G37*
G36*
X233000Y357559D02*
X231829Y357326D01*
X230837Y356663D01*
X230174Y355671D01*
X229941Y354500D01*
X230174Y353329D01*
X230837Y352337D01*
X231829Y351674D01*
X233000Y351441D01*
X234171Y351674D01*
X235163Y352337D01*
X235826Y353329D01*
X236059Y354500D01*
X235826Y355671D01*
X235163Y356663D01*
X234171Y357326D01*
X233000Y357559D01*
D02*
G37*
G36*
X9000Y358588D02*
X7244Y358239D01*
X5756Y357244D01*
X4761Y355756D01*
X4412Y354000D01*
X4761Y352244D01*
X5756Y350756D01*
X7244Y349761D01*
X9000Y349412D01*
X10756Y349761D01*
X12244Y350756D01*
X13239Y352244D01*
X13588Y354000D01*
X13239Y355756D01*
X12244Y357244D01*
X10756Y358239D01*
X9000Y358588D01*
D02*
G37*
G36*
X180000Y355059D02*
X178829Y354826D01*
X177837Y354163D01*
X177174Y353171D01*
X176941Y352000D01*
X177174Y350830D01*
X177837Y349837D01*
X178829Y349174D01*
X180000Y348941D01*
X181171Y349174D01*
X182163Y349837D01*
X182826Y350830D01*
X183059Y352000D01*
X182826Y353171D01*
X182163Y354163D01*
X181171Y354826D01*
X180000Y355059D01*
D02*
G37*
G36*
X157000Y351059D02*
X155829Y350826D01*
X154837Y350163D01*
X154174Y349170D01*
X153941Y348000D01*
X154174Y346829D01*
X154837Y345837D01*
X155829Y345174D01*
X157000Y344941D01*
X158170Y345174D01*
X159163Y345837D01*
X159826Y346829D01*
X160059Y348000D01*
X159826Y349170D01*
X159163Y350163D01*
X158170Y350826D01*
X157000Y351059D01*
D02*
G37*
G36*
X257500Y349559D02*
X256329Y349326D01*
X255337Y348663D01*
X254674Y347671D01*
X254441Y346500D01*
X254674Y345330D01*
X255337Y344337D01*
X256329Y343674D01*
X257500Y343441D01*
X258671Y343674D01*
X259663Y344337D01*
X260326Y345330D01*
X260559Y346500D01*
X260326Y347671D01*
X259663Y348663D01*
X258671Y349326D01*
X257500Y349559D01*
D02*
G37*
G36*
X350000Y351588D02*
X348244Y351239D01*
X346756Y350244D01*
X345761Y348756D01*
X345412Y347000D01*
X345761Y345244D01*
X346756Y343756D01*
X348244Y342761D01*
X350000Y342412D01*
X351756Y342761D01*
X353244Y343756D01*
X354239Y345244D01*
X354588Y347000D01*
X354239Y348756D01*
X353244Y350244D01*
X351756Y351239D01*
X350000Y351588D01*
D02*
G37*
G36*
X317000D02*
X315244Y351239D01*
X313756Y350244D01*
X312761Y348756D01*
X312412Y347000D01*
X312761Y345244D01*
X313756Y343756D01*
X315244Y342761D01*
X317000Y342412D01*
X318756Y342761D01*
X320244Y343756D01*
X321239Y345244D01*
X321588Y347000D01*
X321239Y348756D01*
X320244Y350244D01*
X318756Y351239D01*
X317000Y351588D01*
D02*
G37*
G36*
X368000Y347059D02*
X366829Y346826D01*
X365837Y346163D01*
X365174Y345171D01*
X364941Y344000D01*
X365174Y342830D01*
X365837Y341837D01*
X366829Y341174D01*
X368000Y340941D01*
X369170Y341174D01*
X370163Y341837D01*
X370826Y342830D01*
X371059Y344000D01*
X370826Y345171D01*
X370163Y346163D01*
X369170Y346826D01*
X368000Y347059D01*
D02*
G37*
G36*
X336125Y344934D02*
X334954Y344701D01*
X333962Y344038D01*
X333299Y343046D01*
X333066Y341875D01*
X333299Y340704D01*
X333962Y339712D01*
X334954Y339049D01*
X336125Y338816D01*
X337295Y339049D01*
X338288Y339712D01*
X338951Y340704D01*
X339184Y341875D01*
X338951Y343046D01*
X338288Y344038D01*
X337295Y344701D01*
X336125Y344934D01*
D02*
G37*
G36*
X238000Y319059D02*
X236829Y318826D01*
X235837Y318163D01*
X235174Y317171D01*
X234941Y316000D01*
X235174Y314830D01*
X235837Y313837D01*
X236829Y313174D01*
X238000Y312941D01*
X239170Y313174D01*
X240163Y313837D01*
X240826Y314830D01*
X241059Y316000D01*
X240826Y317171D01*
X240163Y318163D01*
X239170Y318826D01*
X238000Y319059D01*
D02*
G37*
G36*
X339000Y320588D02*
X337244Y320239D01*
X335756Y319244D01*
X334761Y317756D01*
X334412Y316000D01*
X334761Y314244D01*
X335756Y312756D01*
X337244Y311761D01*
X339000Y311412D01*
X340756Y311761D01*
X342244Y312756D01*
X343239Y314244D01*
X343588Y316000D01*
X343239Y317756D01*
X342244Y319244D01*
X340756Y320239D01*
X339000Y320588D01*
D02*
G37*
G36*
X313000Y313588D02*
X311244Y313239D01*
X309756Y312244D01*
X308761Y310756D01*
X308412Y309000D01*
X308761Y307244D01*
X309756Y305756D01*
X311244Y304761D01*
X313000Y304412D01*
X314756Y304761D01*
X316244Y305756D01*
X317239Y307244D01*
X317588Y309000D01*
X317239Y310756D01*
X316244Y312244D01*
X314756Y313239D01*
X313000Y313588D01*
D02*
G37*
G36*
X340000Y305059D02*
X338829Y304826D01*
X337837Y304163D01*
X337174Y303171D01*
X336941Y302000D01*
X337174Y300830D01*
X337837Y299837D01*
X338829Y299174D01*
X340000Y298941D01*
X341171Y299174D01*
X342163Y299837D01*
X342826Y300830D01*
X343059Y302000D01*
X342826Y303171D01*
X342163Y304163D01*
X341171Y304826D01*
X340000Y305059D01*
D02*
G37*
G36*
X282000Y297059D02*
X280830Y296826D01*
X279837Y296163D01*
X279174Y295170D01*
X278941Y294000D01*
X279174Y292829D01*
X279837Y291837D01*
X280830Y291174D01*
X282000Y290941D01*
X283171Y291174D01*
X284163Y291837D01*
X284826Y292829D01*
X285059Y294000D01*
X284826Y295170D01*
X284163Y296163D01*
X283171Y296826D01*
X282000Y297059D01*
D02*
G37*
G36*
X310000Y298588D02*
X308244Y298239D01*
X306756Y297244D01*
X305761Y295756D01*
X305412Y294000D01*
X305761Y292244D01*
X306756Y290756D01*
X308244Y289761D01*
X310000Y289412D01*
X311756Y289761D01*
X313244Y290756D01*
X314239Y292244D01*
X314588Y294000D01*
X314239Y295756D01*
X313244Y297244D01*
X311756Y298239D01*
X310000Y298588D01*
D02*
G37*
G36*
X265000Y291059D02*
X263829Y290826D01*
X262837Y290163D01*
X262174Y289170D01*
X261941Y288000D01*
X262174Y286829D01*
X262837Y285837D01*
X263829Y285174D01*
X265000Y284941D01*
X266171Y285174D01*
X267163Y285837D01*
X267826Y286829D01*
X268059Y288000D01*
X267826Y289170D01*
X267163Y290163D01*
X266171Y290826D01*
X265000Y291059D01*
D02*
G37*
G36*
X237000Y290588D02*
X235244Y290239D01*
X233756Y289244D01*
X232761Y287756D01*
X232412Y286000D01*
X232761Y284244D01*
X233756Y282756D01*
X235244Y281761D01*
X237000Y281412D01*
X238756Y281761D01*
X240244Y282756D01*
X241239Y284244D01*
X241588Y286000D01*
X241239Y287756D01*
X240244Y289244D01*
X238756Y290239D01*
X237000Y290588D01*
D02*
G37*
G36*
X362000Y284059D02*
X360830Y283826D01*
X359837Y283163D01*
X359174Y282171D01*
X358941Y281000D01*
X359174Y279830D01*
X359837Y278837D01*
X360830Y278174D01*
X362000Y277941D01*
X363171Y278174D01*
X364163Y278837D01*
X364826Y279830D01*
X365059Y281000D01*
X364826Y282171D01*
X364163Y283163D01*
X363171Y283826D01*
X362000Y284059D01*
D02*
G37*
G36*
X403000Y277088D02*
X401244Y276739D01*
X399756Y275744D01*
X398761Y274256D01*
X398412Y272500D01*
X398761Y270744D01*
X399756Y269256D01*
X401244Y268261D01*
X403000Y267912D01*
X404756Y268261D01*
X406244Y269256D01*
X407239Y270744D01*
X407588Y272500D01*
X407239Y274256D01*
X406244Y275744D01*
X404756Y276739D01*
X403000Y277088D01*
D02*
G37*
G36*
X429000Y268059D02*
X427830Y267826D01*
X426837Y267163D01*
X426174Y266171D01*
X425941Y265000D01*
X426174Y263829D01*
X426837Y262837D01*
X427830Y262174D01*
X429000Y261941D01*
X430171Y262174D01*
X431163Y262837D01*
X431826Y263829D01*
X432059Y265000D01*
X431826Y266171D01*
X431163Y267163D01*
X430171Y267826D01*
X429000Y268059D01*
D02*
G37*
G36*
X164000Y268588D02*
X162244Y268239D01*
X160756Y267244D01*
X159761Y265756D01*
X159412Y264000D01*
X159761Y262244D01*
X160756Y260756D01*
X162244Y259761D01*
X164000Y259412D01*
X165756Y259761D01*
X167244Y260756D01*
X168239Y262244D01*
X168588Y264000D01*
X168239Y265756D01*
X167244Y267244D01*
X165756Y268239D01*
X164000Y268588D01*
D02*
G37*
G36*
X229000Y266588D02*
X227244Y266239D01*
X225756Y265244D01*
X224761Y263756D01*
X224412Y262000D01*
X224761Y260244D01*
X225756Y258756D01*
X227244Y257761D01*
X229000Y257412D01*
X230756Y257761D01*
X232244Y258756D01*
X233239Y260244D01*
X233588Y262000D01*
X233239Y263756D01*
X232244Y265244D01*
X230756Y266239D01*
X229000Y266588D01*
D02*
G37*
G36*
X196000D02*
X194244Y266239D01*
X192756Y265244D01*
X191761Y263756D01*
X191412Y262000D01*
X191761Y260244D01*
X192756Y258756D01*
X194244Y257761D01*
X196000Y257412D01*
X197756Y257761D01*
X199244Y258756D01*
X200239Y260244D01*
X200588Y262000D01*
X200239Y263756D01*
X199244Y265244D01*
X197756Y266239D01*
X196000Y266588D01*
D02*
G37*
G36*
X278000Y269588D02*
X276244Y269239D01*
X274756Y268244D01*
X273761Y266756D01*
X273412Y265000D01*
X273761Y263244D01*
X274756Y261756D01*
X276244Y260761D01*
X276816Y260647D01*
Y259353D01*
X276244Y259239D01*
X274756Y258244D01*
X273761Y256756D01*
X273412Y255000D01*
X273761Y253244D01*
X274756Y251756D01*
X276244Y250761D01*
X278000Y250412D01*
X279756Y250761D01*
X281244Y251756D01*
X282239Y253244D01*
X282588Y255000D01*
X282239Y256756D01*
X281244Y258244D01*
X279756Y259239D01*
X279184Y259353D01*
Y260647D01*
X279756Y260761D01*
X281244Y261756D01*
X282239Y263244D01*
X282588Y265000D01*
X282239Y266756D01*
X281244Y268244D01*
X279756Y269239D01*
X278000Y269588D01*
D02*
G37*
G36*
X222899Y249588D02*
X221144Y249239D01*
X219655Y248244D01*
X219214Y247583D01*
X217686D01*
X217244Y248244D01*
X215756Y249239D01*
X214000Y249588D01*
X212244Y249239D01*
X210756Y248244D01*
X209761Y246756D01*
X209412Y245000D01*
X209761Y243244D01*
X210756Y241756D01*
X212244Y240761D01*
X214000Y240412D01*
X215756Y240761D01*
X217244Y241756D01*
X217686Y242417D01*
X219214D01*
X219655Y241756D01*
X221144Y240761D01*
X222899Y240412D01*
X224655Y240761D01*
X226144Y241756D01*
X227138Y243244D01*
X227488Y245000D01*
X227138Y246756D01*
X226144Y248244D01*
X224655Y249239D01*
X222899Y249588D01*
D02*
G37*
G36*
X250000Y254588D02*
X248244Y254239D01*
X246756Y253244D01*
X245761Y251756D01*
X245412Y250000D01*
X245761Y248244D01*
X246756Y246756D01*
X248244Y245761D01*
X250000Y245412D01*
X251756Y245761D01*
X253244Y246756D01*
X254239Y248244D01*
X254588Y250000D01*
X254239Y251756D01*
X253244Y253244D01*
X251756Y254239D01*
X250000Y254588D01*
D02*
G37*
G36*
X384500Y250559D02*
X383330Y250326D01*
X382337Y249663D01*
X381674Y248671D01*
X381441Y247500D01*
X381674Y246329D01*
X382337Y245337D01*
X383330Y244674D01*
X384500Y244441D01*
X385671Y244674D01*
X386663Y245337D01*
X387326Y246329D01*
X387559Y247500D01*
X387326Y248671D01*
X386663Y249663D01*
X385671Y250326D01*
X384500Y250559D01*
D02*
G37*
G36*
X359000Y251588D02*
X357244Y251239D01*
X355756Y250244D01*
X354761Y248756D01*
X354412Y247000D01*
X354761Y245244D01*
X355756Y243756D01*
X357244Y242761D01*
X359000Y242412D01*
X360756Y242761D01*
X362244Y243756D01*
X363239Y245244D01*
X363588Y247000D01*
X363239Y248756D01*
X362244Y250244D01*
X360756Y251239D01*
X359000Y251588D01*
D02*
G37*
G36*
X409000Y254309D02*
X406901Y254033D01*
X404945Y253223D01*
X403266Y251934D01*
X401977Y250255D01*
X401167Y248299D01*
X400891Y246200D01*
X401167Y244101D01*
X401977Y242145D01*
X403266Y240466D01*
X404945Y239177D01*
X406901Y238367D01*
X409000Y238091D01*
X411099Y238367D01*
X413055Y239177D01*
X414734Y240466D01*
X416023Y242145D01*
X416833Y244101D01*
X417109Y246200D01*
X416833Y248299D01*
X416023Y250255D01*
X414734Y251934D01*
X413055Y253223D01*
X411099Y254033D01*
X409000Y254309D01*
D02*
G37*
G36*
X227000Y235059D02*
X225830Y234826D01*
X224837Y234163D01*
X224174Y233171D01*
X223941Y232000D01*
X224174Y230830D01*
X224837Y229837D01*
X225830Y229174D01*
X227000Y228941D01*
X228171Y229174D01*
X229163Y229837D01*
X229826Y230830D01*
X230059Y232000D01*
X229826Y233171D01*
X229163Y234163D01*
X228171Y234826D01*
X227000Y235059D01*
D02*
G37*
G36*
X470000Y263585D02*
X466569Y263247D01*
X463271Y262246D01*
X460230Y260621D01*
X457566Y258434D01*
X455379Y255770D01*
X453754Y252729D01*
X452753Y249431D01*
X452415Y246000D01*
X452753Y242569D01*
X453754Y239271D01*
X455379Y236231D01*
X457566Y233566D01*
X460230Y231379D01*
X463271Y229754D01*
X466569Y228753D01*
X470000Y228415D01*
X473431Y228753D01*
X476729Y229754D01*
X479770Y231379D01*
X482434Y233566D01*
X484621Y236231D01*
X486246Y239271D01*
X487247Y242569D01*
X487585Y246000D01*
X487247Y249431D01*
X486246Y252729D01*
X484621Y255770D01*
X482434Y258434D01*
X479770Y260621D01*
X476729Y262246D01*
X473431Y263247D01*
X470000Y263585D01*
D02*
G37*
G36*
X71000Y231588D02*
X69244Y231239D01*
X67756Y230244D01*
X66761Y228756D01*
X66412Y227000D01*
X66761Y225244D01*
X67756Y223756D01*
X69244Y222761D01*
X71000Y222412D01*
X72756Y222761D01*
X74244Y223756D01*
X75239Y225244D01*
X75588Y227000D01*
X75239Y228756D01*
X74244Y230244D01*
X72756Y231239D01*
X71000Y231588D01*
D02*
G37*
G36*
X389000Y221059D02*
X387830Y220826D01*
X386837Y220163D01*
X386174Y219170D01*
X385941Y218000D01*
X386174Y216829D01*
X386837Y215837D01*
X387830Y215174D01*
X389000Y214941D01*
X390171Y215174D01*
X391163Y215837D01*
X391826Y216829D01*
X392059Y218000D01*
X391826Y219170D01*
X391163Y220163D01*
X390171Y220826D01*
X389000Y221059D01*
D02*
G37*
G36*
X280000Y219059D02*
X278829Y218826D01*
X277837Y218163D01*
X277174Y217171D01*
X276941Y216000D01*
X277174Y214830D01*
X277837Y213837D01*
X278829Y213174D01*
X280000Y212941D01*
X281171Y213174D01*
X282163Y213837D01*
X282826Y214830D01*
X283059Y216000D01*
X282826Y217171D01*
X282163Y218163D01*
X281171Y218826D01*
X280000Y219059D01*
D02*
G37*
G36*
X329000Y216588D02*
X327244Y216239D01*
X325756Y215244D01*
X324761Y213756D01*
X324412Y212000D01*
X324761Y210244D01*
X325385Y209310D01*
X325072Y208778D01*
X324546Y208281D01*
X323000Y208588D01*
X321244Y208239D01*
X319756Y207244D01*
X318761Y205756D01*
X318412Y204000D01*
X318761Y202244D01*
X319756Y200756D01*
X321244Y199761D01*
X323000Y199412D01*
X324756Y199761D01*
X326244Y200756D01*
X327239Y202244D01*
X327588Y204000D01*
X327239Y205756D01*
X326615Y206690D01*
X326928Y207222D01*
X327454Y207719D01*
X329000Y207412D01*
X330756Y207761D01*
X332244Y208756D01*
X333239Y210244D01*
X333588Y212000D01*
X333239Y213756D01*
X332244Y215244D01*
X330756Y216239D01*
X329000Y216588D01*
D02*
G37*
G36*
X120000Y226582D02*
X116000D01*
X113520Y226255D01*
X111209Y225298D01*
X109225Y223775D01*
X107702Y221791D01*
X106744Y219480D01*
X106418Y217000D01*
X106744Y214520D01*
X107702Y212209D01*
X109225Y210224D01*
X111209Y208702D01*
X113520Y207745D01*
X116000Y207418D01*
X120000D01*
X122480Y207745D01*
X124791Y208702D01*
X126776Y210224D01*
X128298Y212209D01*
X129256Y214520D01*
X129582Y217000D01*
X129256Y219480D01*
X128298Y221791D01*
X126776Y223775D01*
X124791Y225298D01*
X122480Y226255D01*
X120000Y226582D01*
D02*
G37*
G36*
X409000Y221909D02*
X406901Y221633D01*
X404945Y220823D01*
X403266Y219534D01*
X401977Y217855D01*
X401167Y215899D01*
X400891Y213800D01*
X401167Y211701D01*
X401977Y209745D01*
X403266Y208066D01*
X404945Y206777D01*
X406901Y205967D01*
X409000Y205691D01*
X411099Y205967D01*
X413055Y206777D01*
X414734Y208066D01*
X416023Y209745D01*
X416833Y211701D01*
X417109Y213800D01*
X416833Y215899D01*
X416023Y217855D01*
X414734Y219534D01*
X413055Y220823D01*
X411099Y221633D01*
X409000Y221909D01*
D02*
G37*
G36*
X264000Y208059D02*
X262829Y207826D01*
X261837Y207163D01*
X261174Y206171D01*
X260941Y205000D01*
X261174Y203829D01*
X261837Y202837D01*
X262829Y202174D01*
X264000Y201941D01*
X265170Y202174D01*
X266163Y202837D01*
X266826Y203829D01*
X267059Y205000D01*
X266826Y206171D01*
X266163Y207163D01*
X265170Y207826D01*
X264000Y208059D01*
D02*
G37*
G36*
X350000Y210588D02*
X348244Y210239D01*
X346756Y209244D01*
X345761Y207756D01*
X345412Y206000D01*
X345761Y204244D01*
X346756Y202756D01*
X348244Y201761D01*
X350000Y201412D01*
X351756Y201761D01*
X353244Y202756D01*
X354239Y204244D01*
X354588Y206000D01*
X354239Y207756D01*
X353244Y209244D01*
X351756Y210239D01*
X350000Y210588D01*
D02*
G37*
G36*
X283000Y202059D02*
X281829Y201826D01*
X280837Y201163D01*
X280174Y200170D01*
X279941Y199000D01*
X280174Y197829D01*
X280837Y196837D01*
X281829Y196174D01*
X283000Y195941D01*
X284170Y196174D01*
X285163Y196837D01*
X285826Y197829D01*
X286059Y199000D01*
X285826Y200170D01*
X285163Y201163D01*
X284170Y201826D01*
X283000Y202059D01*
D02*
G37*
G36*
X120000Y201182D02*
X116000D01*
X113520Y200856D01*
X111209Y199898D01*
X109225Y198375D01*
X107702Y196391D01*
X106744Y194080D01*
X106418Y191600D01*
X106744Y189120D01*
X107702Y186809D01*
X109225Y184825D01*
X111209Y183302D01*
X113520Y182344D01*
X116000Y182018D01*
X120000D01*
X122480Y182344D01*
X124791Y183302D01*
X126776Y184825D01*
X128298Y186809D01*
X129256Y189120D01*
X129582Y191600D01*
X129256Y194080D01*
X128298Y196391D01*
X126776Y198375D01*
X124791Y199898D01*
X122480Y200856D01*
X120000Y201182D01*
D02*
G37*
G36*
X284000Y188059D02*
X282829Y187826D01*
X281837Y187163D01*
X281174Y186171D01*
X280941Y185000D01*
X281174Y183829D01*
X281837Y182837D01*
X282829Y182174D01*
X284000Y181941D01*
X285170Y182174D01*
X286163Y182837D01*
X286826Y183829D01*
X287059Y185000D01*
X286826Y186171D01*
X286163Y187163D01*
X285170Y187826D01*
X284000Y188059D01*
D02*
G37*
G36*
X447000Y186059D02*
X445830Y185826D01*
X444837Y185163D01*
X444174Y184170D01*
X443941Y183000D01*
X444174Y181829D01*
X444837Y180837D01*
X445830Y180174D01*
X447000Y179941D01*
X448171Y180174D01*
X449163Y180837D01*
X449826Y181829D01*
X450059Y183000D01*
X449826Y184170D01*
X449163Y185163D01*
X448171Y185826D01*
X447000Y186059D01*
D02*
G37*
G36*
X410000Y188588D02*
X408244Y188239D01*
X406756Y187244D01*
X405761Y185756D01*
X405412Y184000D01*
X405761Y182244D01*
X406756Y180756D01*
X408244Y179761D01*
X410000Y179412D01*
X411756Y179761D01*
X413244Y180756D01*
X414239Y182244D01*
X414588Y184000D01*
X414239Y185756D01*
X413244Y187244D01*
X411756Y188239D01*
X410000Y188588D01*
D02*
G37*
G36*
X226500Y184569D02*
X225329Y184336D01*
X224337Y183673D01*
X223674Y182681D01*
X223441Y181510D01*
X223674Y180340D01*
X224337Y179347D01*
X225329Y178685D01*
X226500Y178452D01*
X227670Y178685D01*
X228663Y179347D01*
X229326Y180340D01*
X229559Y181510D01*
X229326Y182681D01*
X228663Y183673D01*
X227670Y184336D01*
X226500Y184569D01*
D02*
G37*
G36*
X64000Y181588D02*
X62244Y181239D01*
X60756Y180244D01*
X59761Y178756D01*
X59412Y177000D01*
X59761Y175244D01*
X60756Y173756D01*
X62244Y172761D01*
X64000Y172412D01*
X65756Y172761D01*
X67244Y173756D01*
X68239Y175244D01*
X68588Y177000D01*
X68239Y178756D01*
X67244Y180244D01*
X65756Y181239D01*
X64000Y181588D01*
D02*
G37*
G36*
X82000Y166588D02*
X80244Y166239D01*
X78756Y165244D01*
X77761Y163756D01*
X77412Y162000D01*
X77761Y160244D01*
X78756Y158756D01*
X80244Y157761D01*
X82000Y157412D01*
X83756Y157761D01*
X85244Y158756D01*
X86239Y160244D01*
X86588Y162000D01*
X86239Y163756D01*
X85244Y165244D01*
X83756Y166239D01*
X82000Y166588D01*
D02*
G37*
G36*
X11000Y163588D02*
X9244Y163239D01*
X7756Y162244D01*
X6761Y160756D01*
X6412Y159000D01*
X6761Y157244D01*
X7756Y155756D01*
X9244Y154761D01*
X11000Y154412D01*
X12756Y154761D01*
X14244Y155756D01*
X15239Y157244D01*
X15588Y159000D01*
X15239Y160756D01*
X14244Y162244D01*
X12756Y163239D01*
X11000Y163588D01*
D02*
G37*
G36*
X48000Y160588D02*
X46244Y160239D01*
X44756Y159244D01*
X43761Y157756D01*
X43412Y156000D01*
X43761Y154244D01*
X44756Y152756D01*
X46244Y151761D01*
X48000Y151412D01*
X49756Y151761D01*
X51244Y152756D01*
X52239Y154244D01*
X52588Y156000D01*
X52239Y157756D01*
X51244Y159244D01*
X49756Y160239D01*
X48000Y160588D01*
D02*
G37*
G36*
X485438Y152059D02*
X484267Y151826D01*
X483275Y151163D01*
X482612Y150170D01*
X482379Y149000D01*
X482612Y147829D01*
X483275Y146837D01*
X484267Y146174D01*
X485438Y145941D01*
X486608Y146174D01*
X487600Y146837D01*
X488263Y147829D01*
X488496Y149000D01*
X488263Y150170D01*
X487600Y151163D01*
X486608Y151826D01*
X485438Y152059D01*
D02*
G37*
G36*
X11000Y151588D02*
X9244Y151239D01*
X7756Y150244D01*
X6761Y148756D01*
X6412Y147000D01*
X6761Y145244D01*
X7756Y143756D01*
X9244Y142761D01*
X11000Y142412D01*
X12756Y142761D01*
X14244Y143756D01*
X15239Y145244D01*
X15588Y147000D01*
X15239Y148756D01*
X14244Y150244D01*
X12756Y151239D01*
X11000Y151588D01*
D02*
G37*
G36*
X464000Y148588D02*
X462244Y148239D01*
X460756Y147244D01*
X459761Y145756D01*
X459412Y144000D01*
X459761Y142244D01*
X460756Y140756D01*
X462244Y139761D01*
X464000Y139412D01*
X465756Y139761D01*
X467244Y140756D01*
X468239Y142244D01*
X468588Y144000D01*
X468239Y145756D01*
X467244Y147244D01*
X465756Y148239D01*
X464000Y148588D01*
D02*
G37*
G36*
X42000Y139588D02*
X40244Y139239D01*
X38756Y138244D01*
X37761Y136756D01*
X37412Y135000D01*
X37761Y133244D01*
X38756Y131756D01*
X40244Y130761D01*
X42000Y130412D01*
X43756Y130761D01*
X45244Y131756D01*
X46239Y133244D01*
X46588Y135000D01*
X46239Y136756D01*
X45244Y138244D01*
X43756Y139239D01*
X42000Y139588D01*
D02*
G37*
G36*
X11000D02*
X9244Y139239D01*
X7756Y138244D01*
X6761Y136756D01*
X6412Y135000D01*
X6761Y133244D01*
X7756Y131756D01*
X9244Y130761D01*
X11000Y130412D01*
X12756Y130761D01*
X14244Y131756D01*
X15239Y133244D01*
X15588Y135000D01*
X15239Y136756D01*
X14244Y138244D01*
X12756Y139239D01*
X11000Y139588D01*
D02*
G37*
G36*
X42000Y127588D02*
X40244Y127239D01*
X38756Y126244D01*
X37761Y124756D01*
X37412Y123000D01*
X37761Y121244D01*
X38756Y119756D01*
X40244Y118761D01*
X42000Y118412D01*
X43756Y118761D01*
X45244Y119756D01*
X46239Y121244D01*
X46588Y123000D01*
X46239Y124756D01*
X45244Y126244D01*
X43756Y127239D01*
X42000Y127588D01*
D02*
G37*
G36*
X11000D02*
X9244Y127239D01*
X7756Y126244D01*
X6761Y124756D01*
X6412Y123000D01*
X6761Y121244D01*
X7756Y119756D01*
X9244Y118761D01*
X11000Y118412D01*
X12756Y118761D01*
X14244Y119756D01*
X15239Y121244D01*
X15588Y123000D01*
X15239Y124756D01*
X14244Y126244D01*
X12756Y127239D01*
X11000Y127588D01*
D02*
G37*
G36*
X106000Y122059D02*
X104830Y121826D01*
X103837Y121163D01*
X103174Y120170D01*
X102941Y119000D01*
X103174Y117830D01*
X103837Y116837D01*
X104830Y116174D01*
X106000Y115941D01*
X107170Y116174D01*
X108163Y116837D01*
X108826Y117830D01*
X109059Y119000D01*
X108826Y120170D01*
X108163Y121163D01*
X107170Y121826D01*
X106000Y122059D01*
D02*
G37*
G36*
X79000Y105059D02*
X77829Y104826D01*
X76837Y104163D01*
X76174Y103170D01*
X75941Y102000D01*
X76174Y100829D01*
X76837Y99837D01*
X77829Y99174D01*
X79000Y98941D01*
X80170Y99174D01*
X81163Y99837D01*
X81826Y100829D01*
X82059Y102000D01*
X81826Y103170D01*
X81163Y104163D01*
X80170Y104826D01*
X79000Y105059D01*
D02*
G37*
G36*
X117650Y109556D02*
X115953Y109333D01*
X114372Y108678D01*
X113014Y107636D01*
X111972Y106278D01*
X111317Y104697D01*
X111094Y103000D01*
Y98839D01*
X109824Y98160D01*
X109353Y98474D01*
X107500Y98843D01*
X105647Y98474D01*
X104075Y97425D01*
X103026Y95853D01*
X102657Y94000D01*
X103026Y92147D01*
X104075Y90576D01*
X105647Y89526D01*
X107500Y89157D01*
X109353Y89526D01*
X110392Y90219D01*
X111893Y89913D01*
X111972Y89722D01*
X113014Y88364D01*
X114372Y87322D01*
X115953Y86667D01*
X117650Y86444D01*
X119347Y86667D01*
X120928Y87322D01*
X122286Y88364D01*
X123328Y89722D01*
X123983Y91303D01*
X124206Y93000D01*
Y103000D01*
X123983Y104697D01*
X123328Y106278D01*
X122286Y107636D01*
X120928Y108678D01*
X119347Y109333D01*
X117650Y109556D01*
D02*
G37*
G36*
X77000Y87443D02*
X75147Y87074D01*
X73576Y86025D01*
X72425D01*
X70853Y87074D01*
X69000Y87443D01*
X67147Y87074D01*
X65575Y86025D01*
X64526Y84453D01*
X64157Y82600D01*
X64526Y80747D01*
X65575Y79176D01*
X67147Y78126D01*
X69000Y77757D01*
X70853Y78126D01*
X72164Y79001D01*
X73000Y79104D01*
X73836Y79001D01*
X75147Y78126D01*
X77000Y77757D01*
X77085Y77774D01*
X77807Y76623D01*
X77026Y75453D01*
X76657Y73600D01*
X77026Y71747D01*
X78075Y70175D01*
X79647Y69126D01*
X81500Y68757D01*
X83353Y69126D01*
X84925Y70175D01*
X85974Y71747D01*
X86343Y73600D01*
X85974Y75453D01*
X84925Y77025D01*
X83353Y78074D01*
X81500Y78443D01*
X81415Y78426D01*
X80693Y79577D01*
X81474Y80747D01*
X81843Y82600D01*
X81474Y84453D01*
X80425Y86025D01*
X78853Y87074D01*
X77000Y87443D01*
D02*
G37*
G36*
X108250D02*
X101750D01*
X99897Y87074D01*
X98326Y86025D01*
X97276Y84453D01*
X96907Y82600D01*
X97276Y80747D01*
X98326Y79176D01*
X99897Y78126D01*
X101750Y77757D01*
X108250D01*
X110103Y78126D01*
X111675Y79176D01*
X112724Y80747D01*
X113093Y82600D01*
X112724Y84453D01*
X111675Y86025D01*
X110103Y87074D01*
X108250Y87443D01*
D02*
G37*
G36*
X44250D02*
X37750D01*
X35897Y87074D01*
X34325Y86025D01*
X33276Y84453D01*
X32907Y82600D01*
X33276Y80747D01*
X34325Y79176D01*
X35897Y78126D01*
X37750Y77757D01*
X44250D01*
X46103Y78126D01*
X47674Y79176D01*
X48724Y80747D01*
X49093Y82600D01*
X48724Y84453D01*
X47674Y86025D01*
X46103Y87074D01*
X44250Y87443D01*
D02*
G37*
G36*
X12250Y86156D02*
X10553Y85933D01*
X8972Y85278D01*
X7614Y84236D01*
X6572Y82878D01*
X5917Y81297D01*
X5694Y79600D01*
Y69600D01*
X5917Y67903D01*
X6572Y66322D01*
X7614Y64964D01*
X8972Y63922D01*
X10553Y63267D01*
X12250Y63044D01*
X13947Y63267D01*
X15528Y63922D01*
X16886Y64964D01*
X17928Y66322D01*
X18583Y67903D01*
X18806Y69600D01*
Y79600D01*
X18583Y81297D01*
X17928Y82878D01*
X16886Y84236D01*
X15528Y85278D01*
X13947Y85933D01*
X12250Y86156D01*
D02*
G37*
G36*
Y47556D02*
X10553Y47333D01*
X8972Y46678D01*
X7614Y45636D01*
X6572Y44278D01*
X5917Y42697D01*
X5694Y41000D01*
Y31000D01*
X5917Y29303D01*
X6572Y27722D01*
X7614Y26364D01*
X8972Y25322D01*
X10553Y24667D01*
X12250Y24444D01*
X13947Y24667D01*
X15528Y25322D01*
X16886Y26364D01*
X17928Y27722D01*
X18583Y29303D01*
X18806Y31000D01*
Y41000D01*
X18583Y42697D01*
X17928Y44278D01*
X16886Y45636D01*
X15528Y46678D01*
X13947Y47333D01*
X12250Y47556D01*
D02*
G37*
G36*
X256750Y169309D02*
X255579Y169076D01*
X254587Y168413D01*
X253924Y167421D01*
X253691Y166250D01*
X253924Y165079D01*
X254587Y164087D01*
X255579Y163424D01*
X256750Y163191D01*
X257920Y163424D01*
X258913Y164087D01*
X259576Y165079D01*
X259809Y166250D01*
X259576Y167421D01*
X258913Y168413D01*
X257920Y169076D01*
X256750Y169309D01*
D02*
G37*
G36*
X343000Y161588D02*
X341244Y161239D01*
X339756Y160244D01*
X338761Y158756D01*
X338412Y157000D01*
X338761Y155244D01*
X339756Y153756D01*
X341244Y152761D01*
X343000Y152412D01*
X344756Y152761D01*
X346244Y153756D01*
X347239Y155244D01*
X347588Y157000D01*
X347239Y158756D01*
X346244Y160244D01*
X344756Y161239D01*
X343000Y161588D01*
D02*
G37*
G36*
X327000Y160588D02*
X325244Y160239D01*
X323756Y159244D01*
X322761Y157756D01*
X322412Y156000D01*
X322761Y154244D01*
X323756Y152756D01*
X325244Y151761D01*
X327000Y151412D01*
X328756Y151761D01*
X330244Y152756D01*
X331239Y154244D01*
X331588Y156000D01*
X331239Y157756D01*
X330244Y159244D01*
X328756Y160239D01*
X327000Y160588D01*
D02*
G37*
G36*
X306204Y149309D02*
X305033Y149076D01*
X304041Y148413D01*
X303378Y147421D01*
X303145Y146250D01*
X303378Y145079D01*
X304041Y144087D01*
X305033Y143424D01*
X306204Y143191D01*
X307375Y143424D01*
X308367Y144087D01*
X309030Y145079D01*
X309263Y146250D01*
X309030Y147421D01*
X308367Y148413D01*
X307375Y149076D01*
X306204Y149309D01*
D02*
G37*
G36*
X386000Y149059D02*
X384829Y148826D01*
X383837Y148163D01*
X383174Y147170D01*
X382941Y146000D01*
X383174Y144829D01*
X383837Y143837D01*
X384829Y143174D01*
X386000Y142941D01*
X387170Y143174D01*
X388163Y143837D01*
X388826Y144829D01*
X389059Y146000D01*
X388826Y147170D01*
X388163Y148163D01*
X387170Y148826D01*
X386000Y149059D01*
D02*
G37*
G36*
X319000Y138059D02*
X317829Y137826D01*
X316837Y137163D01*
X316174Y136171D01*
X315941Y135000D01*
X316174Y133829D01*
X316837Y132837D01*
X317829Y132174D01*
X319000Y131941D01*
X320171Y132174D01*
X321163Y132837D01*
X321826Y133829D01*
X322059Y135000D01*
X321826Y136171D01*
X321163Y137163D01*
X320171Y137826D01*
X319000Y138059D01*
D02*
G37*
G36*
X433000Y134588D02*
X431244Y134239D01*
X429756Y133244D01*
X428761Y131756D01*
X428412Y130000D01*
X428761Y128244D01*
X429756Y126756D01*
X431244Y125761D01*
X433000Y125412D01*
X434756Y125761D01*
X436244Y126756D01*
X437239Y128244D01*
X437588Y130000D01*
X437239Y131756D01*
X436244Y133244D01*
X434756Y134239D01*
X433000Y134588D01*
D02*
G37*
G36*
X465000Y92588D02*
X463244Y92239D01*
X461756Y91244D01*
X460761Y89756D01*
X460412Y88000D01*
X460761Y86244D01*
X461756Y84756D01*
X463244Y83761D01*
X465000Y83412D01*
X466756Y83761D01*
X468244Y84756D01*
X469239Y86244D01*
X469588Y88000D01*
X469239Y89756D01*
X468244Y91244D01*
X466756Y92239D01*
X465000Y92588D01*
D02*
G37*
G36*
X418000Y92588D02*
X416244Y92239D01*
X414756Y91244D01*
X413761Y89756D01*
X413412Y88000D01*
X413761Y86244D01*
X414756Y84756D01*
X416244Y83761D01*
X418000Y83412D01*
X419756Y83761D01*
X421244Y84756D01*
X422239Y86244D01*
X422588Y88000D01*
X422239Y89756D01*
X421244Y91244D01*
X419756Y92239D01*
X418000Y92588D01*
D02*
G37*
G36*
X417000Y69500D02*
X395000D01*
Y47500D01*
X417000D01*
Y69500D01*
D02*
G37*
G36*
X336000Y69595D02*
X333128Y69217D01*
X330453Y68109D01*
X328155Y66345D01*
X326391Y64047D01*
X325283Y61372D01*
X324905Y58500D01*
X325283Y55628D01*
X326391Y52952D01*
X328155Y50655D01*
X330453Y48892D01*
X333128Y47783D01*
X336000Y47405D01*
X338872Y47783D01*
X341547Y48892D01*
X343845Y50655D01*
X345608Y52952D01*
X346717Y55628D01*
X347095Y58500D01*
X346717Y61372D01*
X345608Y64047D01*
X343845Y66345D01*
X341547Y68109D01*
X338872Y69217D01*
X336000Y69595D01*
D02*
G37*
G36*
X316000Y50588D02*
X314244Y50239D01*
X312756Y49244D01*
X311761Y47756D01*
X311412Y46000D01*
X311761Y44244D01*
X312756Y42756D01*
X314244Y41761D01*
X316000Y41412D01*
X317756Y41761D01*
X319244Y42756D01*
X320239Y44244D01*
X320588Y46000D01*
X320239Y47756D01*
X319244Y49244D01*
X317756Y50239D01*
X316000Y50588D01*
D02*
G37*
G36*
X393500Y40056D02*
X391803Y39833D01*
X390222Y39178D01*
X388864Y38136D01*
X387822Y36778D01*
X387167Y35197D01*
X386944Y33500D01*
X387167Y31803D01*
X387822Y30222D01*
X388864Y28864D01*
X390222Y27822D01*
X391803Y27167D01*
X393500Y26944D01*
X395197Y27167D01*
X396778Y27822D01*
X398136Y28864D01*
X399178Y30222D01*
X399833Y31803D01*
X400056Y33500D01*
X399833Y35197D01*
X399178Y36778D01*
X398136Y38136D01*
X396778Y39178D01*
X395197Y39833D01*
X393500Y40056D01*
D02*
G37*
G36*
X348500D02*
X346803Y39833D01*
X345222Y39178D01*
X343864Y38136D01*
X342822Y36778D01*
X342167Y35197D01*
X341944Y33500D01*
X342167Y31803D01*
X342822Y30222D01*
X343864Y28864D01*
X345222Y27822D01*
X346803Y27167D01*
X348500Y26944D01*
X350197Y27167D01*
X351778Y27822D01*
X353136Y28864D01*
X354178Y30222D01*
X354833Y31803D01*
X355056Y33500D01*
X354833Y35197D01*
X354178Y36778D01*
X353136Y38136D01*
X351778Y39178D01*
X350197Y39833D01*
X348500Y40056D01*
D02*
G37*
%LPD*%
D97*
X60000Y82600D02*
D03*
X86000D02*
D03*
D100*
X192000Y124100D02*
D03*
D103*
X478000Y305000D02*
D03*
D114*
X125000Y148000D02*
D03*
D115*
X109000Y149000D02*
D03*
X325000Y349000D02*
D03*
X310000Y325000D02*
D03*
X380000Y158000D02*
D03*
X289000Y150000D02*
D03*
X204000Y136000D02*
D03*
X194000Y143000D02*
D03*
X360000Y348000D02*
D03*
X235000Y338000D02*
D03*
X244000D02*
D03*
X110000Y330611D02*
D03*
X118000Y331000D02*
D03*
X369000Y149000D02*
D03*
X368000Y158000D02*
D03*
X229000Y156000D02*
D03*
X358000Y161000D02*
D03*
X20000Y115000D02*
D03*
X39000Y162000D02*
D03*
X485000Y131000D02*
D03*
Y158000D02*
D03*
X51000Y252000D02*
D03*
X76000D02*
D03*
X179000Y225000D02*
D03*
X203000Y226000D02*
D03*
X152000D02*
D03*
X235000Y182000D02*
D03*
X252000Y188300D02*
D03*
X370000Y249000D02*
D03*
M02*
