G04*
G04 #@! TF.GenerationSoftware,Altium Limited,Altium Designer,20.0.7 (75)*
G04*
G04 Layer_Physical_Order=3*
G04 Layer_Color=16440176*
%FSLAX44Y44*%
%MOMM*%
G71*
G01*
G75*
%ADD98O,1.0000X2.0000*%
%ADD99O,1.3000X0.6500*%
%ADD104C,1.3080*%
%ADD109R,2.0000X1.6000*%
%ADD111R,1.6000X2.0000*%
%ADD112C,7.4000*%
%ADD114C,0.3000*%
%ADD115C,0.6000*%
G36*
X495000Y320061D02*
X493804Y319633D01*
X493276Y320276D01*
X490003Y322963D01*
X486268Y324959D01*
X482215Y326189D01*
X478000Y326604D01*
X473785Y326189D01*
X469733Y324959D01*
X465998Y322963D01*
X462724Y320276D01*
X460037Y317003D01*
X458041Y313267D01*
X456811Y309215D01*
X456396Y305000D01*
X456811Y300785D01*
X458041Y296733D01*
X460037Y292997D01*
X462724Y289724D01*
X465998Y287037D01*
X469733Y285040D01*
X473785Y283811D01*
X478000Y283396D01*
X482215Y283811D01*
X486268Y285040D01*
X490003Y287037D01*
X493276Y289724D01*
X493804Y290367D01*
X495000Y289939D01*
Y202061D01*
X493804Y201633D01*
X493276Y202276D01*
X490003Y204963D01*
X486268Y206959D01*
X482215Y208189D01*
X478000Y208604D01*
X473785Y208189D01*
X469733Y206959D01*
X465998Y204963D01*
X462724Y202276D01*
X460037Y199002D01*
X458041Y195268D01*
X456811Y191215D01*
X456396Y187000D01*
X456811Y182785D01*
X458041Y178732D01*
X460037Y174998D01*
X462724Y171724D01*
X465998Y169037D01*
X469733Y167041D01*
X473785Y165811D01*
X478000Y165396D01*
X482215Y165811D01*
X486268Y167041D01*
X490003Y169037D01*
X493276Y171724D01*
X493804Y172367D01*
X495000Y171939D01*
Y5000D01*
X412000D01*
Y13000D01*
X397685Y27315D01*
X397768Y28582D01*
X398136Y28864D01*
X399178Y30222D01*
X399833Y31803D01*
X400056Y33500D01*
X399833Y35197D01*
X399178Y36778D01*
X398136Y38136D01*
X396778Y39178D01*
X395197Y39833D01*
X393500Y40056D01*
X391803Y39833D01*
X390222Y39178D01*
X388864Y38136D01*
X388582Y37768D01*
X387315Y37685D01*
X327500Y97500D01*
X328951Y98951D01*
Y151891D01*
X330244Y152756D01*
X331239Y154244D01*
X331588Y156000D01*
X331239Y157756D01*
X330244Y159244D01*
X328951Y160109D01*
Y160710D01*
X198710D01*
X154000Y116000D01*
X98000D01*
Y164000D01*
X86076D01*
X85244Y165244D01*
X83756Y166239D01*
X82000Y166588D01*
X80244Y166239D01*
X78756Y165244D01*
X77924Y164000D01*
X43076D01*
X42244Y165244D01*
X40756Y166239D01*
X39000Y166588D01*
X37244Y166239D01*
X35756Y165244D01*
X34924Y164000D01*
X3000D01*
Y397000D01*
X495000D01*
Y320061D01*
D02*
G37*
G36*
X86076Y158902D02*
X92902D01*
Y116000D01*
X93290Y114049D01*
X94395Y112395D01*
X96049Y111290D01*
X98000Y110902D01*
X147160D01*
X147760Y109632D01*
X145860Y107317D01*
X144144Y104106D01*
X143087Y100623D01*
X142731Y97000D01*
X143087Y93377D01*
X144144Y89894D01*
X145860Y86683D01*
X148169Y83869D01*
X150983Y81560D01*
X154194Y79844D01*
X157677Y78787D01*
X161300Y78431D01*
X164923Y78787D01*
X168406Y79844D01*
X171617Y81560D01*
X174431Y83869D01*
X176740Y86683D01*
X178456Y89894D01*
X179513Y93377D01*
X179869Y97000D01*
X179513Y100623D01*
X178456Y104106D01*
X176740Y107317D01*
X174431Y110131D01*
X171617Y112440D01*
X168406Y114156D01*
X164923Y115213D01*
X162461Y115455D01*
X161987Y116778D01*
X190183Y144974D01*
X191174Y144171D01*
X190941Y143000D01*
X191174Y141830D01*
X191837Y140837D01*
X192829Y140174D01*
X194000Y139941D01*
X195170Y140174D01*
X196163Y140837D01*
X196826Y141830D01*
X197059Y143000D01*
X196826Y144171D01*
X196163Y145163D01*
X195170Y145826D01*
X194000Y146059D01*
X192829Y145826D01*
X192026Y146817D01*
X200821Y155612D01*
X226018D01*
X226174Y154830D01*
X226837Y153837D01*
X227829Y153174D01*
X229000Y152941D01*
X230170Y153174D01*
X231163Y153837D01*
X231826Y154830D01*
X231982Y155612D01*
X322489D01*
X322761Y154244D01*
X323756Y152756D01*
X323951Y152625D01*
Y152384D01*
X323853Y151891D01*
Y101042D01*
X322790Y99451D01*
X322402Y97500D01*
X322790Y95549D01*
X323895Y93895D01*
X383710Y34080D01*
X383851Y33986D01*
X383954Y33852D01*
X384673Y33437D01*
X385364Y32975D01*
X385530Y32942D01*
X385676Y32858D01*
X386500Y32749D01*
X387057Y32638D01*
X387167Y31803D01*
X387822Y30222D01*
X388864Y28864D01*
X390222Y27822D01*
X391803Y27167D01*
X392639Y27057D01*
X392749Y26500D01*
X392858Y25676D01*
X392942Y25530D01*
X392975Y25364D01*
X393437Y24673D01*
X393852Y23953D01*
X393987Y23851D01*
X394080Y23710D01*
X406902Y10888D01*
Y5000D01*
X4000D01*
X3000Y6000D01*
Y158902D01*
X6431D01*
X6761Y157244D01*
X7756Y155756D01*
X9244Y154761D01*
X11000Y154412D01*
X12756Y154761D01*
X14244Y155756D01*
X15239Y157244D01*
X15569Y158902D01*
X34924D01*
X35417Y159000D01*
X35592D01*
X35756Y158756D01*
X37244Y157761D01*
X39000Y157412D01*
X40756Y157761D01*
X42030Y158612D01*
X42903Y158496D01*
X43691Y157405D01*
X43412Y156000D01*
X43761Y154244D01*
X44756Y152756D01*
X46244Y151761D01*
X48000Y151412D01*
X49756Y151761D01*
X51244Y152756D01*
X52239Y154244D01*
X52588Y156000D01*
X52263Y157632D01*
X52325Y157976D01*
X52820Y158902D01*
X77924D01*
X78417Y159000D01*
X78592D01*
X78756Y158756D01*
X80244Y157761D01*
X82000Y157412D01*
X83756Y157761D01*
X85244Y158756D01*
X85408Y159000D01*
X85583D01*
X86076Y158902D01*
D02*
G37*
%LPC*%
G36*
X65000Y365588D02*
X63244Y365239D01*
X61756Y364244D01*
X60761Y362756D01*
X60412Y361000D01*
X60761Y359244D01*
X61756Y357756D01*
X63244Y356761D01*
X65000Y356412D01*
X66756Y356761D01*
X68244Y357756D01*
X69239Y359244D01*
X69588Y361000D01*
X69239Y362756D01*
X68244Y364244D01*
X66756Y365239D01*
X65000Y365588D01*
D02*
G37*
G36*
X325000Y352059D02*
X323829Y351826D01*
X322837Y351163D01*
X322174Y350171D01*
X322093Y349763D01*
X320745Y349495D01*
X320244Y350244D01*
X318756Y351239D01*
X317000Y351588D01*
X315244Y351239D01*
X313756Y350244D01*
X312761Y348756D01*
X312412Y347000D01*
X312761Y345244D01*
X313756Y343756D01*
X315244Y342761D01*
X317000Y342412D01*
X318756Y342761D01*
X320244Y343756D01*
X321239Y345244D01*
X321499Y346553D01*
X322808Y346880D01*
X322837Y346837D01*
X323829Y346174D01*
X325000Y345941D01*
X326171Y346174D01*
X327163Y346837D01*
X327826Y347830D01*
X328059Y349000D01*
X327826Y350171D01*
X327163Y351163D01*
X326171Y351826D01*
X325000Y352059D01*
D02*
G37*
G36*
X9000Y358588D02*
X7244Y358239D01*
X5756Y357244D01*
X4761Y355756D01*
X4412Y354000D01*
X4761Y352244D01*
X5756Y350756D01*
X7244Y349761D01*
X9000Y349412D01*
X10756Y349761D01*
X12244Y350756D01*
X13239Y352244D01*
X13588Y354000D01*
X13239Y355756D01*
X12244Y357244D01*
X10756Y358239D01*
X9000Y358588D01*
D02*
G37*
G36*
X360000Y351059D02*
X358829Y350826D01*
X357837Y350163D01*
X357174Y349170D01*
X356941Y348000D01*
X357174Y346829D01*
X357837Y345837D01*
X358829Y345174D01*
X360000Y344941D01*
X361171Y345174D01*
X362163Y345837D01*
X362826Y346829D01*
X363059Y348000D01*
X362826Y349170D01*
X362163Y350163D01*
X361171Y350826D01*
X360000Y351059D01*
D02*
G37*
G36*
X350000Y351588D02*
X348244Y351239D01*
X346756Y350244D01*
X345761Y348756D01*
X345412Y347000D01*
X345761Y345244D01*
X346756Y343756D01*
X348244Y342761D01*
X350000Y342412D01*
X351756Y342761D01*
X353244Y343756D01*
X354239Y345244D01*
X354588Y347000D01*
X354239Y348756D01*
X353244Y350244D01*
X351756Y351239D01*
X350000Y351588D01*
D02*
G37*
G36*
X244000Y341059D02*
X242829Y340826D01*
X241837Y340163D01*
X241174Y339170D01*
X240941Y338000D01*
X241174Y336829D01*
X241837Y335837D01*
X242829Y335174D01*
X244000Y334941D01*
X245170Y335174D01*
X246163Y335837D01*
X246826Y336829D01*
X247059Y338000D01*
X246826Y339170D01*
X246163Y340163D01*
X245170Y340826D01*
X244000Y341059D01*
D02*
G37*
G36*
X235000D02*
X233829Y340826D01*
X232837Y340163D01*
X232174Y339170D01*
X231941Y338000D01*
X232174Y336829D01*
X232837Y335837D01*
X233829Y335174D01*
X235000Y334941D01*
X236171Y335174D01*
X237163Y335837D01*
X237826Y336829D01*
X238059Y338000D01*
X237826Y339170D01*
X237163Y340163D01*
X236171Y340826D01*
X235000Y341059D01*
D02*
G37*
G36*
X118000Y334059D02*
X116830Y333826D01*
X115837Y333163D01*
X115174Y332170D01*
X114941Y331000D01*
X115174Y329829D01*
X115837Y328837D01*
X116830Y328174D01*
X118000Y327941D01*
X119171Y328174D01*
X120163Y328837D01*
X120826Y329829D01*
X121059Y331000D01*
X120826Y332170D01*
X120163Y333163D01*
X119171Y333826D01*
X118000Y334059D01*
D02*
G37*
G36*
X110000Y333670D02*
X108829Y333437D01*
X107837Y332774D01*
X107174Y331782D01*
X106941Y330611D01*
X107174Y329441D01*
X107837Y328448D01*
X108829Y327785D01*
X110000Y327552D01*
X111171Y327785D01*
X112163Y328448D01*
X112826Y329441D01*
X113059Y330611D01*
X112826Y331782D01*
X112163Y332774D01*
X111171Y333437D01*
X110000Y333670D01*
D02*
G37*
G36*
X332000Y329588D02*
X330244Y329239D01*
X328756Y328244D01*
X327761Y326756D01*
X327648Y326185D01*
X326353D01*
X326239Y326756D01*
X325244Y328244D01*
X323756Y329239D01*
X322000Y329588D01*
X320244Y329239D01*
X318756Y328244D01*
X317761Y326756D01*
X317412Y325000D01*
X317761Y323244D01*
X318756Y321756D01*
X320244Y320761D01*
X322000Y320412D01*
X323756Y320761D01*
X325244Y321756D01*
X326239Y323244D01*
X326353Y323815D01*
X327648D01*
X327761Y323244D01*
X328756Y321756D01*
X330244Y320761D01*
X332000Y320412D01*
X333756Y320761D01*
X335244Y321756D01*
X336239Y323244D01*
X336588Y325000D01*
X336239Y326756D01*
X335244Y328244D01*
X333756Y329239D01*
X332000Y329588D01*
D02*
G37*
G36*
X350000Y333088D02*
X348244Y332739D01*
X346756Y331744D01*
X345761Y330256D01*
X345412Y328500D01*
X345761Y326744D01*
X346756Y325256D01*
X348244Y324261D01*
X350000Y323912D01*
X351756Y324261D01*
X353244Y325256D01*
X354239Y326744D01*
X354588Y328500D01*
X354239Y330256D01*
X353244Y331744D01*
X351756Y332739D01*
X350000Y333088D01*
D02*
G37*
G36*
X310000Y328059D02*
X308829Y327826D01*
X307837Y327163D01*
X307174Y326171D01*
X306941Y325000D01*
X307174Y323829D01*
X307837Y322837D01*
X308829Y322174D01*
X310000Y321941D01*
X311171Y322174D01*
X312163Y322837D01*
X312826Y323829D01*
X313059Y325000D01*
X312826Y326171D01*
X312163Y327163D01*
X311171Y327826D01*
X310000Y328059D01*
D02*
G37*
G36*
X339000Y320588D02*
X337244Y320239D01*
X335756Y319244D01*
X334761Y317756D01*
X334412Y316000D01*
X334761Y314244D01*
X335756Y312756D01*
X337244Y311761D01*
X339000Y311412D01*
X340756Y311761D01*
X342244Y312756D01*
X343239Y314244D01*
X343588Y316000D01*
X343239Y317756D01*
X342244Y319244D01*
X340756Y320239D01*
X339000Y320588D01*
D02*
G37*
G36*
X313000Y313588D02*
X311244Y313239D01*
X309756Y312244D01*
X308761Y310756D01*
X308412Y309000D01*
X308761Y307244D01*
X309756Y305756D01*
X311244Y304761D01*
X313000Y304412D01*
X314756Y304761D01*
X316244Y305756D01*
X317239Y307244D01*
X317588Y309000D01*
X317239Y310756D01*
X316244Y312244D01*
X314756Y313239D01*
X313000Y313588D01*
D02*
G37*
G36*
X282000Y297059D02*
X280830Y296826D01*
X279837Y296163D01*
X279174Y295170D01*
X278941Y294000D01*
X279174Y292829D01*
X279837Y291837D01*
X280830Y291174D01*
X282000Y290941D01*
X283171Y291174D01*
X284163Y291837D01*
X284826Y292829D01*
X285059Y294000D01*
X284826Y295170D01*
X284163Y296163D01*
X283171Y296826D01*
X282000Y297059D01*
D02*
G37*
G36*
X310000Y298588D02*
X308244Y298239D01*
X306756Y297244D01*
X305761Y295756D01*
X305412Y294000D01*
X305761Y292244D01*
X306756Y290756D01*
X308244Y289761D01*
X310000Y289412D01*
X311756Y289761D01*
X313244Y290756D01*
X314239Y292244D01*
X314588Y294000D01*
X314239Y295756D01*
X313244Y297244D01*
X311756Y298239D01*
X310000Y298588D01*
D02*
G37*
G36*
X103000Y295588D02*
X101244Y295239D01*
X99756Y294244D01*
X98761Y292756D01*
X98412Y291000D01*
X98761Y289244D01*
X99756Y287756D01*
X101244Y286761D01*
X103000Y286412D01*
X104756Y286761D01*
X106244Y287756D01*
X107239Y289244D01*
X107588Y291000D01*
X107239Y292756D01*
X106244Y294244D01*
X104756Y295239D01*
X103000Y295588D01*
D02*
G37*
G36*
X237000Y290588D02*
X235244Y290239D01*
X233756Y289244D01*
X232761Y287756D01*
X232412Y286000D01*
X232761Y284244D01*
X233756Y282756D01*
X235244Y281761D01*
X237000Y281412D01*
X238756Y281761D01*
X240244Y282756D01*
X241239Y284244D01*
X241588Y286000D01*
X241239Y287756D01*
X240244Y289244D01*
X238756Y290239D01*
X237000Y290588D01*
D02*
G37*
G36*
X403000Y277088D02*
X401244Y276739D01*
X399756Y275744D01*
X398761Y274256D01*
X398412Y272500D01*
X398761Y270744D01*
X399756Y269256D01*
X401244Y268261D01*
X403000Y267912D01*
X404756Y268261D01*
X406244Y269256D01*
X407239Y270744D01*
X407588Y272500D01*
X407239Y274256D01*
X406244Y275744D01*
X404756Y276739D01*
X403000Y277088D01*
D02*
G37*
G36*
X164000Y268588D02*
X162244Y268239D01*
X160756Y267244D01*
X159761Y265756D01*
X159412Y264000D01*
X159761Y262244D01*
X160756Y260756D01*
X162244Y259761D01*
X164000Y259412D01*
X165756Y259761D01*
X167244Y260756D01*
X168239Y262244D01*
X168588Y264000D01*
X168239Y265756D01*
X167244Y267244D01*
X165756Y268239D01*
X164000Y268588D01*
D02*
G37*
G36*
X229000Y266588D02*
X227244Y266239D01*
X225756Y265244D01*
X224761Y263756D01*
X224412Y262000D01*
X224761Y260244D01*
X225756Y258756D01*
X227244Y257761D01*
X229000Y257412D01*
X230756Y257761D01*
X232244Y258756D01*
X233239Y260244D01*
X233588Y262000D01*
X233239Y263756D01*
X232244Y265244D01*
X230756Y266239D01*
X229000Y266588D01*
D02*
G37*
G36*
X196000D02*
X194244Y266239D01*
X192756Y265244D01*
X191761Y263756D01*
X191412Y262000D01*
X191761Y260244D01*
X192756Y258756D01*
X194244Y257761D01*
X196000Y257412D01*
X197756Y257761D01*
X199244Y258756D01*
X200239Y260244D01*
X200588Y262000D01*
X200239Y263756D01*
X199244Y265244D01*
X197756Y266239D01*
X196000Y266588D01*
D02*
G37*
G36*
X278000Y269588D02*
X276244Y269239D01*
X274756Y268244D01*
X273761Y266756D01*
X273412Y265000D01*
X273761Y263244D01*
X274756Y261756D01*
X276244Y260761D01*
X276816Y260647D01*
Y259353D01*
X276244Y259239D01*
X274756Y258244D01*
X273761Y256756D01*
X273412Y255000D01*
X273761Y253244D01*
X274756Y251756D01*
X276244Y250761D01*
X278000Y250412D01*
X279756Y250761D01*
X281244Y251756D01*
X282239Y253244D01*
X282588Y255000D01*
X282239Y256756D01*
X281244Y258244D01*
X279756Y259239D01*
X279184Y259353D01*
Y260647D01*
X279756Y260761D01*
X281244Y261756D01*
X282239Y263244D01*
X282588Y265000D01*
X282239Y266756D01*
X281244Y268244D01*
X279756Y269239D01*
X278000Y269588D01*
D02*
G37*
G36*
X76000Y256588D02*
X74244Y256239D01*
X72756Y255244D01*
X71761Y253756D01*
X71412Y252000D01*
X71761Y250244D01*
X72756Y248756D01*
X74244Y247761D01*
X76000Y247412D01*
X77756Y247761D01*
X79244Y248756D01*
X80239Y250244D01*
X80588Y252000D01*
X80239Y253756D01*
X79244Y255244D01*
X77756Y256239D01*
X76000Y256588D01*
D02*
G37*
G36*
X51000D02*
X49244Y256239D01*
X47756Y255244D01*
X46761Y253756D01*
X46412Y252000D01*
X46761Y250244D01*
X47756Y248756D01*
X49244Y247761D01*
X51000Y247412D01*
X52756Y247761D01*
X54244Y248756D01*
X55239Y250244D01*
X55588Y252000D01*
X55239Y253756D01*
X54244Y255244D01*
X52756Y256239D01*
X51000Y256588D01*
D02*
G37*
G36*
X370000Y252059D02*
X368829Y251826D01*
X367837Y251163D01*
X367174Y250170D01*
X366941Y249000D01*
X367174Y247829D01*
X367837Y246837D01*
X368829Y246174D01*
X370000Y245941D01*
X371171Y246174D01*
X372163Y246837D01*
X372826Y247829D01*
X373059Y249000D01*
X372826Y250170D01*
X372163Y251163D01*
X371171Y251826D01*
X370000Y252059D01*
D02*
G37*
G36*
X250000Y254588D02*
X248244Y254239D01*
X246756Y253244D01*
X245761Y251756D01*
X245412Y250000D01*
X245761Y248244D01*
X246756Y246756D01*
X248244Y245761D01*
X250000Y245412D01*
X251756Y245761D01*
X253244Y246756D01*
X254239Y248244D01*
X254588Y250000D01*
X254239Y251756D01*
X253244Y253244D01*
X251756Y254239D01*
X250000Y254588D01*
D02*
G37*
G36*
X359000Y251588D02*
X357244Y251239D01*
X355756Y250244D01*
X354761Y248756D01*
X354412Y247000D01*
X354761Y245244D01*
X355756Y243756D01*
X357244Y242761D01*
X359000Y242412D01*
X360756Y242761D01*
X362244Y243756D01*
X363239Y245244D01*
X363588Y247000D01*
X363239Y248756D01*
X362244Y250244D01*
X360756Y251239D01*
X359000Y251588D01*
D02*
G37*
G36*
X222899Y248059D02*
X221729Y247826D01*
X220737Y247163D01*
X220074Y246171D01*
X219841Y245000D01*
X220074Y243829D01*
X220737Y242837D01*
X221729Y242174D01*
X222899Y241941D01*
X224070Y242174D01*
X225062Y242837D01*
X225725Y243829D01*
X225958Y245000D01*
X225725Y246171D01*
X225062Y247163D01*
X224070Y247826D01*
X222899Y248059D01*
D02*
G37*
G36*
X214000D02*
X212829Y247826D01*
X211837Y247163D01*
X211174Y246171D01*
X210941Y245000D01*
X211174Y243829D01*
X211837Y242837D01*
X212829Y242174D01*
X214000Y241941D01*
X215170Y242174D01*
X216163Y242837D01*
X216826Y243829D01*
X217059Y245000D01*
X216826Y246171D01*
X216163Y247163D01*
X215170Y247826D01*
X214000Y248059D01*
D02*
G37*
G36*
X409000Y254309D02*
X406901Y254033D01*
X404945Y253223D01*
X403266Y251934D01*
X401977Y250255D01*
X401167Y248299D01*
X400891Y246200D01*
X401167Y244101D01*
X401977Y242145D01*
X403266Y240466D01*
X404945Y239177D01*
X406901Y238367D01*
X409000Y238091D01*
X411099Y238367D01*
X413055Y239177D01*
X414734Y240466D01*
X416023Y242145D01*
X416833Y244101D01*
X417109Y246200D01*
X416833Y248299D01*
X416023Y250255D01*
X414734Y251934D01*
X413055Y253223D01*
X411099Y254033D01*
X409000Y254309D01*
D02*
G37*
G36*
X470000Y263585D02*
X466569Y263247D01*
X463271Y262246D01*
X460230Y260621D01*
X457566Y258434D01*
X455379Y255770D01*
X453754Y252729D01*
X452753Y249431D01*
X452415Y246000D01*
X452753Y242569D01*
X453754Y239271D01*
X455379Y236231D01*
X457566Y233566D01*
X460230Y231379D01*
X463271Y229754D01*
X466569Y228753D01*
X470000Y228415D01*
X473431Y228753D01*
X476729Y229754D01*
X479770Y231379D01*
X482434Y233566D01*
X484621Y236231D01*
X486246Y239271D01*
X487247Y242569D01*
X487585Y246000D01*
X487247Y249431D01*
X486246Y252729D01*
X484621Y255770D01*
X482434Y258434D01*
X479770Y260621D01*
X476729Y262246D01*
X473431Y263247D01*
X470000Y263585D01*
D02*
G37*
G36*
X71000Y231588D02*
X69244Y231239D01*
X67756Y230244D01*
X66761Y228756D01*
X66412Y227000D01*
X66761Y225244D01*
X67756Y223756D01*
X69244Y222761D01*
X71000Y222412D01*
X72756Y222761D01*
X74244Y223756D01*
X75239Y225244D01*
X75588Y227000D01*
X75239Y228756D01*
X74244Y230244D01*
X72756Y231239D01*
X71000Y231588D01*
D02*
G37*
G36*
X203000Y230588D02*
X201244Y230239D01*
X199756Y229244D01*
X198761Y227756D01*
X198412Y226000D01*
X198761Y224244D01*
X199756Y222756D01*
X201244Y221761D01*
X203000Y221412D01*
X204756Y221761D01*
X206244Y222756D01*
X207239Y224244D01*
X207588Y226000D01*
X207239Y227756D01*
X206244Y229244D01*
X204756Y230239D01*
X203000Y230588D01*
D02*
G37*
G36*
X152000D02*
X150244Y230239D01*
X148756Y229244D01*
X147761Y227756D01*
X147412Y226000D01*
X147761Y224244D01*
X148756Y222756D01*
X150244Y221761D01*
X152000Y221412D01*
X153756Y221761D01*
X155244Y222756D01*
X156239Y224244D01*
X156588Y226000D01*
X156239Y227756D01*
X155244Y229244D01*
X153756Y230239D01*
X152000Y230588D01*
D02*
G37*
G36*
X179000Y229588D02*
X177244Y229239D01*
X175756Y228244D01*
X174761Y226756D01*
X174412Y225000D01*
X174761Y223244D01*
X175756Y221756D01*
X177244Y220761D01*
X179000Y220412D01*
X180756Y220761D01*
X182244Y221756D01*
X183239Y223244D01*
X183588Y225000D01*
X183239Y226756D01*
X182244Y228244D01*
X180756Y229239D01*
X179000Y229588D01*
D02*
G37*
G36*
X280000Y219059D02*
X278829Y218826D01*
X277837Y218163D01*
X277174Y217171D01*
X276941Y216000D01*
X277174Y214830D01*
X277837Y213837D01*
X278829Y213174D01*
X280000Y212941D01*
X281171Y213174D01*
X282163Y213837D01*
X282826Y214830D01*
X283059Y216000D01*
X282826Y217171D01*
X282163Y218163D01*
X281171Y218826D01*
X280000Y219059D01*
D02*
G37*
G36*
X329000Y216588D02*
X327244Y216239D01*
X325756Y215244D01*
X324761Y213756D01*
X324412Y212000D01*
X324761Y210244D01*
X325385Y209310D01*
X325072Y208778D01*
X324546Y208281D01*
X323000Y208588D01*
X321244Y208239D01*
X319756Y207244D01*
X318761Y205756D01*
X318412Y204000D01*
X318761Y202244D01*
X319756Y200756D01*
X321244Y199761D01*
X323000Y199412D01*
X324756Y199761D01*
X326244Y200756D01*
X327239Y202244D01*
X327588Y204000D01*
X327239Y205756D01*
X326615Y206690D01*
X326928Y207222D01*
X327454Y207719D01*
X329000Y207412D01*
X330756Y207761D01*
X332244Y208756D01*
X333239Y210244D01*
X333588Y212000D01*
X333239Y213756D01*
X332244Y215244D01*
X330756Y216239D01*
X329000Y216588D01*
D02*
G37*
G36*
X120000Y226582D02*
X116000D01*
X113520Y226255D01*
X111209Y225298D01*
X109225Y223775D01*
X107702Y221791D01*
X106744Y219480D01*
X106418Y217000D01*
X106744Y214520D01*
X107702Y212209D01*
X109225Y210224D01*
X111209Y208702D01*
X113520Y207745D01*
X116000Y207418D01*
X120000D01*
X122480Y207745D01*
X124791Y208702D01*
X126776Y210224D01*
X128298Y212209D01*
X129256Y214520D01*
X129582Y217000D01*
X129256Y219480D01*
X128298Y221791D01*
X126776Y223775D01*
X124791Y225298D01*
X122480Y226255D01*
X120000Y226582D01*
D02*
G37*
G36*
X264000Y208059D02*
X262829Y207826D01*
X261837Y207163D01*
X261174Y206171D01*
X260941Y205000D01*
X261174Y203829D01*
X261837Y202837D01*
X262829Y202174D01*
X264000Y201941D01*
X265170Y202174D01*
X266163Y202837D01*
X266826Y203829D01*
X267059Y205000D01*
X266826Y206171D01*
X266163Y207163D01*
X265170Y207826D01*
X264000Y208059D01*
D02*
G37*
G36*
X350000Y210588D02*
X348244Y210239D01*
X346756Y209244D01*
X345761Y207756D01*
X345412Y206000D01*
X345761Y204244D01*
X346756Y202756D01*
X348244Y201761D01*
X350000Y201412D01*
X351756Y201761D01*
X353244Y202756D01*
X354239Y204244D01*
X354588Y206000D01*
X354239Y207756D01*
X353244Y209244D01*
X351756Y210239D01*
X350000Y210588D01*
D02*
G37*
G36*
X283000Y202059D02*
X281829Y201826D01*
X280837Y201163D01*
X280174Y200170D01*
X279941Y199000D01*
X280174Y197829D01*
X280837Y196837D01*
X281829Y196174D01*
X283000Y195941D01*
X284170Y196174D01*
X285163Y196837D01*
X285826Y197829D01*
X286059Y199000D01*
X285826Y200170D01*
X285163Y201163D01*
X284170Y201826D01*
X283000Y202059D01*
D02*
G37*
G36*
X252000Y192888D02*
X250244Y192539D01*
X248756Y191544D01*
X247761Y190056D01*
X247412Y188300D01*
X247761Y186544D01*
X248756Y185056D01*
X250244Y184061D01*
X252000Y183712D01*
X253756Y184061D01*
X255244Y185056D01*
X256239Y186544D01*
X256588Y188300D01*
X256239Y190056D01*
X255244Y191544D01*
X253756Y192539D01*
X252000Y192888D01*
D02*
G37*
G36*
X120000Y201182D02*
X116000D01*
X113520Y200856D01*
X111209Y199898D01*
X109225Y198375D01*
X107702Y196391D01*
X106744Y194080D01*
X106418Y191600D01*
X106744Y189120D01*
X107702Y186809D01*
X109225Y184825D01*
X111209Y183302D01*
X113520Y182344D01*
X116000Y182018D01*
X120000D01*
X122480Y182344D01*
X124791Y183302D01*
X126776Y184825D01*
X128298Y186809D01*
X129256Y189120D01*
X129582Y191600D01*
X129256Y194080D01*
X128298Y196391D01*
X126776Y198375D01*
X124791Y199898D01*
X122480Y200856D01*
X120000Y201182D01*
D02*
G37*
G36*
X284000Y188059D02*
X282829Y187826D01*
X281837Y187163D01*
X281174Y186171D01*
X280941Y185000D01*
X281174Y183829D01*
X281837Y182837D01*
X282829Y182174D01*
X284000Y181941D01*
X285170Y182174D01*
X286163Y182837D01*
X286826Y183829D01*
X287059Y185000D01*
X286826Y186171D01*
X286163Y187163D01*
X285170Y187826D01*
X284000Y188059D01*
D02*
G37*
G36*
X410000Y188588D02*
X408244Y188239D01*
X406756Y187244D01*
X405761Y185756D01*
X405412Y184000D01*
X405761Y182244D01*
X406756Y180756D01*
X408244Y179761D01*
X410000Y179412D01*
X411756Y179761D01*
X413244Y180756D01*
X414239Y182244D01*
X414588Y184000D01*
X414239Y185756D01*
X413244Y187244D01*
X411756Y188239D01*
X410000Y188588D01*
D02*
G37*
G36*
X235000Y186588D02*
X233244Y186239D01*
X231756Y185244D01*
X230761Y183756D01*
X230412Y182000D01*
X230761Y180244D01*
X231756Y178756D01*
X233244Y177761D01*
X235000Y177412D01*
X236756Y177761D01*
X238244Y178756D01*
X239239Y180244D01*
X239588Y182000D01*
X239239Y183756D01*
X238244Y185244D01*
X236756Y186239D01*
X235000Y186588D01*
D02*
G37*
G36*
X64000Y181588D02*
X62244Y181239D01*
X60756Y180244D01*
X59761Y178756D01*
X59412Y177000D01*
X59761Y175244D01*
X60756Y173756D01*
X62244Y172761D01*
X64000Y172412D01*
X65756Y172761D01*
X67244Y173756D01*
X68239Y175244D01*
X68588Y177000D01*
X68239Y178756D01*
X67244Y180244D01*
X65756Y181239D01*
X64000Y181588D01*
D02*
G37*
G36*
X312000Y174588D02*
X310244Y174239D01*
X308756Y173244D01*
X307761Y171756D01*
X307412Y170000D01*
X307761Y168244D01*
X308756Y166756D01*
X310244Y165761D01*
X312000Y165412D01*
X313756Y165761D01*
X315244Y166756D01*
X316239Y168244D01*
X316588Y170000D01*
X316239Y171756D01*
X315244Y173244D01*
X313756Y174239D01*
X312000Y174588D01*
D02*
G37*
G36*
X256750Y169309D02*
X255579Y169076D01*
X254587Y168413D01*
X253924Y167421D01*
X253691Y166250D01*
X253924Y165079D01*
X254587Y164087D01*
X255579Y163424D01*
X256750Y163191D01*
X257920Y163424D01*
X258913Y164087D01*
X259576Y165079D01*
X259809Y166250D01*
X259576Y167421D01*
X258913Y168413D01*
X257920Y169076D01*
X256750Y169309D01*
D02*
G37*
G36*
X358000Y164059D02*
X356829Y163826D01*
X355837Y163163D01*
X355174Y162171D01*
X354941Y161000D01*
X355174Y159830D01*
X355837Y158837D01*
X356829Y158174D01*
X358000Y157941D01*
X359170Y158174D01*
X360163Y158837D01*
X360826Y159830D01*
X361059Y161000D01*
X360826Y162171D01*
X360163Y163163D01*
X359170Y163826D01*
X358000Y164059D01*
D02*
G37*
G36*
X380000Y162588D02*
X378244Y162239D01*
X376756Y161244D01*
X375761Y159756D01*
X375412Y158000D01*
X375761Y156244D01*
X376756Y154756D01*
X378244Y153761D01*
X380000Y153412D01*
X381756Y153761D01*
X383244Y154756D01*
X384239Y156244D01*
X384588Y158000D01*
X384239Y159756D01*
X383244Y161244D01*
X381756Y162239D01*
X380000Y162588D01*
D02*
G37*
G36*
X368000D02*
X366244Y162239D01*
X364756Y161244D01*
X363761Y159756D01*
X363412Y158000D01*
X363761Y156244D01*
X364756Y154756D01*
X366244Y153761D01*
X368000Y153412D01*
X369756Y153761D01*
X371244Y154756D01*
X372239Y156244D01*
X372588Y158000D01*
X372239Y159756D01*
X371244Y161244D01*
X369756Y162239D01*
X368000Y162588D01*
D02*
G37*
G36*
X343000Y161588D02*
X341244Y161239D01*
X339756Y160244D01*
X338761Y158756D01*
X338412Y157000D01*
X338761Y155244D01*
X339756Y153756D01*
X341244Y152761D01*
X343000Y152412D01*
X344756Y152761D01*
X346244Y153756D01*
X347239Y155244D01*
X347588Y157000D01*
X347239Y158756D01*
X346244Y160244D01*
X344756Y161239D01*
X343000Y161588D01*
D02*
G37*
G36*
X369000Y152059D02*
X367830Y151826D01*
X366837Y151163D01*
X366174Y150170D01*
X365941Y149000D01*
X366174Y147830D01*
X366837Y146837D01*
X367830Y146174D01*
X369000Y145941D01*
X370171Y146174D01*
X371163Y146837D01*
X371826Y147830D01*
X372059Y149000D01*
X371826Y150170D01*
X371163Y151163D01*
X370171Y151826D01*
X369000Y152059D01*
D02*
G37*
G36*
X109000D02*
X107830Y151826D01*
X106837Y151163D01*
X106174Y150170D01*
X105941Y149000D01*
X106174Y147830D01*
X106837Y146837D01*
X107830Y146174D01*
X109000Y145941D01*
X110170Y146174D01*
X111163Y146837D01*
X111826Y147830D01*
X112059Y149000D01*
X111826Y150170D01*
X111163Y151163D01*
X110170Y151826D01*
X109000Y152059D01*
D02*
G37*
G36*
X125000Y151059D02*
X123829Y150826D01*
X122837Y150163D01*
X122174Y149171D01*
X121941Y148000D01*
X122174Y146830D01*
X122837Y145837D01*
X123829Y145174D01*
X125000Y144941D01*
X126171Y145174D01*
X127163Y145837D01*
X127826Y146830D01*
X128059Y148000D01*
X127826Y149171D01*
X127163Y150163D01*
X126171Y150826D01*
X125000Y151059D01*
D02*
G37*
G36*
X485000Y162588D02*
X483244Y162239D01*
X481756Y161244D01*
X480761Y159756D01*
X480412Y158000D01*
X480761Y156244D01*
X481756Y154756D01*
X482711Y154117D01*
X482803Y152662D01*
X482798Y152648D01*
X482193Y152244D01*
X481199Y150756D01*
X480849Y149000D01*
X481199Y147244D01*
X482193Y145756D01*
X483682Y144761D01*
X485438Y144412D01*
X487193Y144761D01*
X488682Y145756D01*
X489676Y147244D01*
X490026Y149000D01*
X489676Y150756D01*
X488682Y152244D01*
X487727Y152882D01*
X487634Y154338D01*
X487640Y154352D01*
X488244Y154756D01*
X489239Y156244D01*
X489588Y158000D01*
X489239Y159756D01*
X488244Y161244D01*
X486756Y162239D01*
X485000Y162588D01*
D02*
G37*
G36*
X464000Y148588D02*
X462244Y148239D01*
X460756Y147244D01*
X459761Y145756D01*
X459412Y144000D01*
X459761Y142244D01*
X460756Y140756D01*
X462244Y139761D01*
X464000Y139412D01*
X465756Y139761D01*
X467244Y140756D01*
X468239Y142244D01*
X468588Y144000D01*
X468239Y145756D01*
X467244Y147244D01*
X465756Y148239D01*
X464000Y148588D01*
D02*
G37*
G36*
X485000Y135588D02*
X483244Y135239D01*
X481756Y134244D01*
X480761Y132756D01*
X480412Y131000D01*
X480761Y129244D01*
X481756Y127756D01*
X483244Y126761D01*
X485000Y126412D01*
X486756Y126761D01*
X488244Y127756D01*
X489239Y129244D01*
X489588Y131000D01*
X489239Y132756D01*
X488244Y134244D01*
X486756Y135239D01*
X485000Y135588D01*
D02*
G37*
G36*
X433000Y134588D02*
X431244Y134239D01*
X429756Y133244D01*
X428761Y131756D01*
X428412Y130000D01*
X428761Y128244D01*
X429756Y126756D01*
X431244Y125761D01*
X433000Y125412D01*
X434756Y125761D01*
X436244Y126756D01*
X437239Y128244D01*
X437588Y130000D01*
X437239Y131756D01*
X436244Y133244D01*
X434756Y134239D01*
X433000Y134588D01*
D02*
G37*
G36*
X391400Y119582D02*
X388920Y119256D01*
X386609Y118298D01*
X384625Y116776D01*
X383102Y114791D01*
X382145Y112480D01*
X381818Y110000D01*
Y106000D01*
X382145Y103520D01*
X383102Y101209D01*
X384625Y99225D01*
X386609Y97702D01*
X388920Y96744D01*
X391400Y96418D01*
X393880Y96744D01*
X396191Y97702D01*
X398176Y99225D01*
X399698Y101209D01*
X400656Y103520D01*
X400982Y106000D01*
Y110000D01*
X400656Y112480D01*
X399698Y114791D01*
X398176Y116776D01*
X396191Y118298D01*
X393880Y119256D01*
X391400Y119582D01*
D02*
G37*
G36*
X366000D02*
X363520Y119256D01*
X361209Y118298D01*
X359225Y116776D01*
X357702Y114791D01*
X356744Y112480D01*
X356418Y110000D01*
Y106000D01*
X356744Y103520D01*
X357702Y101209D01*
X359225Y99225D01*
X361209Y97702D01*
X363520Y96744D01*
X366000Y96418D01*
X368480Y96744D01*
X370791Y97702D01*
X372775Y99225D01*
X374298Y101209D01*
X375256Y103520D01*
X375582Y106000D01*
Y110000D01*
X375256Y112480D01*
X374298Y114791D01*
X372775Y116776D01*
X370791Y118298D01*
X368480Y119256D01*
X366000Y119582D01*
D02*
G37*
G36*
X465000Y92588D02*
X463244Y92239D01*
X461756Y91244D01*
X460761Y89756D01*
X460412Y88000D01*
X460761Y86244D01*
X461756Y84756D01*
X463244Y83761D01*
X465000Y83412D01*
X466756Y83761D01*
X468244Y84756D01*
X469239Y86244D01*
X469588Y88000D01*
X469239Y89756D01*
X468244Y91244D01*
X466756Y92239D01*
X465000Y92588D01*
D02*
G37*
G36*
X418000Y92588D02*
X416244Y92239D01*
X414756Y91244D01*
X413761Y89756D01*
X413412Y88000D01*
X413761Y86244D01*
X414756Y84756D01*
X416244Y83761D01*
X418000Y83412D01*
X419756Y83761D01*
X421244Y84756D01*
X422239Y86244D01*
X422588Y88000D01*
X422239Y89756D01*
X421244Y91244D01*
X419756Y92239D01*
X418000Y92588D01*
D02*
G37*
G36*
X417000Y69500D02*
X395000D01*
Y47500D01*
X417000D01*
Y69500D01*
D02*
G37*
G36*
X289000Y153059D02*
X287829Y152826D01*
X286837Y152163D01*
X286174Y151171D01*
X285941Y150000D01*
X286174Y148829D01*
X286837Y147837D01*
X287829Y147174D01*
X289000Y146941D01*
X290170Y147174D01*
X291163Y147837D01*
X291826Y148829D01*
X292059Y150000D01*
X291826Y151171D01*
X291163Y152163D01*
X290170Y152826D01*
X289000Y153059D01*
D02*
G37*
G36*
X11000Y151588D02*
X9244Y151239D01*
X7756Y150244D01*
X6761Y148756D01*
X6412Y147000D01*
X6761Y145244D01*
X7756Y143756D01*
X9244Y142761D01*
X11000Y142412D01*
X12756Y142761D01*
X14244Y143756D01*
X15239Y145244D01*
X15588Y147000D01*
X15239Y148756D01*
X14244Y150244D01*
X12756Y151239D01*
X11000Y151588D01*
D02*
G37*
G36*
X204000Y139059D02*
X202829Y138826D01*
X201837Y138163D01*
X201174Y137170D01*
X200941Y136000D01*
X201174Y134830D01*
X201371Y134535D01*
X200652Y133325D01*
X200211Y133325D01*
X200211Y133325D01*
X200206Y133325D01*
X182775D01*
Y114875D01*
X201225D01*
Y132289D01*
X201225Y132719D01*
X202453Y133425D01*
X202829Y133174D01*
X204000Y132941D01*
X205170Y133174D01*
X206163Y133837D01*
X206826Y134830D01*
X207059Y136000D01*
X206826Y137170D01*
X206163Y138163D01*
X205170Y138826D01*
X204000Y139059D01*
D02*
G37*
G36*
X319000Y138059D02*
X317829Y137826D01*
X316837Y137163D01*
X316174Y136171D01*
X315941Y135000D01*
X316174Y133829D01*
X316837Y132837D01*
X317829Y132174D01*
X319000Y131941D01*
X320171Y132174D01*
X321163Y132837D01*
X321826Y133829D01*
X322059Y135000D01*
X321826Y136171D01*
X321163Y137163D01*
X320171Y137826D01*
X319000Y138059D01*
D02*
G37*
G36*
X42000Y139588D02*
X40244Y139239D01*
X38756Y138244D01*
X37761Y136756D01*
X37412Y135000D01*
X37761Y133244D01*
X38756Y131756D01*
X40244Y130761D01*
X42000Y130412D01*
X43756Y130761D01*
X45244Y131756D01*
X46239Y133244D01*
X46588Y135000D01*
X46239Y136756D01*
X45244Y138244D01*
X43756Y139239D01*
X42000Y139588D01*
D02*
G37*
G36*
X11000D02*
X9244Y139239D01*
X7756Y138244D01*
X6761Y136756D01*
X6412Y135000D01*
X6761Y133244D01*
X7756Y131756D01*
X9244Y130761D01*
X11000Y130412D01*
X12756Y130761D01*
X14244Y131756D01*
X15239Y133244D01*
X15588Y135000D01*
X15239Y136756D01*
X14244Y138244D01*
X12756Y139239D01*
X11000Y139588D01*
D02*
G37*
G36*
X80000Y145588D02*
X78244Y145239D01*
X76756Y144244D01*
X75761Y142756D01*
X75412Y141000D01*
X75761Y139244D01*
X76756Y137756D01*
X77124Y137510D01*
X77168Y137046D01*
X76992Y136070D01*
X75756Y135244D01*
X74761Y133756D01*
X74412Y132000D01*
X74761Y130244D01*
X75756Y128756D01*
X77244Y127761D01*
X79000Y127412D01*
X80756Y127761D01*
X82244Y128756D01*
X83239Y130244D01*
X83588Y132000D01*
X83239Y133756D01*
X82244Y135244D01*
X81876Y135490D01*
X81832Y135954D01*
X82008Y136930D01*
X83244Y137756D01*
X84239Y139244D01*
X84588Y141000D01*
X84239Y142756D01*
X83244Y144244D01*
X81756Y145239D01*
X80000Y145588D01*
D02*
G37*
G36*
X42000Y127588D02*
X40244Y127239D01*
X38756Y126244D01*
X37761Y124756D01*
X37412Y123000D01*
X37761Y121244D01*
X38756Y119756D01*
X40244Y118761D01*
X42000Y118412D01*
X43756Y118761D01*
X45244Y119756D01*
X46239Y121244D01*
X46588Y123000D01*
X46239Y124756D01*
X45244Y126244D01*
X43756Y127239D01*
X42000Y127588D01*
D02*
G37*
G36*
X11000D02*
X9244Y127239D01*
X7756Y126244D01*
X6761Y124756D01*
X6412Y123000D01*
X6761Y121244D01*
X7756Y119756D01*
X9244Y118761D01*
X11000Y118412D01*
X12756Y118761D01*
X14244Y119756D01*
X15239Y121244D01*
X15588Y123000D01*
X15239Y124756D01*
X14244Y126244D01*
X12756Y127239D01*
X11000Y127588D01*
D02*
G37*
G36*
X262000Y133405D02*
X259592Y133088D01*
X257348Y132158D01*
X255421Y130679D01*
X253942Y128752D01*
X253012Y126508D01*
X252695Y124100D01*
X253012Y121692D01*
X253942Y119448D01*
X255421Y117521D01*
X257348Y116042D01*
X259592Y115112D01*
X262000Y114795D01*
X264408Y115112D01*
X266652Y116042D01*
X268579Y117521D01*
X270058Y119448D01*
X270988Y121692D01*
X271305Y124100D01*
X270988Y126508D01*
X270058Y128752D01*
X268579Y130679D01*
X266652Y132158D01*
X264408Y133088D01*
X262000Y133405D01*
D02*
G37*
G36*
X237000D02*
X234592Y133088D01*
X232348Y132158D01*
X230421Y130679D01*
X228942Y128752D01*
X228012Y126508D01*
X227695Y124100D01*
X228012Y121692D01*
X228942Y119448D01*
X230421Y117521D01*
X232348Y116042D01*
X234592Y115112D01*
X237000Y114795D01*
X239408Y115112D01*
X241652Y116042D01*
X243579Y117521D01*
X245058Y119448D01*
X245988Y121692D01*
X246305Y124100D01*
X245988Y126508D01*
X245058Y128752D01*
X243579Y130679D01*
X241652Y132158D01*
X239408Y133088D01*
X237000Y133405D01*
D02*
G37*
G36*
X217000D02*
X214592Y133088D01*
X212348Y132158D01*
X210421Y130679D01*
X208942Y128752D01*
X208012Y126508D01*
X207695Y124100D01*
X208012Y121692D01*
X208942Y119448D01*
X210421Y117521D01*
X212348Y116042D01*
X214592Y115112D01*
X217000Y114795D01*
X219408Y115112D01*
X221652Y116042D01*
X223579Y117521D01*
X225058Y119448D01*
X225988Y121692D01*
X226305Y124100D01*
X225988Y126508D01*
X225058Y128752D01*
X223579Y130679D01*
X221652Y132158D01*
X219408Y133088D01*
X217000Y133405D01*
D02*
G37*
G36*
X20000Y119588D02*
X18244Y119239D01*
X16756Y118244D01*
X15761Y116756D01*
X15412Y115000D01*
X15761Y113244D01*
X16756Y111756D01*
X18244Y110761D01*
X20000Y110412D01*
X21756Y110761D01*
X23244Y111756D01*
X24239Y113244D01*
X24588Y115000D01*
X24239Y116756D01*
X23244Y118244D01*
X21756Y119239D01*
X20000Y119588D01*
D02*
G37*
G36*
X254000Y110588D02*
X252244Y110239D01*
X250756Y109244D01*
X249761Y107756D01*
X249412Y106000D01*
X249761Y104244D01*
X250756Y102756D01*
X252244Y101761D01*
X254000Y101412D01*
X255756Y101761D01*
X257244Y102756D01*
X258239Y104244D01*
X258588Y106000D01*
X258239Y107756D01*
X257244Y109244D01*
X255756Y110239D01*
X254000Y110588D01*
D02*
G37*
G36*
X242000D02*
X240244Y110239D01*
X238756Y109244D01*
X237761Y107756D01*
X237412Y106000D01*
X237761Y104244D01*
X238756Y102756D01*
X240244Y101761D01*
X242000Y101412D01*
X243756Y101761D01*
X245244Y102756D01*
X246239Y104244D01*
X246588Y106000D01*
X246239Y107756D01*
X245244Y109244D01*
X243756Y110239D01*
X242000Y110588D01*
D02*
G37*
G36*
X79000Y105059D02*
X77829Y104826D01*
X76837Y104163D01*
X76174Y103170D01*
X75941Y102000D01*
X76174Y100829D01*
X76837Y99837D01*
X77829Y99174D01*
X79000Y98941D01*
X80170Y99174D01*
X81163Y99837D01*
X81826Y100829D01*
X82059Y102000D01*
X81826Y103170D01*
X81163Y104163D01*
X80170Y104826D01*
X79000Y105059D01*
D02*
G37*
G36*
X107500Y98843D02*
X105647Y98474D01*
X104075Y97425D01*
X103026Y95853D01*
X102657Y94000D01*
X103026Y92147D01*
X104075Y90576D01*
X105647Y89526D01*
X107500Y89157D01*
X109353Y89526D01*
X110925Y90576D01*
X111974Y92147D01*
X112343Y94000D01*
X111974Y95853D01*
X110925Y97425D01*
X109353Y98474D01*
X107500Y98843D01*
D02*
G37*
G36*
X38500D02*
X36647Y98474D01*
X35075Y97425D01*
X34026Y95853D01*
X33657Y94000D01*
X34026Y92147D01*
X35075Y90576D01*
X36647Y89526D01*
X38500Y89157D01*
X40353Y89526D01*
X41925Y90576D01*
X42974Y92147D01*
X43343Y94000D01*
X42974Y95853D01*
X41925Y97425D01*
X40353Y98474D01*
X38500Y98843D01*
D02*
G37*
G36*
X86000Y87443D02*
X84147Y87074D01*
X82576Y86025D01*
X82264Y85558D01*
X80736D01*
X80425Y86025D01*
X78853Y87074D01*
X77000Y87443D01*
X75147Y87074D01*
X73836Y86199D01*
X73000Y86096D01*
X72164Y86199D01*
X70853Y87074D01*
X69000Y87443D01*
X67147Y87074D01*
X65575Y86025D01*
X65264Y85558D01*
X63736D01*
X63425Y86025D01*
X61853Y87074D01*
X60000Y87443D01*
X58147Y87074D01*
X56575Y86025D01*
X55526Y84453D01*
X55157Y82600D01*
X55526Y80747D01*
X56575Y79176D01*
X58147Y78126D01*
X60000Y77757D01*
X61853Y78126D01*
X63425Y79176D01*
X63736Y79642D01*
X65264D01*
X65575Y79176D01*
X67147Y78126D01*
X69000Y77757D01*
X70853Y78126D01*
X72164Y79001D01*
X73000Y79104D01*
X73836Y79001D01*
X75147Y78126D01*
X77000Y77757D01*
X77085Y77774D01*
X77807Y76623D01*
X77026Y75453D01*
X76657Y73600D01*
X77026Y71747D01*
X78075Y70175D01*
X79647Y69126D01*
X81500Y68757D01*
X83353Y69126D01*
X84925Y70175D01*
X85974Y71747D01*
X86343Y73600D01*
X85974Y75453D01*
X85193Y76623D01*
X85915Y77774D01*
X86000Y77757D01*
X87853Y78126D01*
X89425Y79176D01*
X90474Y80747D01*
X90843Y82600D01*
X90474Y84453D01*
X89425Y86025D01*
X87853Y87074D01*
X86000Y87443D01*
D02*
G37*
G36*
X292700Y115569D02*
X289077Y115213D01*
X285594Y114156D01*
X282383Y112440D01*
X279569Y110131D01*
X277260Y107317D01*
X275544Y104106D01*
X274487Y100623D01*
X274131Y97000D01*
X274487Y93377D01*
X275544Y89894D01*
X277260Y86683D01*
X279569Y83869D01*
X282383Y81560D01*
X285594Y79844D01*
X289077Y78787D01*
X292700Y78431D01*
X296323Y78787D01*
X299806Y79844D01*
X303017Y81560D01*
X305831Y83869D01*
X308140Y86683D01*
X309856Y89894D01*
X310913Y93377D01*
X311269Y97000D01*
X310913Y100623D01*
X309856Y104106D01*
X308140Y107317D01*
X305831Y110131D01*
X303017Y112440D01*
X299806Y114156D01*
X296323Y115213D01*
X292700Y115569D01*
D02*
G37*
G36*
X336000Y69595D02*
X333128Y69217D01*
X330453Y68109D01*
X328155Y66345D01*
X326391Y64047D01*
X325283Y61372D01*
X324905Y58500D01*
X325283Y55628D01*
X326391Y52952D01*
X328155Y50655D01*
X330453Y48892D01*
X333128Y47783D01*
X336000Y47405D01*
X338872Y47783D01*
X341547Y48892D01*
X343845Y50655D01*
X345608Y52952D01*
X346717Y55628D01*
X347095Y58500D01*
X346717Y61372D01*
X345608Y64047D01*
X343845Y66345D01*
X341547Y68109D01*
X338872Y69217D01*
X336000Y69595D01*
D02*
G37*
G36*
X316000Y50588D02*
X314244Y50239D01*
X312756Y49244D01*
X311761Y47756D01*
X311412Y46000D01*
X311761Y44244D01*
X312756Y42756D01*
X314244Y41761D01*
X316000Y41412D01*
X317756Y41761D01*
X319244Y42756D01*
X320239Y44244D01*
X320588Y46000D01*
X320239Y47756D01*
X319244Y49244D01*
X317756Y50239D01*
X316000Y50588D01*
D02*
G37*
G36*
X348500Y40056D02*
X346803Y39833D01*
X345222Y39178D01*
X343864Y38136D01*
X342822Y36778D01*
X342167Y35197D01*
X341944Y33500D01*
X342167Y31803D01*
X342822Y30222D01*
X343864Y28864D01*
X345222Y27822D01*
X346803Y27167D01*
X348500Y26944D01*
X350197Y27167D01*
X351778Y27822D01*
X353136Y28864D01*
X354178Y30222D01*
X354833Y31803D01*
X355056Y33500D01*
X354833Y35197D01*
X354178Y36778D01*
X353136Y38136D01*
X351778Y39178D01*
X350197Y39833D01*
X348500Y40056D01*
D02*
G37*
%LPD*%
D98*
X12250Y36000D02*
D03*
X133750D02*
D03*
X12250Y74600D02*
D03*
X133750D02*
D03*
X28350Y98000D02*
D03*
X117650D02*
D03*
D99*
X41000Y82600D02*
D03*
X105000D02*
D03*
D104*
X409000Y213800D02*
D03*
D109*
X118000Y166200D02*
D03*
D111*
X340600Y108000D02*
D03*
D112*
X24000Y204000D02*
D03*
X466000Y36000D02*
D03*
D114*
X135000Y120000D02*
D03*
X135000Y148000D02*
D03*
D115*
X253000Y174000D02*
D03*
X238000Y316000D02*
D03*
X386000Y146000D02*
D03*
X306204Y146250D02*
D03*
X447000Y183000D02*
D03*
X24000Y371000D02*
D03*
X336125Y341875D02*
D03*
X257500Y346500D02*
D03*
X414000Y335000D02*
D03*
X368000Y344000D02*
D03*
X157000Y348000D02*
D03*
X233000Y354500D02*
D03*
X180000Y352000D02*
D03*
X265000Y288000D02*
D03*
X340000Y302000D02*
D03*
X362000Y281000D02*
D03*
X429000Y265000D02*
D03*
X227000Y232000D02*
D03*
X270000Y170000D02*
D03*
X226500Y181510D02*
D03*
X106000Y119000D02*
D03*
X384500Y247500D02*
D03*
X389000Y218000D02*
D03*
M02*
