G04*
G04 #@! TF.GenerationSoftware,Altium Limited,Altium Designer,20.0.7 (75)*
G04*
G04 Layer_Color=8421504*
%FSLAX44Y44*%
%MOMM*%
G71*
G01*
G75*
%ADD18R,0.3500X0.6000*%
%ADD19R,0.4800X0.4000*%
%ADD20R,0.9100X1.2200*%
%ADD21R,1.2200X0.9100*%
%ADD22R,0.8000X0.8000*%
%ADD23R,0.6000X0.5000*%
%ADD24R,0.5000X0.6000*%
%ADD25R,0.5000X0.5000*%
%ADD26R,0.5000X0.5000*%
%ADD27R,1.3000X0.9000*%
%ADD28C,0.5000*%
%ADD29R,5.6000X2.0000*%
%ADD30R,8.2000X2.6000*%
%ADD31R,0.4000X0.6000*%
%ADD32O,0.4000X0.6000*%
%ADD33R,0.6300X0.2500*%
%ADD34R,0.3000X0.2500*%
%ADD35R,0.2500X0.3000*%
%ADD36R,0.2500X0.6300*%
%ADD37O,0.6000X0.4000*%
%ADD38R,0.6000X0.4000*%
%ADD39R,0.4000X0.4000*%
%ADD40R,2.5000X1.2000*%
%ADD41R,2.5000X1.8000*%
G04:AMPARAMS|DCode=42|XSize=1.15mm|YSize=0.35mm|CornerRadius=0.0875mm|HoleSize=0mm|Usage=FLASHONLY|Rotation=0.000|XOffset=0mm|YOffset=0mm|HoleType=Round|Shape=RoundedRectangle|*
%AMROUNDEDRECTD42*
21,1,1.1500,0.1750,0,0,0.0*
21,1,0.9750,0.3500,0,0,0.0*
1,1,0.1750,0.4875,-0.0875*
1,1,0.1750,-0.4875,-0.0875*
1,1,0.1750,-0.4875,0.0875*
1,1,0.1750,0.4875,0.0875*
%
%ADD42ROUNDEDRECTD42*%
G04:AMPARAMS|DCode=43|XSize=1.4625mm|YSize=0.2mm|CornerRadius=0.05mm|HoleSize=0mm|Usage=FLASHONLY|Rotation=0.000|XOffset=0mm|YOffset=0mm|HoleType=Round|Shape=RoundedRectangle|*
%AMROUNDEDRECTD43*
21,1,1.4625,0.1000,0,0,0.0*
21,1,1.3625,0.2000,0,0,0.0*
1,1,0.1000,0.6813,-0.0500*
1,1,0.1000,-0.6813,-0.0500*
1,1,0.1000,-0.6813,0.0500*
1,1,0.1000,0.6813,0.0500*
%
%ADD43ROUNDEDRECTD43*%
G04:AMPARAMS|DCode=44|XSize=0.45mm|YSize=0.25mm|CornerRadius=0.0625mm|HoleSize=0mm|Usage=FLASHONLY|Rotation=0.000|XOffset=0mm|YOffset=0mm|HoleType=Round|Shape=RoundedRectangle|*
%AMROUNDEDRECTD44*
21,1,0.4500,0.1250,0,0,0.0*
21,1,0.3250,0.2500,0,0,0.0*
1,1,0.1250,0.1625,-0.0625*
1,1,0.1250,-0.1625,-0.0625*
1,1,0.1250,-0.1625,0.0625*
1,1,0.1250,0.1625,0.0625*
%
%ADD44ROUNDEDRECTD44*%
D18*
X45500Y94000D02*
D03*
X60500D02*
D03*
X65500D02*
D03*
X70500D02*
D03*
X75500D02*
D03*
X85500D02*
D03*
X100500D02*
D03*
D19*
X106000Y124000D02*
D03*
X92800D02*
D03*
X121800Y129000D02*
D03*
X135000D02*
D03*
D20*
X182000Y252000D02*
D03*
X214700D02*
D03*
D21*
X252000Y188300D02*
D03*
Y221000D02*
D03*
D22*
X27000Y123000D02*
D03*
X11000D02*
D03*
Y135000D02*
D03*
X27000D02*
D03*
Y147000D02*
D03*
X11000D02*
D03*
Y159000D02*
D03*
X27000D02*
D03*
D23*
X242000Y349000D02*
D03*
Y339000D02*
D03*
X410000Y153000D02*
D03*
Y163000D02*
D03*
X415000Y263000D02*
D03*
Y273000D02*
D03*
X393000Y263000D02*
D03*
Y273000D02*
D03*
X391000Y146000D02*
D03*
Y136000D02*
D03*
X375000Y263000D02*
D03*
Y273000D02*
D03*
X423000Y54000D02*
D03*
Y64000D02*
D03*
X247000Y298000D02*
D03*
Y308000D02*
D03*
Y280000D02*
D03*
Y290000D02*
D03*
X265000Y288000D02*
D03*
Y278000D02*
D03*
X168000Y258000D02*
D03*
Y248000D02*
D03*
X156000D02*
D03*
Y258000D02*
D03*
X323000Y186000D02*
D03*
Y196000D02*
D03*
X381000Y146000D02*
D03*
Y136000D02*
D03*
D24*
X485000Y131000D02*
D03*
X475000D02*
D03*
Y158000D02*
D03*
X485000D02*
D03*
X412000Y172000D02*
D03*
X402000D02*
D03*
X435000Y178000D02*
D03*
X445000D02*
D03*
Y187000D02*
D03*
X435000D02*
D03*
X395000Y344000D02*
D03*
X385000D02*
D03*
Y326000D02*
D03*
X395000D02*
D03*
X347000Y137000D02*
D03*
X337000D02*
D03*
X266000Y297000D02*
D03*
X256000D02*
D03*
X274000Y294000D02*
D03*
X284000D02*
D03*
Y285000D02*
D03*
X274000D02*
D03*
X319000Y146000D02*
D03*
X329000D02*
D03*
X347000Y147000D02*
D03*
X337000D02*
D03*
X237000Y241000D02*
D03*
X227000D02*
D03*
X391000Y155000D02*
D03*
X381000D02*
D03*
X359000Y137000D02*
D03*
X369000D02*
D03*
D25*
X135000Y148000D02*
D03*
X125000D02*
D03*
X475000Y140000D02*
D03*
X485000D02*
D03*
X475000Y149000D02*
D03*
X485000D02*
D03*
X136000Y120000D02*
D03*
X126000D02*
D03*
X385000Y335000D02*
D03*
X395000D02*
D03*
X256000Y310000D02*
D03*
X266000D02*
D03*
X329000Y137000D02*
D03*
X319000D02*
D03*
X227000Y232000D02*
D03*
X237000D02*
D03*
X369000Y147000D02*
D03*
X359000D02*
D03*
X227000Y187000D02*
D03*
X237000D02*
D03*
X92000Y115000D02*
D03*
X102000D02*
D03*
D26*
X167000Y358000D02*
D03*
Y348000D02*
D03*
X217000Y349000D02*
D03*
Y339000D02*
D03*
X225000D02*
D03*
Y349000D02*
D03*
X185000D02*
D03*
Y339000D02*
D03*
X193000D02*
D03*
Y349000D02*
D03*
X201000D02*
D03*
Y339000D02*
D03*
X209000D02*
D03*
Y349000D02*
D03*
X233000D02*
D03*
Y339000D02*
D03*
X403000Y345000D02*
D03*
Y335000D02*
D03*
Y263000D02*
D03*
Y273000D02*
D03*
X384000Y263000D02*
D03*
Y273000D02*
D03*
X363000D02*
D03*
Y263000D02*
D03*
X265000Y195000D02*
D03*
Y185000D02*
D03*
X256000Y288000D02*
D03*
Y278000D02*
D03*
X319000Y55000D02*
D03*
Y65000D02*
D03*
D27*
X233000Y220000D02*
D03*
Y201000D02*
D03*
D28*
X283000Y314000D02*
D03*
X263000Y325000D02*
D03*
X274000Y314000D02*
D03*
X312000Y359000D02*
D03*
X384000Y306000D02*
D03*
X380000Y252000D02*
D03*
X352000Y271000D02*
D03*
X301000D02*
D03*
X343000Y223000D02*
D03*
X307000Y155000D02*
D03*
X297000Y156000D02*
D03*
X282000Y154000D02*
D03*
X62000Y107000D02*
D03*
D29*
X64000Y380000D02*
D03*
Y252000D02*
D03*
D30*
X179000Y169000D02*
D03*
Y225000D02*
D03*
D31*
X136000Y331000D02*
D03*
D32*
X142500D02*
D03*
X149000D02*
D03*
X155500D02*
D03*
X136000Y359000D02*
D03*
X142500D02*
D03*
X149000D02*
D03*
X155500D02*
D03*
D33*
X301600Y289400D02*
D03*
Y293400D02*
D03*
Y297400D02*
D03*
Y301400D02*
D03*
Y305400D02*
D03*
Y309400D02*
D03*
Y313400D02*
D03*
Y317400D02*
D03*
Y321400D02*
D03*
Y325400D02*
D03*
Y329400D02*
D03*
X358400D02*
D03*
Y325400D02*
D03*
Y321400D02*
D03*
Y317400D02*
D03*
Y313400D02*
D03*
Y309400D02*
D03*
Y305400D02*
D03*
Y301400D02*
D03*
Y297400D02*
D03*
Y293400D02*
D03*
Y289400D02*
D03*
D34*
X301600Y333400D02*
D03*
X358400D02*
D03*
Y285400D02*
D03*
X301600Y285400D02*
D03*
D35*
X306000Y337800D02*
D03*
X354000D02*
D03*
Y281000D02*
D03*
X306000D02*
D03*
D36*
X310000Y337800D02*
D03*
X314000D02*
D03*
X318000D02*
D03*
X322000D02*
D03*
X326000D02*
D03*
X330000D02*
D03*
X334000D02*
D03*
X338000D02*
D03*
X342000D02*
D03*
X346000D02*
D03*
X350000D02*
D03*
Y281000D02*
D03*
X346000D02*
D03*
X342000D02*
D03*
X338000D02*
D03*
X334000D02*
D03*
X330000D02*
D03*
X326000D02*
D03*
X322000D02*
D03*
X318000D02*
D03*
X314000D02*
D03*
X310000D02*
D03*
D37*
X337000Y196500D02*
D03*
Y190000D02*
D03*
Y183500D02*
D03*
Y177000D02*
D03*
X365000Y196500D02*
D03*
Y190000D02*
D03*
Y183500D02*
D03*
D38*
Y177000D02*
D03*
D39*
X418000Y162000D02*
D03*
Y155500D02*
D03*
Y149000D02*
D03*
X456000Y149000D02*
D03*
Y162000D02*
D03*
Y155500D02*
D03*
X418000Y101000D02*
D03*
Y94500D02*
D03*
Y88000D02*
D03*
X456000Y88000D02*
D03*
Y101000D02*
D03*
Y94500D02*
D03*
D40*
X437000Y143000D02*
D03*
Y82000D02*
D03*
D41*
Y162500D02*
D03*
Y101500D02*
D03*
D42*
X230500Y174000D02*
D03*
Y163000D02*
D03*
D43*
X232000Y168500D02*
D03*
D44*
X246000Y171000D02*
D03*
Y166000D02*
D03*
Y161000D02*
D03*
Y176000D02*
D03*
M02*
