G04*
G04 #@! TF.GenerationSoftware,Altium Limited,Altium Designer,20.0.7 (75)*
G04*
G04 Layer_Color=8388736*
%FSLAX44Y44*%
%MOMM*%
G71*
G01*
G75*
%ADD34R,0.3000X0.2500*%
%ADD35R,0.2500X0.3000*%
%ADD45R,0.5500X0.8000*%
%ADD46R,0.6800X0.6000*%
%ADD47R,1.1100X1.4200*%
%ADD48R,1.4200X1.1100*%
%ADD49R,1.0000X1.0000*%
%ADD50R,0.8000X0.7000*%
%ADD51R,0.7000X0.8000*%
%ADD52R,0.7000X0.7000*%
%ADD53R,0.7000X0.7000*%
%ADD54R,1.5000X1.1000*%
%ADD55C,0.7000*%
%ADD56R,5.8000X2.2000*%
%ADD57R,8.4000X2.8000*%
%ADD58R,0.5400X0.7400*%
%ADD59O,0.5400X0.7400*%
%ADD60R,0.6900X0.3100*%
%ADD61R,0.3100X0.6900*%
%ADD62O,0.7400X0.5400*%
%ADD63R,0.7400X0.5400*%
%ADD64C,3.0480*%
%ADD65R,0.5400X0.5400*%
%ADD66R,2.6400X1.3400*%
%ADD67R,2.6400X1.9400*%
G04:AMPARAMS|DCode=68|XSize=1.29mm|YSize=0.49mm|CornerRadius=0.1575mm|HoleSize=0mm|Usage=FLASHONLY|Rotation=0.000|XOffset=0mm|YOffset=0mm|HoleType=Round|Shape=RoundedRectangle|*
%AMROUNDEDRECTD68*
21,1,1.2900,0.1750,0,0,0.0*
21,1,0.9750,0.4900,0,0,0.0*
1,1,0.3150,0.4875,-0.0875*
1,1,0.3150,-0.4875,-0.0875*
1,1,0.3150,-0.4875,0.0875*
1,1,0.3150,0.4875,0.0875*
%
%ADD68ROUNDEDRECTD68*%
G04:AMPARAMS|DCode=69|XSize=1.6025mm|YSize=0.34mm|CornerRadius=0.12mm|HoleSize=0mm|Usage=FLASHONLY|Rotation=0.000|XOffset=0mm|YOffset=0mm|HoleType=Round|Shape=RoundedRectangle|*
%AMROUNDEDRECTD69*
21,1,1.6025,0.1000,0,0,0.0*
21,1,1.3625,0.3400,0,0,0.0*
1,1,0.2400,0.6813,-0.0500*
1,1,0.2400,-0.6813,-0.0500*
1,1,0.2400,-0.6813,0.0500*
1,1,0.2400,0.6813,0.0500*
%
%ADD69ROUNDEDRECTD69*%
G04:AMPARAMS|DCode=70|XSize=0.59mm|YSize=0.39mm|CornerRadius=0.1325mm|HoleSize=0mm|Usage=FLASHONLY|Rotation=0.000|XOffset=0mm|YOffset=0mm|HoleType=Round|Shape=RoundedRectangle|*
%AMROUNDEDRECTD70*
21,1,0.5900,0.1250,0,0,0.0*
21,1,0.3250,0.3900,0,0,0.0*
1,1,0.2650,0.1625,-0.0625*
1,1,0.2650,-0.1625,-0.0625*
1,1,0.2650,-0.1625,0.0625*
1,1,0.2650,0.1625,0.0625*
%
%ADD70ROUNDEDRECTD70*%
%ADD71C,0.8500*%
%ADD72O,1.2000X2.2000*%
%ADD73O,1.5000X0.8500*%
%ADD74R,1.7450X1.7450*%
%ADD75C,1.7450*%
%ADD76C,3.5960*%
%ADD77C,4.2000*%
%ADD78C,1.5080*%
%ADD79C,2.1000*%
%ADD80C,1.2000*%
%ADD81R,2.1000X2.1000*%
%ADD82O,2.2000X1.8000*%
%ADD83R,2.2000X1.8000*%
%ADD84O,1.8000X2.2000*%
%ADD85R,1.8000X2.2000*%
%ADD86C,7.6000*%
%ADD87C,3.2500*%
G36*
X304809Y286946D02*
X304865Y286928D01*
X304918Y286901D01*
X304963Y286863D01*
X305001Y286817D01*
X305029Y286765D01*
X305046Y286709D01*
X305051Y286650D01*
Y285550D01*
X305046Y285491D01*
X305033Y285448D01*
X305029Y285434D01*
X305001Y285382D01*
X304963Y285337D01*
X303563Y283937D01*
X303518Y283899D01*
X303465Y283871D01*
X303409Y283854D01*
X303350Y283848D01*
X298450D01*
X298391Y283854D01*
X298335Y283871D01*
X298283Y283899D01*
X298237Y283937D01*
X298199Y283982D01*
X298172Y284035D01*
X298154Y284091D01*
X298149Y284150D01*
Y286650D01*
X298154Y286709D01*
X298172Y286765D01*
X298199Y286817D01*
X298237Y286863D01*
X298283Y286901D01*
X298335Y286928D01*
X298391Y286946D01*
X298450Y286951D01*
X304750D01*
X304809Y286946D01*
D02*
G37*
G36*
X307309Y284446D02*
X307365Y284428D01*
X307418Y284401D01*
X307463Y284363D01*
X307501Y284317D01*
X307529Y284265D01*
X307546Y284209D01*
X307551Y284150D01*
Y277850D01*
X307546Y277791D01*
X307529Y277735D01*
X307501Y277682D01*
X307463Y277637D01*
X307418Y277599D01*
X307365Y277571D01*
X307309Y277554D01*
X307250Y277548D01*
X304750D01*
X304691Y277554D01*
X304635Y277571D01*
X304583Y277599D01*
X304537Y277637D01*
X304499Y277682D01*
X304472Y277735D01*
X304454Y277791D01*
X304449Y277850D01*
Y282750D01*
X304454Y282809D01*
X304468Y282852D01*
X304472Y282865D01*
X304499Y282917D01*
X304537Y282963D01*
X305937Y284363D01*
X305983Y284401D01*
X306035Y284428D01*
X306091Y284446D01*
X306150Y284451D01*
X307250D01*
X307309Y284446D01*
D02*
G37*
G36*
X361609Y286946D02*
X361665Y286928D01*
X361717Y286901D01*
X361763Y286863D01*
X361801Y286817D01*
X361829Y286765D01*
X361846Y286709D01*
X361852Y286650D01*
Y284150D01*
X361846Y284091D01*
X361829Y284035D01*
X361801Y283982D01*
X361763Y283937D01*
X361717Y283899D01*
X361665Y283871D01*
X361609Y283854D01*
X361550Y283848D01*
X356650D01*
X356591Y283854D01*
X356548Y283867D01*
X356535Y283871D01*
X356483Y283899D01*
X356437Y283937D01*
X355037Y285337D01*
X354999Y285382D01*
X354972Y285434D01*
X354954Y285491D01*
X354949Y285550D01*
Y286650D01*
X354954Y286709D01*
X354972Y286765D01*
X354999Y286817D01*
X355037Y286863D01*
X355083Y286901D01*
X355135Y286928D01*
X355191Y286946D01*
X355250Y286951D01*
X361550D01*
X361609Y286946D01*
D02*
G37*
G36*
X353909Y284446D02*
X353952Y284432D01*
X353965Y284428D01*
X354018Y284401D01*
X354063Y284363D01*
X355463Y282963D01*
X355501Y282917D01*
X355529Y282865D01*
X355546Y282809D01*
X355551Y282750D01*
Y277850D01*
X355546Y277791D01*
X355529Y277735D01*
X355501Y277682D01*
X355463Y277637D01*
X355418Y277599D01*
X355365Y277571D01*
X355309Y277554D01*
X355250Y277548D01*
X352750D01*
X352691Y277554D01*
X352635Y277571D01*
X352583Y277599D01*
X352537Y277637D01*
X352499Y277682D01*
X352472Y277735D01*
X352454Y277791D01*
X352449Y277850D01*
Y284150D01*
X352454Y284209D01*
X352472Y284265D01*
X352499Y284317D01*
X352537Y284363D01*
X352583Y284401D01*
X352635Y284428D01*
X352691Y284446D01*
X352750Y284451D01*
X353850D01*
X353909Y284446D01*
D02*
G37*
G36*
X307309Y341246D02*
X307365Y341228D01*
X307418Y341201D01*
X307463Y341163D01*
X307501Y341117D01*
X307529Y341065D01*
X307546Y341009D01*
X307551Y340950D01*
Y334650D01*
X307546Y334591D01*
X307529Y334534D01*
X307501Y334482D01*
X307463Y334437D01*
X307418Y334399D01*
X307365Y334371D01*
X307309Y334354D01*
X307250Y334348D01*
X306150D01*
X306091Y334354D01*
X306048Y334367D01*
X306035Y334371D01*
X305983Y334399D01*
X305937Y334437D01*
X304537Y335837D01*
X304499Y335882D01*
X304472Y335934D01*
X304454Y335991D01*
X304449Y336050D01*
Y340950D01*
X304454Y341009D01*
X304472Y341065D01*
X304499Y341117D01*
X304537Y341163D01*
X304583Y341201D01*
X304635Y341228D01*
X304691Y341246D01*
X304750Y341251D01*
X307250D01*
X307309Y341246D01*
D02*
G37*
G36*
X303409Y334946D02*
X303452Y334932D01*
X303465Y334928D01*
X303518Y334901D01*
X303563Y334863D01*
X304963Y333463D01*
X305001Y333417D01*
X305029Y333365D01*
X305046Y333309D01*
X305051Y333250D01*
Y332150D01*
X305046Y332091D01*
X305029Y332034D01*
X305001Y331982D01*
X304963Y331937D01*
X304918Y331899D01*
X304865Y331871D01*
X304809Y331854D01*
X304750Y331848D01*
X298450D01*
X298391Y331854D01*
X298335Y331871D01*
X298283Y331899D01*
X298237Y331937D01*
X298199Y331982D01*
X298172Y332034D01*
X298154Y332091D01*
X298149Y332150D01*
Y334650D01*
X298154Y334709D01*
X298172Y334765D01*
X298199Y334817D01*
X298237Y334863D01*
X298283Y334901D01*
X298335Y334928D01*
X298391Y334946D01*
X298450Y334951D01*
X303350D01*
X303409Y334946D01*
D02*
G37*
G36*
X355309Y341245D02*
X355365Y341228D01*
X355418Y341200D01*
X355463Y341163D01*
X355501Y341117D01*
X355529Y341065D01*
X355546Y341009D01*
X355551Y340950D01*
Y336050D01*
X355546Y335991D01*
X355533Y335948D01*
X355529Y335934D01*
X355501Y335882D01*
X355463Y335837D01*
X354063Y334437D01*
X354018Y334399D01*
X353965Y334371D01*
X353909Y334354D01*
X353850Y334348D01*
X352750D01*
X352691Y334354D01*
X352635Y334371D01*
X352583Y334399D01*
X352537Y334437D01*
X352499Y334482D01*
X352472Y334534D01*
X352454Y334591D01*
X352449Y334650D01*
Y340950D01*
X352454Y341009D01*
X352472Y341065D01*
X352499Y341117D01*
X352537Y341163D01*
X352583Y341200D01*
X352635Y341228D01*
X352691Y341245D01*
X352750Y341251D01*
X355250D01*
X355309Y341245D01*
D02*
G37*
G36*
X361609Y334945D02*
X361665Y334928D01*
X361717Y334901D01*
X361763Y334863D01*
X361801Y334817D01*
X361829Y334765D01*
X361846Y334709D01*
X361852Y334650D01*
Y332150D01*
X361846Y332091D01*
X361829Y332034D01*
X361801Y331982D01*
X361763Y331937D01*
X361717Y331899D01*
X361665Y331871D01*
X361609Y331854D01*
X361550Y331848D01*
X355250D01*
X355191Y331854D01*
X355135Y331871D01*
X355083Y331899D01*
X355037Y331937D01*
X354999Y331982D01*
X354972Y332034D01*
X354954Y332091D01*
X354949Y332150D01*
Y333250D01*
X354954Y333309D01*
X354967Y333352D01*
X354972Y333365D01*
X354999Y333417D01*
X355037Y333463D01*
X356437Y334863D01*
X356483Y334901D01*
X356535Y334928D01*
X356591Y334945D01*
X356650Y334951D01*
X361550D01*
X361609Y334945D01*
D02*
G37*
D34*
X301600Y333400D02*
D03*
X358400D02*
D03*
Y285400D02*
D03*
X301600Y285400D02*
D03*
D35*
X306000Y337800D02*
D03*
X354000D02*
D03*
Y281000D02*
D03*
X306000D02*
D03*
D45*
X45500Y94000D02*
D03*
X60500D02*
D03*
X65500D02*
D03*
X70500D02*
D03*
X75500D02*
D03*
X85500D02*
D03*
X100500D02*
D03*
D46*
X106000Y124000D02*
D03*
X92800D02*
D03*
X121800Y129000D02*
D03*
X135000D02*
D03*
D47*
X182000Y252000D02*
D03*
X214700D02*
D03*
D48*
X252000Y188300D02*
D03*
Y221000D02*
D03*
D49*
X27000Y123000D02*
D03*
X11000D02*
D03*
Y135000D02*
D03*
X27000D02*
D03*
Y147000D02*
D03*
X11000D02*
D03*
Y159000D02*
D03*
X27000D02*
D03*
D50*
X242000Y349000D02*
D03*
Y339000D02*
D03*
X410000Y153000D02*
D03*
Y163000D02*
D03*
X415000Y263000D02*
D03*
Y273000D02*
D03*
X393000Y263000D02*
D03*
Y273000D02*
D03*
X391000Y146000D02*
D03*
Y136000D02*
D03*
X375000Y263000D02*
D03*
Y273000D02*
D03*
X423000Y54000D02*
D03*
Y64000D02*
D03*
X247000Y298000D02*
D03*
Y308000D02*
D03*
Y280000D02*
D03*
Y290000D02*
D03*
X265000Y288000D02*
D03*
Y278000D02*
D03*
X168000Y258000D02*
D03*
Y248000D02*
D03*
X156000D02*
D03*
Y258000D02*
D03*
X323000Y186000D02*
D03*
Y196000D02*
D03*
X381000Y146000D02*
D03*
Y136000D02*
D03*
D51*
X485000Y131000D02*
D03*
X475000D02*
D03*
Y158000D02*
D03*
X485000D02*
D03*
X412000Y172000D02*
D03*
X402000D02*
D03*
X435000Y178000D02*
D03*
X445000D02*
D03*
Y187000D02*
D03*
X435000D02*
D03*
X395000Y344000D02*
D03*
X385000D02*
D03*
Y326000D02*
D03*
X395000D02*
D03*
X347000Y137000D02*
D03*
X337000D02*
D03*
X266000Y297000D02*
D03*
X256000D02*
D03*
X274000Y294000D02*
D03*
X284000D02*
D03*
Y285000D02*
D03*
X274000D02*
D03*
X319000Y146000D02*
D03*
X329000D02*
D03*
X347000Y147000D02*
D03*
X337000D02*
D03*
X237000Y241000D02*
D03*
X227000D02*
D03*
X391000Y155000D02*
D03*
X381000D02*
D03*
X359000Y137000D02*
D03*
X369000D02*
D03*
D52*
X135000Y148000D02*
D03*
X125000D02*
D03*
X475000Y140000D02*
D03*
X485000D02*
D03*
X475000Y149000D02*
D03*
X485000D02*
D03*
X136000Y120000D02*
D03*
X126000D02*
D03*
X385000Y335000D02*
D03*
X395000D02*
D03*
X256000Y310000D02*
D03*
X266000D02*
D03*
X329000Y137000D02*
D03*
X319000D02*
D03*
X227000Y232000D02*
D03*
X237000D02*
D03*
X369000Y147000D02*
D03*
X359000D02*
D03*
X227000Y187000D02*
D03*
X237000D02*
D03*
X92000Y115000D02*
D03*
X102000D02*
D03*
D53*
X167000Y358000D02*
D03*
Y348000D02*
D03*
X217000Y349000D02*
D03*
Y339000D02*
D03*
X225000D02*
D03*
Y349000D02*
D03*
X185000D02*
D03*
Y339000D02*
D03*
X193000D02*
D03*
Y349000D02*
D03*
X201000D02*
D03*
Y339000D02*
D03*
X209000D02*
D03*
Y349000D02*
D03*
X233000D02*
D03*
Y339000D02*
D03*
X403000Y345000D02*
D03*
Y335000D02*
D03*
Y263000D02*
D03*
Y273000D02*
D03*
X384000Y263000D02*
D03*
Y273000D02*
D03*
X363000D02*
D03*
Y263000D02*
D03*
X265000Y195000D02*
D03*
Y185000D02*
D03*
X256000Y288000D02*
D03*
Y278000D02*
D03*
X319000Y55000D02*
D03*
Y65000D02*
D03*
D54*
X233000Y220000D02*
D03*
Y201000D02*
D03*
D55*
X283000Y314000D02*
D03*
X263000Y325000D02*
D03*
X274000Y314000D02*
D03*
X312000Y359000D02*
D03*
X384000Y306000D02*
D03*
X380000Y252000D02*
D03*
X352000Y271000D02*
D03*
X301000D02*
D03*
X343000Y223000D02*
D03*
X307000Y155000D02*
D03*
X297000Y156000D02*
D03*
X282000Y154000D02*
D03*
X62000Y107000D02*
D03*
D56*
X64000Y380000D02*
D03*
Y252000D02*
D03*
D57*
X179000Y169000D02*
D03*
Y225000D02*
D03*
D58*
X136000Y331000D02*
D03*
D59*
X142500D02*
D03*
X149000D02*
D03*
X155500D02*
D03*
X136000Y359000D02*
D03*
X142500D02*
D03*
X149000D02*
D03*
X155500D02*
D03*
D60*
X301600Y289400D02*
D03*
Y293400D02*
D03*
Y297400D02*
D03*
Y301400D02*
D03*
Y305400D02*
D03*
Y309400D02*
D03*
Y313400D02*
D03*
Y317400D02*
D03*
Y321400D02*
D03*
Y325400D02*
D03*
Y329400D02*
D03*
X358400D02*
D03*
Y325400D02*
D03*
Y321400D02*
D03*
Y317400D02*
D03*
Y313400D02*
D03*
Y309400D02*
D03*
Y305400D02*
D03*
Y301400D02*
D03*
Y297400D02*
D03*
Y293400D02*
D03*
Y289400D02*
D03*
D61*
X310000Y337800D02*
D03*
X314000D02*
D03*
X318000D02*
D03*
X322000D02*
D03*
X326000D02*
D03*
X330000D02*
D03*
X334000D02*
D03*
X338000D02*
D03*
X342000D02*
D03*
X346000D02*
D03*
X350000D02*
D03*
Y281000D02*
D03*
X346000D02*
D03*
X342000D02*
D03*
X338000D02*
D03*
X334000D02*
D03*
X330000D02*
D03*
X326000D02*
D03*
X322000D02*
D03*
X318000D02*
D03*
X314000D02*
D03*
X310000D02*
D03*
D62*
X337000Y196500D02*
D03*
Y190000D02*
D03*
Y183500D02*
D03*
Y177000D02*
D03*
X365000Y196500D02*
D03*
Y190000D02*
D03*
Y183500D02*
D03*
D63*
Y177000D02*
D03*
D64*
X485000Y92000D02*
D03*
X476000Y377000D02*
D03*
X145000Y306000D02*
D03*
D65*
X418000Y162000D02*
D03*
Y155500D02*
D03*
Y149000D02*
D03*
X456000Y149000D02*
D03*
Y162000D02*
D03*
Y155500D02*
D03*
X418000Y101000D02*
D03*
Y94500D02*
D03*
Y88000D02*
D03*
X456000Y88000D02*
D03*
Y101000D02*
D03*
Y94500D02*
D03*
D66*
X437000Y143000D02*
D03*
Y82000D02*
D03*
D67*
Y162500D02*
D03*
Y101500D02*
D03*
D68*
X230500Y174000D02*
D03*
Y163000D02*
D03*
D69*
X232000Y168500D02*
D03*
D70*
X246000Y171000D02*
D03*
Y166000D02*
D03*
Y161000D02*
D03*
Y176000D02*
D03*
D71*
X60000Y82600D02*
D03*
X69000D02*
D03*
X77000D02*
D03*
X86000D02*
D03*
X81500Y73600D02*
D03*
X38500Y94000D02*
D03*
X107500D02*
D03*
D72*
X12250Y36000D02*
D03*
X133750D02*
D03*
X12250Y74600D02*
D03*
X133750D02*
D03*
X28350Y98000D02*
D03*
X117650D02*
D03*
D73*
X41000Y82600D02*
D03*
X105000D02*
D03*
D74*
X192000Y124100D02*
D03*
D75*
X217000D02*
D03*
X237000D02*
D03*
X262000D02*
D03*
D76*
X161300Y97000D02*
D03*
X292700D02*
D03*
D77*
X478000Y305000D02*
D03*
Y187000D02*
D03*
D78*
X409000Y213800D02*
D03*
Y246200D02*
D03*
D79*
X336000Y58500D02*
D03*
D80*
X348500Y33500D02*
D03*
X393500D02*
D03*
D81*
X406000Y58500D02*
D03*
D82*
X118000Y217000D02*
D03*
Y191600D02*
D03*
D83*
Y166200D02*
D03*
D84*
X391400Y108000D02*
D03*
X366000D02*
D03*
D85*
X340600D02*
D03*
D86*
X24000Y204000D02*
D03*
X466000Y36000D02*
D03*
D87*
X470000Y246000D02*
D03*
M02*
